<?xml version="1.0" encoding="UTF-8" standalone="no"?><svg xmlns="http://www.w3.org/2000/svg" xmlns:xlink="http://www.w3.org/1999/xlink" contentStyleType="text/css" height="1145px" preserveAspectRatio="none" style="width:1960px;height:1145px;background:#FFFFFF;" version="1.1" viewBox="0 0 1960 1145" width="1960px" zoomAndPan="magnify"><defs/><g><!--MD5=[74b5fafa4a7b893aaa9820eb56fd4d72]
class Actor_T_--><a href="java:com.github.davidmoten.reels.Actor" target="_top" title="java:com.github.davidmoten.reels.Actor" xlink:actuate="onRequest" xlink:href="java:com.github.davidmoten.reels.Actor" xlink:show="new" xlink:title="java:com.github.davidmoten.reels.Actor" xlink:type="simple"><g id="elem_Actor_T_"><rect codeLine="3" fill="#F1F1F1" height="96.8906" id="Actor_T_" rx="2.5" ry="2.5" style="stroke:#181818;stroke-width:0.5;" width="309" x="587.5" y="10"/><ellipse cx="713.75" cy="26" fill="#B4A7E5" rx="11" ry="11" style="stroke:#181818;stroke-width:1.0;"/><path d="M709.6719,21.7656 L709.6719,19.6094 L717.0625,19.6094 L717.0625,21.7656 L714.5938,21.7656 L714.5938,29.8438 L717.0625,29.8438 L717.0625,32 L709.6719,32 L709.6719,29.8438 L712.1406,29.8438 L712.1406,21.7656 L709.6719,21.7656 Z " fill="#000000"/><text fill="#000000" font-family="sans-serif" font-size="14" font-style="italic" lengthAdjust="spacing" textLength="37" x="734.25" y="30.8467">Actor</text><rect fill="#FFFFFF" height="15.9688" style="stroke:#181818;stroke-width:1.0;stroke-dasharray:2.0,2.0;" width="9" x="890.5" y="7"/><text fill="#000000" font-family="sans-serif" font-size="12" font-style="italic" lengthAdjust="spacing" textLength="7" x="891.5" y="19.1387">T</text><line style="stroke:#181818;stroke-width:0.5;" x1="588.5" x2="895.5" y1="42" y2="42"/><line style="stroke:#181818;stroke-width:0.5;" x1="588.5" x2="895.5" y1="50" y2="50"/><text fill="#000000" font-family="sans-serif" font-size="14" lengthAdjust="spacing" textLength="297" x="593.5" y="66.9951">onMessage(message: Message&lt;T&gt;): void</text><text fill="#000000" font-family="sans-serif" font-size="14" lengthAdjust="spacing" textLength="227" x="593.5" y="83.292">preStart(self: ActorRef&lt;T&gt;): void</text><text fill="#000000" font-family="sans-serif" font-size="14" lengthAdjust="spacing" textLength="222" x="593.5" y="99.5889">onStop(self: ActorRef&lt;T&gt;): void</text></g></a><!--MD5=[cfdb1e23325882f518e34214decae8f8]
class ActorRef_T_--><a href="java:com.github.davidmoten.reels.ActorRef" target="_top" title="java:com.github.davidmoten.reels.ActorRef" xlink:actuate="onRequest" xlink:href="java:com.github.davidmoten.reels.ActorRef" xlink:show="new" xlink:title="java:com.github.davidmoten.reels.ActorRef" xlink:type="simple"><g id="elem_ActorRef_T_"><rect codeLine="8" fill="#F1F1F1" height="210.9688" id="ActorRef_T_" rx="2.5" ry="2.5" style="stroke:#181818;stroke-width:0.5;" width="317" x="569.5" y="548"/><ellipse cx="688.25" cy="564" fill="#B4A7E5" rx="11" ry="11" style="stroke:#181818;stroke-width:1.0;"/><path d="M684.1719,559.7656 L684.1719,557.6094 L691.5625,557.6094 L691.5625,559.7656 L689.0938,559.7656 L689.0938,567.8438 L691.5625,567.8438 L691.5625,570 L684.1719,570 L684.1719,567.8438 L686.6406,567.8438 L686.6406,559.7656 L684.1719,559.7656 Z " fill="#000000"/><text fill="#000000" font-family="sans-serif" font-size="14" font-style="italic" lengthAdjust="spacing" textLength="60" x="708.75" y="568.8467">ActorRef</text><rect fill="#FFFFFF" height="15.9688" style="stroke:#181818;stroke-width:1.0;stroke-dasharray:2.0,2.0;" width="9" x="880.5" y="545"/><text fill="#000000" font-family="sans-serif" font-size="12" font-style="italic" lengthAdjust="spacing" textLength="7" x="881.5" y="557.1387">T</text><line style="stroke:#181818;stroke-width:0.5;" x1="570.5" x2="885.5" y1="580" y2="580"/><line style="stroke:#181818;stroke-width:0.5;" x1="570.5" x2="885.5" y1="588" y2="588"/><text fill="#000000" font-family="sans-serif" font-size="14" lengthAdjust="spacing" textLength="149" x="575.5" y="604.9951">tell(message: T): void</text><text fill="#000000" font-family="sans-serif" font-size="14" lengthAdjust="spacing" textLength="305" x="575.5" y="621.292">tell(message: T, sender: ActorRef&lt;?&gt;): void</text><text fill="#000000" font-family="sans-serif" font-size="14" lengthAdjust="spacing" textLength="290" x="575.5" y="637.5889">ask(message: T): CompletableFuture&lt;S&gt;</text><text fill="#000000" font-family="sans-serif" font-size="14" lengthAdjust="spacing" textLength="78" x="575.5" y="653.8857">stop(): void</text><text fill="#000000" font-family="sans-serif" font-size="14" lengthAdjust="spacing" textLength="98" x="575.5" y="670.1826">name(): String</text><text fill="#000000" font-family="sans-serif" font-size="14" lengthAdjust="spacing" textLength="156" x="575.5" y="686.4795">parent(): ActorRef&lt;S&gt;</text><text fill="#000000" font-family="sans-serif" font-size="14" lengthAdjust="spacing" textLength="231" x="575.5" y="702.7764">child(name: String): ActorRef&lt;S&gt;</text><text fill="#000000" font-family="sans-serif" font-size="14" lengthAdjust="spacing" textLength="213" x="575.5" y="719.0732">children(): Collection&lt;ActorRef</text><text fill="#000000" font-family="sans-serif" font-size="14" lengthAdjust="spacing" text-decoration="line-through" textLength="12" x="788.5" y="719.0732">&gt;</text><text fill="#000000" font-family="sans-serif" font-size="14" lengthAdjust="spacing" textLength="154" x="575.5" y="735.3701">recast(): ActorRef&lt;S&gt;</text><text fill="#000000" font-family="sans-serif" font-size="14" lengthAdjust="spacing" textLength="158" x="575.5" y="751.667">narrow(): ActorRef&lt;S&gt;</text></g></a><!--MD5=[6754354365917abf8f1a56af1b7e344c]
class Context--><a href="java:com.github.davidmoten.reels.Context" target="_top" title="java:com.github.davidmoten.reels.Context" xlink:actuate="onRequest" xlink:href="java:com.github.davidmoten.reels.Context" xlink:show="new" xlink:title="java:com.github.davidmoten.reels.Context" xlink:type="simple"><g id="elem_Context"><rect codeLine="22" fill="#F1F1F1" height="129.4844" id="Context" rx="2.5" ry="2.5" style="stroke:#181818;stroke-width:0.5;" width="375" x="775.5" y="342"/><ellipse cx="931.75" cy="358" fill="#ADD1B2" rx="11" ry="11" style="stroke:#181818;stroke-width:1.0;"/><path d="M934.7188,363.6406 Q934.1406,363.9375 933.5,364.0781 Q932.8594,364.2344 932.1563,364.2344 Q929.6563,364.2344 928.3281,362.5938 Q927.0156,360.9375 927.0156,357.8125 Q927.0156,354.6875 928.3281,353.0313 Q929.6563,351.375 932.1563,351.375 Q932.8594,351.375 933.5,351.5313 Q934.1563,351.6875 934.7188,351.9844 L934.7188,354.7031 Q934.0938,354.125 933.5,353.8594 Q932.9063,353.5781 932.2813,353.5781 Q930.9375,353.5781 930.25,354.6563 Q929.5625,355.7188 929.5625,357.8125 Q929.5625,359.9063 930.25,360.9844 Q930.9375,362.0469 932.2813,362.0469 Q932.9063,362.0469 933.5,361.7813 Q934.0938,361.5 934.7188,360.9219 L934.7188,363.6406 Z " fill="#000000"/><text fill="#000000" font-family="sans-serif" font-size="14" lengthAdjust="spacing" textLength="54" x="952.25" y="362.8467">Context</text><line style="stroke:#181818;stroke-width:0.5;" x1="776.5" x2="1149.5" y1="374" y2="374"/><line style="stroke:#181818;stroke-width:0.5;" x1="776.5" x2="1149.5" y1="382" y2="382"/><text fill="#000000" font-family="sans-serif" font-size="14" lengthAdjust="spacing" textLength="203" x="781.5" y="398.9951">createActor(...): ActorRef&lt;T&gt;</text><text fill="#000000" font-family="sans-serif" font-size="14" lengthAdjust="spacing" textLength="363" x="781.5" y="415.292">lookupActor(name: String): Optional&lt;ActorRef&lt;T&gt;&gt;</text><text fill="#000000" font-family="sans-serif" font-size="14" lengthAdjust="spacing" textLength="304" x="781.5" y="431.5889">shutdownNow(): CompletableFuture&lt;Void&gt;</text><text fill="#000000" font-family="sans-serif" font-size="14" lengthAdjust="spacing" textLength="341" x="781.5" y="447.8857">shutdownGracefully(): CompletableFuture&lt;Void&gt;</text><text fill="#000000" font-family="sans-serif" font-size="14" lengthAdjust="spacing" textLength="219" x="781.5" y="464.1826">actorBuilder(): ActorBuilder&lt;T&gt;</text></g></a><!--MD5=[8523c9eb2e1b5151dfc9c2a797373c5f]
class Scheduler--><a href="java:com.github.davidmoten.reels.Scheduler" target="_top" title="java:com.github.davidmoten.reels.Scheduler" xlink:actuate="onRequest" xlink:href="java:com.github.davidmoten.reels.Scheduler" xlink:show="new" xlink:title="java:com.github.davidmoten.reels.Scheduler" xlink:type="simple"><g id="elem_Scheduler"><rect codeLine="58" fill="#F1F1F1" height="129.4844" id="Scheduler" rx="2.5" ry="2.5" style="stroke:#181818;stroke-width:0.5;" width="660" x="627" y="836"/><ellipse cx="917.75" cy="852" fill="#B4A7E5" rx="11" ry="11" style="stroke:#181818;stroke-width:1.0;"/><path d="M913.6719,847.7656 L913.6719,845.6094 L921.0625,845.6094 L921.0625,847.7656 L918.5938,847.7656 L918.5938,855.8438 L921.0625,855.8438 L921.0625,858 L913.6719,858 L913.6719,855.8438 L916.1406,855.8438 L916.1406,847.7656 L913.6719,847.7656 Z " fill="#000000"/><text fill="#000000" font-family="sans-serif" font-size="14" font-style="italic" lengthAdjust="spacing" textLength="70" x="938.25" y="856.8467">Scheduler</text><line style="stroke:#181818;stroke-width:0.5;" x1="628" x2="1286" y1="868" y2="868"/><line style="stroke:#181818;stroke-width:0.5;" x1="628" x2="1286" y1="876" y2="876"/><text fill="#000000" font-family="sans-serif" font-size="14" lengthAdjust="spacing" textLength="258" x="633" y="892.9951">schedule(run: Runnable): Disposable</text><text fill="#000000" font-family="sans-serif" font-size="14" lengthAdjust="spacing" textLength="445" x="633" y="909.292">schedule(run: Runnable, delay: long, unit: TimeUnit): Disposable</text><text fill="#000000" font-family="sans-serif" font-size="14" lengthAdjust="spacing" textLength="648" x="633" y="925.5889">schedulePeriodically(run: Runnable, initialDelay: long, period: long, unit: TimeUnit): Disposable</text><text fill="#000000" font-family="sans-serif" font-size="14" lengthAdjust="spacing" textLength="116" x="633" y="941.8857">shutdown(): void</text><text fill="#000000" font-family="sans-serif" font-size="14" lengthAdjust="spacing" textLength="214" x="633" y="958.1826">requiresSerialization(): boolean</text></g></a><!--MD5=[4f126f465601d391fe0c3c00f8b450b3]
class Supervisor--><a href="java:com.github.davidmoten.reels.Supervisor" target="_top" title="java:com.github.davidmoten.reels.Supervisor" xlink:actuate="onRequest" xlink:href="java:com.github.davidmoten.reels.Supervisor" xlink:show="new" xlink:title="java:com.github.davidmoten.reels.Supervisor" xlink:type="simple"><g id="elem_Supervisor"><rect codeLine="76" fill="#F1F1F1" height="64.2969" id="Supervisor" rx="2.5" ry="2.5" style="stroke:#181818;stroke-width:0.5;" width="657" x="1102.5" y="621.5"/><ellipse cx="1390.25" cy="637.5" fill="#B4A7E5" rx="11" ry="11" style="stroke:#181818;stroke-width:1.0;"/><path d="M1386.1719,633.2656 L1386.1719,631.1094 L1393.5625,631.1094 L1393.5625,633.2656 L1391.0938,633.2656 L1391.0938,641.3438 L1393.5625,641.3438 L1393.5625,643.5 L1386.1719,643.5 L1386.1719,641.3438 L1388.6406,641.3438 L1388.6406,633.2656 L1386.1719,633.2656 Z " fill="#000000"/><text fill="#000000" font-family="sans-serif" font-size="14" font-style="italic" lengthAdjust="spacing" textLength="73" x="1410.75" y="642.3467">Supervisor</text><line style="stroke:#181818;stroke-width:0.5;" x1="1103.5" x2="1758.5" y1="653.5" y2="653.5"/><line style="stroke:#181818;stroke-width:0.5;" x1="1103.5" x2="1758.5" y1="661.5" y2="661.5"/><text fill="#000000" font-family="sans-serif" font-size="14" lengthAdjust="spacing" textLength="645" x="1108.5" y="678.4951">processFailure(message: Message&lt;?&gt;, self: SupervisedActorRef&lt;?&gt;, error: Throwable): void</text></g></a><!--MD5=[75c3fe65802694c2f1da5ac7385b31cf]
class MailboxFactory--><g id="elem_MailboxFactory"><rect codeLine="41" fill="#F1F1F1" height="64.2969" id="MailboxFactory" rx="2.5" ry="2.5" style="stroke:#181818;stroke-width:0.5;" width="159" x="1794.5" y="621.5"/><ellipse cx="1820.3" cy="637.5" fill="#B4A7E5" rx="11" ry="11" style="stroke:#181818;stroke-width:1.0;"/><path d="M1816.2219,633.2656 L1816.2219,631.1094 L1823.6125,631.1094 L1823.6125,633.2656 L1821.1438,633.2656 L1821.1438,641.3438 L1823.6125,641.3438 L1823.6125,643.5 L1816.2219,643.5 L1816.2219,641.3438 L1818.6906,641.3438 L1818.6906,633.2656 L1816.2219,633.2656 Z " fill="#000000"/><text fill="#000000" font-family="sans-serif" font-size="14" font-style="italic" lengthAdjust="spacing" textLength="103" x="1836.7" y="642.3467">MailboxFactory</text><line style="stroke:#181818;stroke-width:0.5;" x1="1795.5" x2="1952.5" y1="653.5" y2="653.5"/><line style="stroke:#181818;stroke-width:0.5;" x1="1795.5" x2="1952.5" y1="661.5" y2="661.5"/><text fill="#000000" font-family="sans-serif" font-size="14" lengthAdjust="spacing" textLength="147" x="1800.5" y="678.4951">create(): Mailbox&lt;T&gt;</text></g><!--MD5=[3220eed22751203976d5239a64a70fda]
class Mailbox_T_--><g id="elem_Mailbox_T_"><rect codeLine="34" fill="#F1F1F1" height="96.8906" id="Mailbox_T_" rx="2.5" ry="2.5" style="stroke:#181818;stroke-width:0.5;" width="287" x="1526.5" y="852"/><ellipse cx="1634.25" cy="868" fill="#B4A7E5" rx="11" ry="11" style="stroke:#181818;stroke-width:1.0;"/><path d="M1630.1719,863.7656 L1630.1719,861.6094 L1637.5625,861.6094 L1637.5625,863.7656 L1635.0938,863.7656 L1635.0938,871.8438 L1637.5625,871.8438 L1637.5625,874 L1630.1719,874 L1630.1719,871.8438 L1632.6406,871.8438 L1632.6406,863.7656 L1630.1719,863.7656 Z " fill="#000000"/><text fill="#000000" font-family="sans-serif" font-size="14" font-style="italic" lengthAdjust="spacing" textLength="52" x="1654.75" y="872.8467">Mailbox</text><rect fill="#FFFFFF" height="15.9688" style="stroke:#181818;stroke-width:1.0;stroke-dasharray:2.0,2.0;" width="9" x="1807.5" y="849"/><text fill="#000000" font-family="sans-serif" font-size="12" font-style="italic" lengthAdjust="spacing" textLength="7" x="1808.5" y="861.1387">T</text><line style="stroke:#181818;stroke-width:0.5;" x1="1527.5" x2="1812.5" y1="884" y2="884"/><line style="stroke:#181818;stroke-width:0.5;" x1="1527.5" x2="1812.5" y1="892" y2="892"/><text fill="#000000" font-family="sans-serif" font-size="14" lengthAdjust="spacing" textLength="139" x="1532.5" y="908.9951">poll(): Message&lt;T&gt;</text><text fill="#000000" font-family="sans-serif" font-size="14" lengthAdjust="spacing" textLength="275" x="1532.5" y="925.292">offer(message: Message&lt;T&gt;): boolean</text><text fill="#000000" font-family="sans-serif" font-size="14" lengthAdjust="spacing" textLength="120" x="1532.5" y="941.5889">retryLatest(): void</text></g><!--MD5=[830aa9317707b3aef83b46739a735152]
class Disposable--><a href="java:com.github.davidmoten.reels.Disposable" target="_top" title="java:com.github.davidmoten.reels.Disposable" xlink:actuate="onRequest" xlink:href="java:com.github.davidmoten.reels.Disposable" xlink:show="new" xlink:title="java:com.github.davidmoten.reels.Disposable" xlink:type="simple"><g id="elem_Disposable"><rect codeLine="47" fill="#F1F1F1" height="80.5938" id="Disposable" rx="2.5" ry="2.5" style="stroke:#181818;stroke-width:0.5;" width="164" x="428" y="860"/><ellipse cx="468.65" cy="876" fill="#B4A7E5" rx="11" ry="11" style="stroke:#181818;stroke-width:1.0;"/><path d="M464.5719,871.7656 L464.5719,869.6094 L471.9625,869.6094 L471.9625,871.7656 L469.4938,871.7656 L469.4938,879.8438 L471.9625,879.8438 L471.9625,882 L464.5719,882 L464.5719,879.8438 L467.0406,879.8438 L467.0406,871.7656 L464.5719,871.7656 Z " fill="#000000"/><text fill="#000000" font-family="sans-serif" font-size="14" font-style="italic" lengthAdjust="spacing" textLength="75" x="488.35" y="880.8467">Disposable</text><line style="stroke:#181818;stroke-width:0.5;" x1="429" x2="591" y1="892" y2="892"/><line style="stroke:#181818;stroke-width:0.5;" x1="429" x2="591" y1="900" y2="900"/><text fill="#000000" font-family="sans-serif" font-size="14" lengthAdjust="spacing" textLength="102" x="434" y="916.9951">dispose(): void</text><text fill="#000000" font-family="sans-serif" font-size="14" lengthAdjust="spacing" textLength="152" x="434" y="933.292">isDisposed(): boolean</text></g></a><!--MD5=[c30b9ce4e79e90e142dac3fec7edc7b3]
class Message_T_--><a href="java:com.github.davidmoten.reels.Message" target="_top" title="java:com.github.davidmoten.reels.Message" xlink:actuate="onRequest" xlink:href="java:com.github.davidmoten.reels.Message" xlink:show="new" xlink:title="java:com.github.davidmoten.reels.Message" xlink:type="simple"><g id="elem_Message_T_"><rect codeLine="51" fill="#F1F1F1" height="113.1875" id="Message_T_" rx="2.5" ry="2.5" style="stroke:#181818;stroke-width:0.5;" width="183" x="823.5" y="168"/><ellipse cx="873.75" cy="184" fill="#ADD1B2" rx="11" ry="11" style="stroke:#181818;stroke-width:1.0;"/><path d="M876.7188,189.6406 Q876.1406,189.9375 875.5,190.0781 Q874.8594,190.2344 874.1563,190.2344 Q871.6563,190.2344 870.3281,188.5938 Q869.0156,186.9375 869.0156,183.8125 Q869.0156,180.6875 870.3281,179.0313 Q871.6563,177.375 874.1563,177.375 Q874.8594,177.375 875.5,177.5313 Q876.1563,177.6875 876.7188,177.9844 L876.7188,180.7031 Q876.0938,180.125 875.5,179.8594 Q874.9063,179.5781 874.2813,179.5781 Q872.9375,179.5781 872.25,180.6563 Q871.5625,181.7188 871.5625,183.8125 Q871.5625,185.9063 872.25,186.9844 Q872.9375,188.0469 874.2813,188.0469 Q874.9063,188.0469 875.5,187.7813 Q876.0938,187.5 876.7188,186.9219 L876.7188,189.6406 Z " fill="#000000"/><text fill="#000000" font-family="sans-serif" font-size="14" lengthAdjust="spacing" textLength="63" x="894.25" y="188.8467">Message</text><rect fill="#FFFFFF" height="15.9688" style="stroke:#181818;stroke-width:1.0;stroke-dasharray:2.0,2.0;" width="9" x="1000.5" y="165"/><text fill="#000000" font-family="sans-serif" font-size="12" font-style="italic" lengthAdjust="spacing" textLength="7" x="1001.5" y="177.1387">T</text><line style="stroke:#181818;stroke-width:0.5;" x1="824.5" x2="1005.5" y1="200" y2="200"/><line style="stroke:#181818;stroke-width:0.5;" x1="824.5" x2="1005.5" y1="208" y2="208"/><text fill="#000000" font-family="sans-serif" font-size="14" lengthAdjust="spacing" textLength="82" x="829.5" y="224.9951">content(): T</text><text fill="#000000" font-family="sans-serif" font-size="14" lengthAdjust="spacing" textLength="135" x="829.5" y="241.292">self(): ActorRef&lt;T&gt;</text><text fill="#000000" font-family="sans-serif" font-size="14" lengthAdjust="spacing" textLength="171" x="829.5" y="257.5889">recipient(): ActorRef&lt;T&gt;</text><text fill="#000000" font-family="sans-serif" font-size="14" lengthAdjust="spacing" textLength="160" x="829.5" y="273.8857">sender(): ActorRef&lt;S&gt;</text></g></a><!--MD5=[7b5bd88a8a025decccf0c9eac4aaabe9]
class Worker--><a href="java:com.github.davidmoten.reels.Worker" target="_top" title="java:com.github.davidmoten.reels.Worker" xlink:actuate="onRequest" xlink:href="java:com.github.davidmoten.reels.Worker" xlink:show="new" xlink:title="java:com.github.davidmoten.reels.Worker" xlink:type="simple"><g id="elem_Worker"><rect codeLine="79" fill="#F1F1F1" height="96.8906" id="Worker" rx="2.5" ry="2.5" style="stroke:#181818;stroke-width:0.5;" width="660" x="209" y="1042"/><ellipse cx="509.75" cy="1058" fill="#B4A7E5" rx="11" ry="11" style="stroke:#181818;stroke-width:1.0;"/><path d="M505.6719,1053.7656 L505.6719,1051.6094 L513.0625,1051.6094 L513.0625,1053.7656 L510.5938,1053.7656 L510.5938,1061.8438 L513.0625,1061.8438 L513.0625,1064 L505.6719,1064 L505.6719,1061.8438 L508.1406,1061.8438 L508.1406,1053.7656 L505.6719,1053.7656 Z " fill="#000000"/><text fill="#000000" font-family="sans-serif" font-size="14" font-style="italic" lengthAdjust="spacing" textLength="50" x="530.25" y="1062.8467">Worker</text><line style="stroke:#181818;stroke-width:0.5;" x1="210" x2="868" y1="1074" y2="1074"/><line style="stroke:#181818;stroke-width:0.5;" x1="210" x2="868" y1="1082" y2="1082"/><text fill="#000000" font-family="sans-serif" font-size="14" lengthAdjust="spacing" textLength="258" x="215" y="1098.9951">schedule(run: Runnable): Disposable</text><text fill="#000000" font-family="sans-serif" font-size="14" lengthAdjust="spacing" textLength="445" x="215" y="1115.292">schedule(run: Runnable, delay: long, unit: TimeUnit): Disposable</text><text fill="#000000" font-family="sans-serif" font-size="14" lengthAdjust="spacing" textLength="648" x="215" y="1131.5889">schedulePeriodically(run: Runnable, initialDelay: long, period: long, unit: TimeUnit): Disposable</text></g></a><!--MD5=[f292842727dd777a344d0ec9cefad6e3]
class SupervisedActorRef_T_--><a href="java:com.github.davidmoten.reels.SupervisedActorRef" target="_top" title="java:com.github.davidmoten.reels.SupervisedActorRef" xlink:actuate="onRequest" xlink:href="java:com.github.davidmoten.reels.SupervisedActorRef" xlink:show="new" xlink:title="java:com.github.davidmoten.reels.SupervisedActorRef" xlink:type="simple"><g id="elem_SupervisedActorRef_T_"><rect codeLine="68" fill="#F1F1F1" height="113.1875" id="SupervisedActorRef_T_" rx="2.5" ry="2.5" style="stroke:#181818;stroke-width:0.5;" width="386" x="7" y="844"/><ellipse cx="121.75" cy="860" fill="#B4A7E5" rx="11" ry="11" style="stroke:#181818;stroke-width:1.0;"/><path d="M117.6719,855.7656 L117.6719,853.6094 L125.0625,853.6094 L125.0625,855.7656 L122.5938,855.7656 L122.5938,863.8438 L125.0625,863.8438 L125.0625,866 L117.6719,866 L117.6719,863.8438 L120.1406,863.8438 L120.1406,855.7656 L117.6719,855.7656 Z " fill="#000000"/><text fill="#000000" font-family="sans-serif" font-size="14" font-style="italic" lengthAdjust="spacing" textLength="137" x="142.25" y="864.8467">SupervisedActorRef</text><rect fill="#FFFFFF" height="15.9688" style="stroke:#181818;stroke-width:1.0;stroke-dasharray:2.0,2.0;" width="9" x="387" y="841"/><text fill="#000000" font-family="sans-serif" font-size="12" font-style="italic" lengthAdjust="spacing" textLength="7" x="388" y="853.1387">T</text><line style="stroke:#181818;stroke-width:0.5;" x1="8" x2="392" y1="876" y2="876"/><line style="stroke:#181818;stroke-width:0.5;" x1="8" x2="392" y1="884" y2="884"/><text fill="#000000" font-family="sans-serif" font-size="14" lengthAdjust="spacing" textLength="120" x="13" y="900.9951">restart(): boolean</text><text fill="#000000" font-family="sans-serif" font-size="14" lengthAdjust="spacing" textLength="374" x="13" y="917.292">pauseAndRestart(delay: long, unit: TimeUnit): boolean</text><text fill="#000000" font-family="sans-serif" font-size="14" lengthAdjust="spacing" textLength="318" x="13" y="933.5889">pause(duration: long, unit: TimeUnit): boolean</text><text fill="#000000" font-family="sans-serif" font-size="14" lengthAdjust="spacing" textLength="78" x="13" y="949.8857">retry(): void</text></g></a><!--MD5=[74749d72d483cc5b7f5103a813029553]
link Context to ActorRef_T_--><g id="link_Context_ActorRef_T_"><path codeLine="20" d="M926.98,471.03 C916.62,487.08 904.66,503.78 892,518 C884.07,526.9 875.53,535.71 866.65,544.29 " fill="none" id="Context-to-ActorRef_T_" style="stroke:#181818;stroke-width:1.0;"/><polygon fill="#181818" points="862.82,547.96,872.0887,544.6296,866.4332,544.5039,866.5589,538.8484,862.82,547.96" style="stroke:#181818;stroke-width:1.0;"/><text fill="#000000" font-family="sans-serif" font-size="13" lengthAdjust="spacing" textLength="48" x="822.2657" y="521.9381">creates</text><text fill="#000000" font-family="sans-serif" font-size="13" lengthAdjust="spacing" textLength="7" x="842.7657" y="537.0709">*</text></g><!--MD5=[74749d72d483cc5b7f5103a813029553]
link Context to ActorRef_T_--><g id="link_Context_ActorRef_T_"><path codeLine="31" d="M810.64,471.24 C798.64,480.06 787.51,489.95 778,501 C767.44,513.27 759.09,527.83 752.5,543.01 " fill="none" id="Context-to-ActorRef_T_-1" style="stroke:#181818;stroke-width:1.0;"/><polygon fill="#181818" points="750.51,547.73,757.6787,540.9765,752.4432,543.1189,750.3009,537.8834,750.51,547.73" style="stroke:#181818;stroke-width:1.0;"/><text fill="#000000" font-family="sans-serif" font-size="13" lengthAdjust="spacing" textLength="104" x="779" y="514.0669">deadLetterActor</text><text fill="#000000" font-family="sans-serif" font-size="13" lengthAdjust="spacing" textLength="8" x="743.8115" y="536.8384">1</text></g><!--MD5=[cfe1415635816b1eaa9dede4b346cd2a]
link ActorRef_T_ to Scheduler--><g id="link_ActorRef_T__Scheduler"><path codeLine="21" d="M768.33,759.04 C777.54,775.83 788.4,792.2 801,806 C809.74,815.57 819.69,824.48 830.23,832.69 " fill="none" id="ActorRef_T_-to-Scheduler" style="stroke:#181818;stroke-width:1.0;"/><polygon fill="#181818" points="834.46,835.92,829.729,827.2818,830.4842,832.8881,824.8779,833.6432,834.46,835.92" style="stroke:#181818;stroke-width:1.0;"/><text fill="#000000" font-family="sans-serif" font-size="13" lengthAdjust="spacing" textLength="62" x="802" y="802.0669">scheduler</text><text fill="#000000" font-family="sans-serif" font-size="13" lengthAdjust="spacing" textLength="8" x="812.6197" y="825.0839">1</text></g><!--MD5=[eb6aa448c5e1da67edaae509762da0ca]
link Context to Supervisor--><g id="link_Context_Supervisor"><path codeLine="29" d="M1084.43,471.07 C1174.8,518.38 1294.58,581.08 1367.05,619.02 " fill="none" id="Context-to-Supervisor" style="stroke:#181818;stroke-width:1.0;"/><polygon fill="#181818" points="1371.75,621.48,1365.6354,613.7591,1367.3214,619.1589,1361.9216,620.8449,1371.75,621.48" style="stroke:#181818;stroke-width:1.0;"/><text fill="#000000" font-family="sans-serif" font-size="13" lengthAdjust="spacing" textLength="112" x="1169" y="514.0669">defaultSupervisor</text><text fill="#000000" font-family="sans-serif" font-size="13" lengthAdjust="spacing" textLength="8" x="1350.7047" y="610.379">1</text></g><!--MD5=[c6fe254617e82c9b41628c64d33c69dd]
link Context to Scheduler--><g id="link_Context_Scheduler"><path codeLine="30" d="M962.22,471.06 C961.1,563.7 959,735.14 957.84,830.67 " fill="none" id="Context-to-Scheduler" style="stroke:#181818;stroke-width:1.0;"/><polygon fill="#181818" points="957.78,835.72,961.9082,826.7781,957.8514,830.7205,953.909,826.6638,957.78,835.72" style="stroke:#181818;stroke-width:1.0;"/><text fill="#000000" font-family="sans-serif" font-size="13" lengthAdjust="spacing" textLength="108" x="963" y="658.0669">defaultScheduler</text><text fill="#000000" font-family="sans-serif" font-size="13" lengthAdjust="spacing" textLength="8" x="949.4278" y="824.862">1</text></g><!--MD5=[930ca48924a7c5a7f402b06b69705609]
link Context to MailboxFactory--><g id="link_Context_MailboxFactory"><path codeLine="32" d="M1150.65,425.84 C1356.46,448.4 1671.57,490.85 1777,548 C1807.12,564.33 1833.02,593.54 1850.46,616.93 " fill="none" id="Context-to-MailboxFactory" style="stroke:#181818;stroke-width:1.0;"/><polygon fill="#181818" points="1853.62,621.23,1851.4968,611.6127,1850.6521,617.2062,1845.0586,616.3614,1853.62,621.23" style="stroke:#181818;stroke-width:1.0;"/><text fill="#000000" font-family="sans-serif" font-size="13" lengthAdjust="spacing" textLength="139" x="1684" y="514.0669">defaultMailboxFactory</text><text fill="#000000" font-family="sans-serif" font-size="13" lengthAdjust="spacing" textLength="8" x="1840.8202" y="610.451">1</text></g><!--MD5=[e57425d759b9b2115ed145e9b0836b1e]
link ActorRef_T_ to Mailbox_T_--><g id="link_ActorRef_T__Mailbox_T_"><path codeLine="39" d="M891.41,750.07 C898.95,753.28 906.5,756.28 914,759 C942.43,769.31 1309.36,835.41 1521.36,873.16 " fill="none" id="ActorRef_T_-Mailbox_T_" style="stroke:#181818;stroke-width:1.0;"/><polygon fill="#181818" points="1526.34,874.05,1518.1894,868.5212,1521.4188,873.1656,1516.7744,876.395,1526.34,874.05" style="stroke:#181818;stroke-width:1.0;"/><polygon fill="#181818" points="886.71,748.04,893.4066,755.2619,891.3057,750.0096,896.558,747.9087,886.71,748.04" style="stroke:#181818;stroke-width:1.0;"/><text fill="#000000" font-family="sans-serif" font-size="13" lengthAdjust="spacing" textLength="8" x="894.5913" y="749.3269">1</text><text fill="#000000" font-family="sans-serif" font-size="13" lengthAdjust="spacing" textLength="8" x="1510.7263" y="869.3726">1</text></g><!--MD5=[7726ff91631d0c4337c9590ff11597f5]
link MailboxFactory to Mailbox_T_--><g id="link_MailboxFactory_Mailbox_T_"><path codeLine="45" d="M1848.16,685.53 C1814.17,726.36 1753.95,798.68 1713.02,847.83 " fill="none" id="MailboxFactory-to-Mailbox_T_" style="stroke:#181818;stroke-width:1.0;"/><polygon fill="#181818" points="1709.62,851.92,1718.453,847.5635,1712.8195,848.0777,1712.3053,842.4443,1709.62,851.92" style="stroke:#181818;stroke-width:1.0;"/><text fill="#000000" font-family="sans-serif" font-size="13" lengthAdjust="spacing" textLength="48" x="1663.6213" y="825.8647">creates</text><text fill="#000000" font-family="sans-serif" font-size="13" lengthAdjust="spacing" textLength="7" x="1684.1213" y="840.9975">*</text></g><!--MD5=[e24eb690c7f405a320586e4d8659a1a1]
link Message_T_ to Context--><g id="link_Message_T__Context"><path codeLine="57" d="M929.92,281.47 C934.58,298.92 939.77,318.37 944.63,336.6 " fill="none" id="Message_T_-to-Context" style="stroke:#181818;stroke-width:1.0;"/><polygon fill="#181818" points="945.99,341.71,947.5396,331.9838,944.7035,336.8784,939.8089,334.0423,945.99,341.71" style="stroke:#181818;stroke-width:1.0;"/><text fill="#000000" font-family="sans-serif" font-size="13" lengthAdjust="spacing" textLength="8" x="935.692" y="330.8509">1</text></g><!--MD5=[6ba452871ef290040c698d2819dbf9b7]
link Scheduler to Worker--><g id="link_Scheduler_Worker"><path codeLine="66" d="M815.78,965.02 C761.5,989.43 700.38,1016.92 649.41,1039.84 " fill="none" id="Scheduler-to-Worker" style="stroke:#181818;stroke-width:1.0;"/><polygon fill="#181818" points="644.83,1041.9,654.6787,1041.8429,649.3872,1039.8428,651.3872,1034.5513,644.83,1041.9" style="stroke:#181818;stroke-width:1.0;"/><text fill="#000000" font-family="sans-serif" font-size="13" lengthAdjust="spacing" textLength="48" x="749" y="1008.0669">creates</text><text fill="#000000" font-family="sans-serif" font-size="13" lengthAdjust="spacing" textLength="7" x="652.2202" y="1031.0949">*</text></g><!--MD5=[2cbb3ab964354acb40a1250c74a6c79f]
reverse link ActorRef_T_ to SupervisedActorRef_T_--><g id="link_ActorRef_T__SupervisedActorRef_T_"><path codeLine="74" d="M550.69,736.78 C474.78,772 388.13,812.21 319.95,843.84 " fill="none" id="ActorRef_T_-backto-SupervisedActorRef_T_" style="stroke:#181818;stroke-width:1.0;"/><polygon fill="none" points="548.14,730.24,569.22,728.17,554.03,742.94,548.14,730.24" style="stroke:#181818;stroke-width:1.0;"/></g><!--MD5=[9470a0001ba87d56bcf5c13d5e9ea485]
reverse link Disposable to Worker--><g id="link_Disposable_Worker"><path codeLine="84" d="M519.2,961.16 C523.21,987.15 527.85,1017.21 531.63,1041.69 " fill="none" id="Disposable-backto-Worker" style="stroke:#181818;stroke-width:1.0;"/><polygon fill="none" points="512.28,962.2,516.15,941.37,526.12,960.07,512.28,962.2" style="stroke:#181818;stroke-width:1.0;"/></g><!--MD5=[0ce498f2b7954d22af2c8676ce37302a]
link Actor_T_ to Message_T_--><g id="link_Actor_T__Message_T_"><path codeLine="85" d="M792.5,107.38 C811.2,125.1 832.64,145.42 852.29,164.05 " fill="none" id="Actor_T_-to-Message_T_" style="stroke:#181818;stroke-width:1.0;"/><polygon fill="#181818" points="856.2,167.76,852.4244,158.6636,852.5729,164.3185,846.918,164.467,856.2,167.76" style="stroke:#181818;stroke-width:1.0;"/><text fill="#000000" font-family="sans-serif" font-size="13" lengthAdjust="spacing" textLength="65" x="781.2141" y="141.9846">processes</text><text fill="#000000" font-family="sans-serif" font-size="13" lengthAdjust="spacing" textLength="7" x="810.2141" y="157.1174">*</text></g><!--MD5=[e97894d778cb9823a021cdc90baaf675]
link ActorRef_T_ to Actor_T_--><g id="link_ActorRef_T__Actor_T_"><path codeLine="86" d="M730.47,547.93 C733.48,420.39 738.45,209.75 740.76,112.15 " fill="none" id="ActorRef_T_-to-Actor_T_" style="stroke:#181818;stroke-width:1.0;"/><polygon fill="#181818" points="740.88,107.03,736.65,115.9242,740.7515,112.0283,744.6473,116.1298,740.88,107.03" style="stroke:#181818;stroke-width:1.0;"/><text fill="#000000" font-family="sans-serif" font-size="13" lengthAdjust="spacing" textLength="54" x="683.4529" y="126.8625">refers to</text><text fill="#000000" font-family="sans-serif" font-size="13" lengthAdjust="spacing" textLength="8" x="706.4529" y="141.9953">1</text></g><!--MD5=[fc00876e72077d93bfc13f17c6631b31]
@startuml
top to bottom direction

interface "Actor<T>" as Actor_T_ [[java:com.github.davidmoten.reels.Actor]] {
    onMessage(message: Message<T>): void
    preStart(self: ActorRef<T>): void
    onStop(self: ActorRef<T>): void
}
interface "ActorRef<T>" as ActorRef_T_ [[java:com.github.davidmoten.reels.ActorRef]] {
    tell(message: T): void
    tell(message: T, sender: ActorRef<?>): void
    ask(message: T): CompletableFuture<S>
    stop(): void
    name(): String
    parent(): ActorRef<S>
    child(name: String): ActorRef<S>
    children(): Collection<ActorRef<S>>
    recast(): ActorRef<S>
    narrow(): ActorRef<S>
}
Context - -> "creates\n*" ActorRef_T_
ActorRef_T_ - -> "1" Scheduler : scheduler
class Context [[java:com.github.davidmoten.reels.Context]] {
    createActor(...): ActorRef<T>
    lookupActor(name: String): Optional<ActorRef<T>>
    shutdownNow(): CompletableFuture<Void>
    shutdownGracefully(): CompletableFuture<Void>
    actorBuilder(): ActorBuilder<T>
}
Context - -> "1" Supervisor : defaultSupervisor
Context - -> "1" Scheduler : defaultScheduler
Context - -> "1" ActorRef_T_ : deadLetterActor
Context - -> "1" MailboxFactory: defaultMailboxFactory

interface "Mailbox<T>" as Mailbox_T_ {
    poll(): Message<T>
    offer(message: Message<T>): boolean
    retryLatest(): void
}
ActorRef_T_ "1" <- -> "1" Mailbox_T_

interface MailboxFactory {
    create(): Mailbox<T>
}

MailboxFactory - -> "creates\n*" Mailbox_T_ 

interface Disposable [[java:com.github.davidmoten.reels.Disposable]] {
    dispose(): void
    isDisposed(): boolean
}
class "Message<T>" as Message_T_ [[java:com.github.davidmoten.reels.Message]] {
    content(): T
    self(): ActorRef<T>
    recipient(): ActorRef<T>
    sender(): ActorRef<S>
}
Message_T_ - -> "1" Context
interface Scheduler [[java:com.github.davidmoten.reels.Scheduler]] {
    schedule(run: Runnable): Disposable
    schedule(run: Runnable, delay: long, unit: TimeUnit): Disposable
    schedulePeriodically(run: Runnable, initialDelay: long, period: long, unit: TimeUnit): Disposable
    shutdown(): void
    requiresSerialization(): boolean
}

Scheduler - -> "*" Worker : creates

interface "SupervisedActorRef<T>" as SupervisedActorRef_T_ [[java:com.github.davidmoten.reels.SupervisedActorRef]] {
    restart(): boolean
    pauseAndRestart(delay: long, unit: TimeUnit): boolean
    pause(duration: long, unit: TimeUnit): boolean
    retry(): void
}
ActorRef_T_ <|- - SupervisedActorRef_T_

interface Supervisor [[java:com.github.davidmoten.reels.Supervisor]] {
    processFailure(message: Message<?>, self: SupervisedActorRef<?>, error: Throwable): void
}
interface Worker [[java:com.github.davidmoten.reels.Worker]] {
    schedule(run: Runnable): Disposable
    schedule(run: Runnable, delay: long, unit: TimeUnit): Disposable
    schedulePeriodically(run: Runnable, initialDelay: long, period: long, unit: TimeUnit): Disposable
}
Disposable <|- - Worker
Actor_T_ - -> "processes\n*" Message_T_
ActorRef_T_ - -> "refers to\n1" Actor_T_
@enduml

PlantUML version 1.2022.8(Sun Sep 25 19:00:33 AEST 2022)
(GPL source distribution)
Java Runtime: OpenJDK Runtime Environment
JVM: OpenJDK 64-Bit Server VM
Default Encoding: UTF-8
Language: en
Country: AU
--></g></svg>