<?xml version="1.0" encoding="UTF-8" standalone="no"?><svg xmlns="http://www.w3.org/2000/svg" xmlns:xlink="http://www.w3.org/1999/xlink" contentStyleType="text/css" height="1145px" preserveAspectRatio="none" style="width:1766px;height:1145px;background:#FFFFFF;" version="1.1" viewBox="0 0 1766 1145" width="1766px" zoomAndPan="magnify"><defs/><g><!--MD5=[74b5fafa4a7b893aaa9820eb56fd4d72]
class Actor_T_--><a href="java:com.github.davidmoten.reels.Actor" target="_top" title="java:com.github.davidmoten.reels.Actor" xlink:actuate="onRequest" xlink:href="java:com.github.davidmoten.reels.Actor" xlink:show="new" xlink:title="java:com.github.davidmoten.reels.Actor" xlink:type="simple"><g id="elem_Actor_T_"><rect codeLine="1" fill="#F1F1F1" height="96.8906" id="Actor_T_" rx="2.5" ry="2.5" style="stroke:#181818;stroke-width:0.5;" width="309" x="574.5" y="10"/><ellipse cx="700.75" cy="26" fill="#B4A7E5" rx="11" ry="11" style="stroke:#181818;stroke-width:1.0;"/><path d="M696.6719,21.7656 L696.6719,19.6094 L704.0625,19.6094 L704.0625,21.7656 L701.5938,21.7656 L701.5938,29.8438 L704.0625,29.8438 L704.0625,32 L696.6719,32 L696.6719,29.8438 L699.1406,29.8438 L699.1406,21.7656 L696.6719,21.7656 Z " fill="#000000"/><text fill="#000000" font-family="sans-serif" font-size="14" font-style="italic" lengthAdjust="spacing" textLength="37" x="721.25" y="30.8467">Actor</text><rect fill="#FFFFFF" height="15.9688" style="stroke:#181818;stroke-width:1.0;stroke-dasharray:2.0,2.0;" width="9" x="877.5" y="7"/><text fill="#000000" font-family="sans-serif" font-size="12" font-style="italic" lengthAdjust="spacing" textLength="7" x="878.5" y="19.1387">T</text><line style="stroke:#181818;stroke-width:0.5;" x1="575.5" x2="882.5" y1="42" y2="42"/><line style="stroke:#181818;stroke-width:0.5;" x1="575.5" x2="882.5" y1="50" y2="50"/><text fill="#000000" font-family="sans-serif" font-size="14" lengthAdjust="spacing" textLength="297" x="580.5" y="66.9951">onMessage(message: Message&lt;T&gt;): void</text><text fill="#000000" font-family="sans-serif" font-size="14" lengthAdjust="spacing" textLength="227" x="580.5" y="83.292">preStart(self: ActorRef&lt;T&gt;): void</text><text fill="#000000" font-family="sans-serif" font-size="14" lengthAdjust="spacing" textLength="222" x="580.5" y="99.5889">onStop(self: ActorRef&lt;T&gt;): void</text></g></a><!--MD5=[cfdb1e23325882f518e34214decae8f8]
class ActorRef_T_--><a href="java:com.github.davidmoten.reels.ActorRef" target="_top" title="java:com.github.davidmoten.reels.ActorRef" xlink:actuate="onRequest" xlink:href="java:com.github.davidmoten.reels.ActorRef" xlink:show="new" xlink:title="java:com.github.davidmoten.reels.ActorRef" xlink:type="simple"><g id="elem_ActorRef_T_"><rect codeLine="6" fill="#F1F1F1" height="210.9688" id="ActorRef_T_" rx="2.5" ry="2.5" style="stroke:#181818;stroke-width:0.5;" width="317" x="569.5" y="548"/><ellipse cx="688.25" cy="564" fill="#B4A7E5" rx="11" ry="11" style="stroke:#181818;stroke-width:1.0;"/><path d="M684.1719,559.7656 L684.1719,557.6094 L691.5625,557.6094 L691.5625,559.7656 L689.0938,559.7656 L689.0938,567.8438 L691.5625,567.8438 L691.5625,570 L684.1719,570 L684.1719,567.8438 L686.6406,567.8438 L686.6406,559.7656 L684.1719,559.7656 Z " fill="#000000"/><text fill="#000000" font-family="sans-serif" font-size="14" font-style="italic" lengthAdjust="spacing" textLength="60" x="708.75" y="568.8467">ActorRef</text><rect fill="#FFFFFF" height="15.9688" style="stroke:#181818;stroke-width:1.0;stroke-dasharray:2.0,2.0;" width="9" x="880.5" y="545"/><text fill="#000000" font-family="sans-serif" font-size="12" font-style="italic" lengthAdjust="spacing" textLength="7" x="881.5" y="557.1387">T</text><line style="stroke:#181818;stroke-width:0.5;" x1="570.5" x2="885.5" y1="580" y2="580"/><line style="stroke:#181818;stroke-width:0.5;" x1="570.5" x2="885.5" y1="588" y2="588"/><text fill="#000000" font-family="sans-serif" font-size="14" lengthAdjust="spacing" textLength="149" x="575.5" y="604.9951">tell(message: T): void</text><text fill="#000000" font-family="sans-serif" font-size="14" lengthAdjust="spacing" textLength="305" x="575.5" y="621.292">tell(message: T, sender: ActorRef&lt;?&gt;): void</text><text fill="#000000" font-family="sans-serif" font-size="14" lengthAdjust="spacing" textLength="290" x="575.5" y="637.5889">ask(message: T): CompletableFuture&lt;S&gt;</text><text fill="#000000" font-family="sans-serif" font-size="14" lengthAdjust="spacing" textLength="78" x="575.5" y="653.8857">stop(): void</text><text fill="#000000" font-family="sans-serif" font-size="14" lengthAdjust="spacing" textLength="98" x="575.5" y="670.1826">name(): String</text><text fill="#000000" font-family="sans-serif" font-size="14" lengthAdjust="spacing" textLength="156" x="575.5" y="686.4795">parent(): ActorRef&lt;S&gt;</text><text fill="#000000" font-family="sans-serif" font-size="14" lengthAdjust="spacing" textLength="231" x="575.5" y="702.7764">child(name: String): ActorRef&lt;S&gt;</text><text fill="#000000" font-family="sans-serif" font-size="14" lengthAdjust="spacing" textLength="213" x="575.5" y="719.0732">children(): Collection&lt;ActorRef</text><text fill="#000000" font-family="sans-serif" font-size="14" lengthAdjust="spacing" text-decoration="line-through" textLength="12" x="788.5" y="719.0732">&gt;</text><text fill="#000000" font-family="sans-serif" font-size="14" lengthAdjust="spacing" textLength="154" x="575.5" y="735.3701">recast(): ActorRef&lt;S&gt;</text><text fill="#000000" font-family="sans-serif" font-size="14" lengthAdjust="spacing" textLength="158" x="575.5" y="751.667">narrow(): ActorRef&lt;S&gt;</text></g></a><!--MD5=[6754354365917abf8f1a56af1b7e344c]
class Context--><a href="java:com.github.davidmoten.reels.Context" target="_top" title="java:com.github.davidmoten.reels.Context" xlink:actuate="onRequest" xlink:href="java:com.github.davidmoten.reels.Context" xlink:show="new" xlink:title="java:com.github.davidmoten.reels.Context" xlink:type="simple"><g id="elem_Context"><rect codeLine="20" fill="#F1F1F1" height="129.4844" id="Context" rx="2.5" ry="2.5" style="stroke:#181818;stroke-width:0.5;" width="389" x="762.5" y="342"/><ellipse cx="925.75" cy="358" fill="#ADD1B2" rx="11" ry="11" style="stroke:#181818;stroke-width:1.0;"/><path d="M928.7188,363.6406 Q928.1406,363.9375 927.5,364.0781 Q926.8594,364.2344 926.1563,364.2344 Q923.6563,364.2344 922.3281,362.5938 Q921.0156,360.9375 921.0156,357.8125 Q921.0156,354.6875 922.3281,353.0313 Q923.6563,351.375 926.1563,351.375 Q926.8594,351.375 927.5,351.5313 Q928.1563,351.6875 928.7188,351.9844 L928.7188,354.7031 Q928.0938,354.125 927.5,353.8594 Q926.9063,353.5781 926.2813,353.5781 Q924.9375,353.5781 924.25,354.6563 Q923.5625,355.7188 923.5625,357.8125 Q923.5625,359.9063 924.25,360.9844 Q924.9375,362.0469 926.2813,362.0469 Q926.9063,362.0469 927.5,361.7813 Q928.0938,361.5 928.7188,360.9219 L928.7188,363.6406 Z " fill="#000000"/><text fill="#000000" font-family="sans-serif" font-size="14" lengthAdjust="spacing" textLength="54" x="946.25" y="362.8467">Context</text><line style="stroke:#181818;stroke-width:0.5;" x1="763.5" x2="1150.5" y1="374" y2="374"/><line style="stroke:#181818;stroke-width:0.5;" x1="763.5" x2="1150.5" y1="382" y2="382"/><ellipse cx="773.5" cy="395.6484" fill="#84BE84" rx="3" ry="3" style="stroke:#038048;stroke-width:1.0;"/><text fill="#000000" font-family="sans-serif" font-size="14" lengthAdjust="spacing" textLength="203" x="782.5" y="398.9951">createActor(...): ActorRef&lt;T&gt;</text><ellipse cx="773.5" cy="411.9453" fill="#84BE84" rx="3" ry="3" style="stroke:#038048;stroke-width:1.0;"/><text fill="#000000" font-family="sans-serif" font-size="14" lengthAdjust="spacing" textLength="363" x="782.5" y="415.292">lookupActor(name: String): Optional&lt;ActorRef&lt;T&gt;&gt;</text><ellipse cx="773.5" cy="428.2422" fill="#84BE84" rx="3" ry="3" style="stroke:#038048;stroke-width:1.0;"/><text fill="#000000" font-family="sans-serif" font-size="14" lengthAdjust="spacing" textLength="304" x="782.5" y="431.5889">shutdownNow(): CompletableFuture&lt;Void&gt;</text><ellipse cx="773.5" cy="444.5391" fill="#84BE84" rx="3" ry="3" style="stroke:#038048;stroke-width:1.0;"/><text fill="#000000" font-family="sans-serif" font-size="14" lengthAdjust="spacing" textLength="341" x="782.5" y="447.8857">shutdownGracefully(): CompletableFuture&lt;Void&gt;</text><ellipse cx="773.5" cy="460.8359" fill="#84BE84" rx="3" ry="3" style="stroke:#038048;stroke-width:1.0;"/><text fill="#000000" font-family="sans-serif" font-size="14" lengthAdjust="spacing" textLength="219" x="782.5" y="464.1826">actorBuilder(): ActorBuilder&lt;T&gt;</text></g></a><!--MD5=[8523c9eb2e1b5151dfc9c2a797373c5f]
class Scheduler--><a href="java:com.github.davidmoten.reels.Scheduler" target="_top" title="java:com.github.davidmoten.reels.Scheduler" xlink:actuate="onRequest" xlink:href="java:com.github.davidmoten.reels.Scheduler" xlink:show="new" xlink:title="java:com.github.davidmoten.reels.Scheduler" xlink:type="simple"><g id="elem_Scheduler"><rect codeLine="42" fill="#F1F1F1" height="129.4844" id="Scheduler" rx="2.5" ry="2.5" style="stroke:#181818;stroke-width:0.5;" width="660" x="627" y="836"/><ellipse cx="917.75" cy="852" fill="#B4A7E5" rx="11" ry="11" style="stroke:#181818;stroke-width:1.0;"/><path d="M913.6719,847.7656 L913.6719,845.6094 L921.0625,845.6094 L921.0625,847.7656 L918.5938,847.7656 L918.5938,855.8438 L921.0625,855.8438 L921.0625,858 L913.6719,858 L913.6719,855.8438 L916.1406,855.8438 L916.1406,847.7656 L913.6719,847.7656 Z " fill="#000000"/><text fill="#000000" font-family="sans-serif" font-size="14" font-style="italic" lengthAdjust="spacing" textLength="70" x="938.25" y="856.8467">Scheduler</text><line style="stroke:#181818;stroke-width:0.5;" x1="628" x2="1286" y1="868" y2="868"/><line style="stroke:#181818;stroke-width:0.5;" x1="628" x2="1286" y1="876" y2="876"/><text fill="#000000" font-family="sans-serif" font-size="14" lengthAdjust="spacing" textLength="258" x="633" y="892.9951">schedule(run: Runnable): Disposable</text><text fill="#000000" font-family="sans-serif" font-size="14" lengthAdjust="spacing" textLength="445" x="633" y="909.292">schedule(run: Runnable, delay: long, unit: TimeUnit): Disposable</text><text fill="#000000" font-family="sans-serif" font-size="14" lengthAdjust="spacing" textLength="648" x="633" y="925.5889">schedulePeriodically(run: Runnable, initialDelay: long, period: long, unit: TimeUnit): Disposable</text><text fill="#000000" font-family="sans-serif" font-size="14" lengthAdjust="spacing" textLength="116" x="633" y="941.8857">shutdown(): void</text><text fill="#000000" font-family="sans-serif" font-size="14" lengthAdjust="spacing" textLength="214" x="633" y="958.1826">requiresSerialization(): boolean</text></g></a><!--MD5=[4f126f465601d391fe0c3c00f8b450b3]
class Supervisor--><a href="java:com.github.davidmoten.reels.Supervisor" target="_top" title="java:com.github.davidmoten.reels.Supervisor" xlink:actuate="onRequest" xlink:href="java:com.github.davidmoten.reels.Supervisor" xlink:show="new" xlink:title="java:com.github.davidmoten.reels.Supervisor" xlink:type="simple"><g id="elem_Supervisor"><rect codeLine="60" fill="#F1F1F1" height="64.2969" id="Supervisor" rx="2.5" ry="2.5" style="stroke:#181818;stroke-width:0.5;" width="657" x="1102.5" y="621.5"/><ellipse cx="1390.25" cy="637.5" fill="#B4A7E5" rx="11" ry="11" style="stroke:#181818;stroke-width:1.0;"/><path d="M1386.1719,633.2656 L1386.1719,631.1094 L1393.5625,631.1094 L1393.5625,633.2656 L1391.0938,633.2656 L1391.0938,641.3438 L1393.5625,641.3438 L1393.5625,643.5 L1386.1719,643.5 L1386.1719,641.3438 L1388.6406,641.3438 L1388.6406,633.2656 L1386.1719,633.2656 Z " fill="#000000"/><text fill="#000000" font-family="sans-serif" font-size="14" font-style="italic" lengthAdjust="spacing" textLength="73" x="1410.75" y="642.3467">Supervisor</text><line style="stroke:#181818;stroke-width:0.5;" x1="1103.5" x2="1758.5" y1="653.5" y2="653.5"/><line style="stroke:#181818;stroke-width:0.5;" x1="1103.5" x2="1758.5" y1="661.5" y2="661.5"/><text fill="#000000" font-family="sans-serif" font-size="14" lengthAdjust="spacing" textLength="645" x="1108.5" y="678.4951">processFailure(message: Message&lt;?&gt;, self: SupervisedActorRef&lt;?&gt;, error: Throwable): void</text></g></a><!--MD5=[830aa9317707b3aef83b46739a735152]
class Disposable--><a href="java:com.github.davidmoten.reels.Disposable" target="_top" title="java:com.github.davidmoten.reels.Disposable" xlink:actuate="onRequest" xlink:href="java:com.github.davidmoten.reels.Disposable" xlink:show="new" xlink:title="java:com.github.davidmoten.reels.Disposable" xlink:type="simple"><g id="elem_Disposable"><rect codeLine="31" fill="#F1F1F1" height="80.5938" id="Disposable" rx="2.5" ry="2.5" style="stroke:#181818;stroke-width:0.5;" width="164" x="428" y="860"/><ellipse cx="468.65" cy="876" fill="#B4A7E5" rx="11" ry="11" style="stroke:#181818;stroke-width:1.0;"/><path d="M464.5719,871.7656 L464.5719,869.6094 L471.9625,869.6094 L471.9625,871.7656 L469.4938,871.7656 L469.4938,879.8438 L471.9625,879.8438 L471.9625,882 L464.5719,882 L464.5719,879.8438 L467.0406,879.8438 L467.0406,871.7656 L464.5719,871.7656 Z " fill="#000000"/><text fill="#000000" font-family="sans-serif" font-size="14" font-style="italic" lengthAdjust="spacing" textLength="75" x="488.35" y="880.8467">Disposable</text><line style="stroke:#181818;stroke-width:0.5;" x1="429" x2="591" y1="892" y2="892"/><line style="stroke:#181818;stroke-width:0.5;" x1="429" x2="591" y1="900" y2="900"/><text fill="#000000" font-family="sans-serif" font-size="14" lengthAdjust="spacing" textLength="102" x="434" y="916.9951">dispose(): void</text><text fill="#000000" font-family="sans-serif" font-size="14" lengthAdjust="spacing" textLength="152" x="434" y="933.292">isDisposed(): boolean</text></g></a><!--MD5=[c30b9ce4e79e90e142dac3fec7edc7b3]
class Message_T_--><a href="java:com.github.davidmoten.reels.Message" target="_top" title="java:com.github.davidmoten.reels.Message" xlink:actuate="onRequest" xlink:href="java:com.github.davidmoten.reels.Message" xlink:show="new" xlink:title="java:com.github.davidmoten.reels.Message" xlink:type="simple"><g id="elem_Message_T_"><rect codeLine="35" fill="#F1F1F1" height="113.1875" id="Message_T_" rx="2.5" ry="2.5" style="stroke:#181818;stroke-width:0.5;" width="197" x="810.5" y="168"/><ellipse cx="867.75" cy="184" fill="#ADD1B2" rx="11" ry="11" style="stroke:#181818;stroke-width:1.0;"/><path d="M870.7188,189.6406 Q870.1406,189.9375 869.5,190.0781 Q868.8594,190.2344 868.1563,190.2344 Q865.6563,190.2344 864.3281,188.5938 Q863.0156,186.9375 863.0156,183.8125 Q863.0156,180.6875 864.3281,179.0313 Q865.6563,177.375 868.1563,177.375 Q868.8594,177.375 869.5,177.5313 Q870.1563,177.6875 870.7188,177.9844 L870.7188,180.7031 Q870.0938,180.125 869.5,179.8594 Q868.9063,179.5781 868.2813,179.5781 Q866.9375,179.5781 866.25,180.6563 Q865.5625,181.7188 865.5625,183.8125 Q865.5625,185.9063 866.25,186.9844 Q866.9375,188.0469 868.2813,188.0469 Q868.9063,188.0469 869.5,187.7813 Q870.0938,187.5 870.7188,186.9219 L870.7188,189.6406 Z " fill="#000000"/><text fill="#000000" font-family="sans-serif" font-size="14" lengthAdjust="spacing" textLength="63" x="888.25" y="188.8467">Message</text><rect fill="#FFFFFF" height="15.9688" style="stroke:#181818;stroke-width:1.0;stroke-dasharray:2.0,2.0;" width="9" x="1001.5" y="165"/><text fill="#000000" font-family="sans-serif" font-size="12" font-style="italic" lengthAdjust="spacing" textLength="7" x="1002.5" y="177.1387">T</text><line style="stroke:#181818;stroke-width:0.5;" x1="811.5" x2="1006.5" y1="200" y2="200"/><line style="stroke:#181818;stroke-width:0.5;" x1="811.5" x2="1006.5" y1="208" y2="208"/><ellipse cx="821.5" cy="221.6484" fill="#84BE84" rx="3" ry="3" style="stroke:#038048;stroke-width:1.0;"/><text fill="#000000" font-family="sans-serif" font-size="14" lengthAdjust="spacing" textLength="82" x="830.5" y="224.9951">content(): T</text><ellipse cx="821.5" cy="237.9453" fill="#84BE84" rx="3" ry="3" style="stroke:#038048;stroke-width:1.0;"/><text fill="#000000" font-family="sans-serif" font-size="14" lengthAdjust="spacing" textLength="135" x="830.5" y="241.292">self(): ActorRef&lt;T&gt;</text><ellipse cx="821.5" cy="254.2422" fill="#84BE84" rx="3" ry="3" style="stroke:#038048;stroke-width:1.0;"/><text fill="#000000" font-family="sans-serif" font-size="14" lengthAdjust="spacing" textLength="171" x="830.5" y="257.5889">recipient(): ActorRef&lt;T&gt;</text><ellipse cx="821.5" cy="270.5391" fill="#84BE84" rx="3" ry="3" style="stroke:#038048;stroke-width:1.0;"/><text fill="#000000" font-family="sans-serif" font-size="14" lengthAdjust="spacing" textLength="160" x="830.5" y="273.8857">sender(): ActorRef&lt;S&gt;</text></g></a><!--MD5=[7b5bd88a8a025decccf0c9eac4aaabe9]
class Worker--><a href="java:com.github.davidmoten.reels.Worker" target="_top" title="java:com.github.davidmoten.reels.Worker" xlink:actuate="onRequest" xlink:href="java:com.github.davidmoten.reels.Worker" xlink:show="new" xlink:title="java:com.github.davidmoten.reels.Worker" xlink:type="simple"><g id="elem_Worker"><rect codeLine="63" fill="#F1F1F1" height="96.8906" id="Worker" rx="2.5" ry="2.5" style="stroke:#181818;stroke-width:0.5;" width="660" x="209" y="1042"/><ellipse cx="509.75" cy="1058" fill="#B4A7E5" rx="11" ry="11" style="stroke:#181818;stroke-width:1.0;"/><path d="M505.6719,1053.7656 L505.6719,1051.6094 L513.0625,1051.6094 L513.0625,1053.7656 L510.5938,1053.7656 L510.5938,1061.8438 L513.0625,1061.8438 L513.0625,1064 L505.6719,1064 L505.6719,1061.8438 L508.1406,1061.8438 L508.1406,1053.7656 L505.6719,1053.7656 Z " fill="#000000"/><text fill="#000000" font-family="sans-serif" font-size="14" font-style="italic" lengthAdjust="spacing" textLength="50" x="530.25" y="1062.8467">Worker</text><line style="stroke:#181818;stroke-width:0.5;" x1="210" x2="868" y1="1074" y2="1074"/><line style="stroke:#181818;stroke-width:0.5;" x1="210" x2="868" y1="1082" y2="1082"/><text fill="#000000" font-family="sans-serif" font-size="14" lengthAdjust="spacing" textLength="258" x="215" y="1098.9951">schedule(run: Runnable): Disposable</text><text fill="#000000" font-family="sans-serif" font-size="14" lengthAdjust="spacing" textLength="445" x="215" y="1115.292">schedule(run: Runnable, delay: long, unit: TimeUnit): Disposable</text><text fill="#000000" font-family="sans-serif" font-size="14" lengthAdjust="spacing" textLength="648" x="215" y="1131.5889">schedulePeriodically(run: Runnable, initialDelay: long, period: long, unit: TimeUnit): Disposable</text></g></a><!--MD5=[f292842727dd777a344d0ec9cefad6e3]
class SupervisedActorRef_T_--><a href="java:com.github.davidmoten.reels.SupervisedActorRef" target="_top" title="java:com.github.davidmoten.reels.SupervisedActorRef" xlink:actuate="onRequest" xlink:href="java:com.github.davidmoten.reels.SupervisedActorRef" xlink:show="new" xlink:title="java:com.github.davidmoten.reels.SupervisedActorRef" xlink:type="simple"><g id="elem_SupervisedActorRef_T_"><rect codeLine="52" fill="#F1F1F1" height="113.1875" id="SupervisedActorRef_T_" rx="2.5" ry="2.5" style="stroke:#181818;stroke-width:0.5;" width="386" x="7" y="844"/><ellipse cx="121.75" cy="860" fill="#B4A7E5" rx="11" ry="11" style="stroke:#181818;stroke-width:1.0;"/><path d="M117.6719,855.7656 L117.6719,853.6094 L125.0625,853.6094 L125.0625,855.7656 L122.5938,855.7656 L122.5938,863.8438 L125.0625,863.8438 L125.0625,866 L117.6719,866 L117.6719,863.8438 L120.1406,863.8438 L120.1406,855.7656 L117.6719,855.7656 Z " fill="#000000"/><text fill="#000000" font-family="sans-serif" font-size="14" font-style="italic" lengthAdjust="spacing" textLength="137" x="142.25" y="864.8467">SupervisedActorRef</text><rect fill="#FFFFFF" height="15.9688" style="stroke:#181818;stroke-width:1.0;stroke-dasharray:2.0,2.0;" width="9" x="387" y="841"/><text fill="#000000" font-family="sans-serif" font-size="12" font-style="italic" lengthAdjust="spacing" textLength="7" x="388" y="853.1387">T</text><line style="stroke:#181818;stroke-width:0.5;" x1="8" x2="392" y1="876" y2="876"/><line style="stroke:#181818;stroke-width:0.5;" x1="8" x2="392" y1="884" y2="884"/><text fill="#000000" font-family="sans-serif" font-size="14" lengthAdjust="spacing" textLength="120" x="13" y="900.9951">restart(): boolean</text><text fill="#000000" font-family="sans-serif" font-size="14" lengthAdjust="spacing" textLength="374" x="13" y="917.292">pauseAndRestart(delay: long, unit: TimeUnit): boolean</text><text fill="#000000" font-family="sans-serif" font-size="14" lengthAdjust="spacing" textLength="318" x="13" y="933.5889">pause(duration: long, unit: TimeUnit): boolean</text><text fill="#000000" font-family="sans-serif" font-size="14" lengthAdjust="spacing" textLength="78" x="13" y="949.8857">retry(): void</text></g></a><!--MD5=[74749d72d483cc5b7f5103a813029553]
link Context to ActorRef_T_--><g id="link_Context_ActorRef_T_"><path codeLine="18" d="M920.62,471.16 C910.3,487.13 898.46,503.75 886,518 C878.32,526.78 870.06,535.49 861.49,544.01 " fill="none" id="Context-to-ActorRef_T_" style="stroke:#181818;stroke-width:1.0;"/><polygon fill="#181818" points="857.79,547.65,867.0176,544.2075,861.3611,544.1504,861.4182,538.4938,857.79,547.65" style="stroke:#181818;stroke-width:1.0;"/><text fill="#000000" font-family="sans-serif" font-size="13" lengthAdjust="spacing" textLength="48" x="816.5672" y="521.9845">creates</text><text fill="#000000" font-family="sans-serif" font-size="13" lengthAdjust="spacing" textLength="7" x="837.0672" y="537.1173">*</text></g><!--MD5=[74749d72d483cc5b7f5103a813029553]
link Context to ActorRef_T_--><g id="link_Context_ActorRef_T_"><path codeLine="29" d="M803.77,471.21 C792.03,480.03 781.19,489.92 772,501 C761.78,513.32 753.93,527.91 747.9,543.1 " fill="none" id="Context-to-ActorRef_T_-1" style="stroke:#181818;stroke-width:1.0;"/><polygon fill="#181818" points="746.09,547.83,753.0399,540.8515,747.8753,543.1596,745.5673,537.995,746.09,547.83" style="stroke:#181818;stroke-width:1.0;"/><text fill="#000000" font-family="sans-serif" font-size="13" lengthAdjust="spacing" textLength="104" x="773" y="514.0669">deadLetterActor</text><text fill="#000000" font-family="sans-serif" font-size="13" lengthAdjust="spacing" textLength="8" x="739.0807" y="536.9454">1</text></g><!--MD5=[cfe1415635816b1eaa9dede4b346cd2a]
link ActorRef_T_ to Scheduler--><g id="link_ActorRef_T__Scheduler"><path codeLine="19" d="M823.38,759.12 C837.93,774.89 852.82,790.91 867,806 C874.97,814.48 883.38,823.34 891.73,832.08 " fill="none" id="ActorRef_T_-to-Scheduler" style="stroke:#181818;stroke-width:1.0;"/><polygon fill="#181818" points="895.31,835.82,891.9796,826.5513,891.8539,832.2068,886.1984,832.0811,895.31,835.82" style="stroke:#181818;stroke-width:1.0;"/><text fill="#000000" font-family="sans-serif" font-size="13" lengthAdjust="spacing" textLength="62" x="868" y="802.0669">scheduler</text><text fill="#000000" font-family="sans-serif" font-size="13" lengthAdjust="spacing" textLength="8" x="880.1252" y="824.973">1</text></g><!--MD5=[eb6aa448c5e1da67edaae509762da0ca]
link Context to Supervisor--><g id="link_Context_Supervisor"><path codeLine="27" d="M1079.99,471.07 C1171.52,518.38 1292.83,581.08 1366.23,619.02 " fill="none" id="Context-to-Supervisor" style="stroke:#181818;stroke-width:1.0;"/><polygon fill="#181818" points="1370.99,621.48,1364.8364,613.7902,1366.5497,619.1813,1361.1586,620.8946,1370.99,621.48" style="stroke:#181818;stroke-width:1.0;"/><text fill="#000000" font-family="sans-serif" font-size="13" lengthAdjust="spacing" textLength="112" x="1166" y="514.0669">defaultSupervisor</text><text fill="#000000" font-family="sans-serif" font-size="13" lengthAdjust="spacing" textLength="8" x="1349.7879" y="610.379">1</text></g><!--MD5=[c6fe254617e82c9b41628c64d33c69dd]
link Context to Scheduler--><g id="link_Context_Scheduler"><path codeLine="28" d="M957,471.06 C957,563.7 957,735.14 957,830.67 " fill="none" id="Context-to-Scheduler" style="stroke:#181818;stroke-width:1.0;"/><polygon fill="#181818" points="957,835.72,961,826.72,957,830.72,953,826.72,957,835.72" style="stroke:#181818;stroke-width:1.0;"/><text fill="#000000" font-family="sans-serif" font-size="13" lengthAdjust="spacing" textLength="108" x="958" y="658.0669">defaultScheduler</text><text fill="#000000" font-family="sans-serif" font-size="13" lengthAdjust="spacing" textLength="8" x="948.5625" y="824.862">1</text></g><!--MD5=[e24eb690c7f405a320586e4d8659a1a1]
link Message_T_ to Context--><g id="link_Message_T__Context"><path codeLine="41" d="M923.92,281.47 C928.58,298.92 933.77,318.37 938.63,336.6 " fill="none" id="Message_T_-to-Context" style="stroke:#181818;stroke-width:1.0;"/><polygon fill="#181818" points="939.99,341.71,941.5396,331.9838,938.7035,336.8784,933.8089,334.0423,939.99,341.71" style="stroke:#181818;stroke-width:1.0;"/><text fill="#000000" font-family="sans-serif" font-size="13" lengthAdjust="spacing" textLength="8" x="929.692" y="330.8509">1</text></g><!--MD5=[6ba452871ef290040c698d2819dbf9b7]
link Scheduler to Worker--><g id="link_Scheduler_Worker"><path codeLine="50" d="M815.78,965.02 C761.5,989.43 700.38,1016.92 649.41,1039.84 " fill="none" id="Scheduler-to-Worker" style="stroke:#181818;stroke-width:1.0;"/><polygon fill="#181818" points="644.83,1041.9,654.6787,1041.8429,649.3872,1039.8428,651.3872,1034.5513,644.83,1041.9" style="stroke:#181818;stroke-width:1.0;"/><text fill="#000000" font-family="sans-serif" font-size="13" lengthAdjust="spacing" textLength="48" x="749" y="1008.0669">creates</text><text fill="#000000" font-family="sans-serif" font-size="13" lengthAdjust="spacing" textLength="7" x="652.2202" y="1031.0949">*</text></g><!--MD5=[2cbb3ab964354acb40a1250c74a6c79f]
reverse link ActorRef_T_ to SupervisedActorRef_T_--><g id="link_ActorRef_T__SupervisedActorRef_T_"><path codeLine="58" d="M550.69,736.78 C474.78,772 388.13,812.21 319.95,843.84 " fill="none" id="ActorRef_T_-backto-SupervisedActorRef_T_" style="stroke:#181818;stroke-width:1.0;"/><polygon fill="none" points="548.14,730.24,569.22,728.17,554.03,742.94,548.14,730.24" style="stroke:#181818;stroke-width:1.0;"/></g><!--MD5=[9470a0001ba87d56bcf5c13d5e9ea485]
reverse link Disposable to Worker--><g id="link_Disposable_Worker"><path codeLine="68" d="M519.2,961.16 C523.21,987.15 527.85,1017.21 531.63,1041.69 " fill="none" id="Disposable-backto-Worker" style="stroke:#181818;stroke-width:1.0;"/><polygon fill="none" points="512.28,962.2,516.15,941.37,526.12,960.07,512.28,962.2" style="stroke:#181818;stroke-width:1.0;"/></g><!--MD5=[0ce498f2b7954d22af2c8676ce37302a]
link Actor_T_ to Message_T_--><g id="link_Actor_T__Message_T_"><path codeLine="69" d="M781.55,107.38 C801.08,125.18 823.49,145.59 844.01,164.29 " fill="none" id="Actor_T_-to-Message_T_" style="stroke:#181818;stroke-width:1.0;"/><polygon fill="#181818" points="847.82,167.76,843.8616,158.7416,844.1242,164.3924,838.4734,164.6549,847.82,167.76" style="stroke:#181818;stroke-width:1.0;"/><text fill="#000000" font-family="sans-serif" font-size="13" lengthAdjust="spacing" textLength="65" x="772.5738" y="141.9846">processes</text><text fill="#000000" font-family="sans-serif" font-size="13" lengthAdjust="spacing" textLength="7" x="801.5738" y="157.1174">*</text></g><!--MD5=[e97894d778cb9823a021cdc90baaf675]
link ActorRef_T_ to Actor_T_--><g id="link_ActorRef_T__Actor_T_"><path codeLine="70" d="M728.18,547.93 C728.39,420.39 728.75,209.75 728.91,112.15 " fill="none" id="ActorRef_T_-to-Actor_T_" style="stroke:#181818;stroke-width:1.0;"/><polygon fill="#181818" points="728.92,107.03,724.8943,116.0185,728.9057,112.03,732.8943,116.0414,728.92,107.03" style="stroke:#181818;stroke-width:1.0;"/><text fill="#000000" font-family="sans-serif" font-size="13" lengthAdjust="spacing" textLength="54" x="671.6196" y="126.8625">refers to</text><text fill="#000000" font-family="sans-serif" font-size="13" lengthAdjust="spacing" textLength="8" x="694.6196" y="141.9953">1</text></g><!--MD5=[e82713681b88227b95a0a30a5a76cac1]
@startuml
interface "Actor<T>" as Actor_T_ [[java:com.github.davidmoten.reels.Actor]] {
    onMessage(message: Message<T>): void
    preStart(self: ActorRef<T>): void
    onStop(self: ActorRef<T>): void
}
interface "ActorRef<T>" as ActorRef_T_ [[java:com.github.davidmoten.reels.ActorRef]] {
    tell(message: T): void
    tell(message: T, sender: ActorRef<?>): void
    ask(message: T): CompletableFuture<S>
    stop(): void
    name(): String
    parent(): ActorRef<S>
    child(name: String): ActorRef<S>
    children(): Collection<ActorRef<S>>
    recast(): ActorRef<S>
    narrow(): ActorRef<S>
}
Context - -> "creates\n*" ActorRef_T_
ActorRef_T_ - -> "1" Scheduler : scheduler
class Context [[java:com.github.davidmoten.reels.Context]] {
    +createActor(...): ActorRef<T>
    +lookupActor(name: String): Optional<ActorRef<T>>
    +shutdownNow(): CompletableFuture<Void>
    +shutdownGracefully(): CompletableFuture<Void>
    +actorBuilder(): ActorBuilder<T>
}
Context - -> "1" Supervisor : defaultSupervisor
Context - -> "1" Scheduler : defaultScheduler
Context - -> "1" ActorRef_T_ : deadLetterActor

interface Disposable [[java:com.github.davidmoten.reels.Disposable]] {
    dispose(): void
    isDisposed(): boolean
}
class "Message<T>" as Message_T_ [[java:com.github.davidmoten.reels.Message]] {
    +content(): T
    +self(): ActorRef<T>
    +recipient(): ActorRef<T>
    +sender(): ActorRef<S>
}
Message_T_ - -> "1" Context
interface Scheduler [[java:com.github.davidmoten.reels.Scheduler]] {
    schedule(run: Runnable): Disposable
    schedule(run: Runnable, delay: long, unit: TimeUnit): Disposable
    schedulePeriodically(run: Runnable, initialDelay: long, period: long, unit: TimeUnit): Disposable
    shutdown(): void
    requiresSerialization(): boolean
}

Scheduler - -> "*" Worker : creates

interface "SupervisedActorRef<T>" as SupervisedActorRef_T_ [[java:com.github.davidmoten.reels.SupervisedActorRef]] {
    restart(): boolean
    pauseAndRestart(delay: long, unit: TimeUnit): boolean
    pause(duration: long, unit: TimeUnit): boolean
    retry(): void
}
ActorRef_T_ <|- - SupervisedActorRef_T_

interface Supervisor [[java:com.github.davidmoten.reels.Supervisor]] {
    processFailure(message: Message<?>, self: SupervisedActorRef<?>, error: Throwable): void
}
interface Worker [[java:com.github.davidmoten.reels.Worker]] {
    schedule(run: Runnable): Disposable
    schedule(run: Runnable, delay: long, unit: TimeUnit): Disposable
    schedulePeriodically(run: Runnable, initialDelay: long, period: long, unit: TimeUnit): Disposable
}
Disposable <|- - Worker
Actor_T_ - -> "processes\n*" Message_T_
ActorRef_T_ - -> "refers to\n1" Actor_T_
@enduml

PlantUML version 1.2022.7(Tue Aug 23 03:01:30 AEST 2022)
(GPL source distribution)
Java Runtime: OpenJDK Runtime Environment
JVM: OpenJDK 64-Bit Server VM
Default Encoding: UTF-8
Language: en
Country: AU
--></g></svg>