<?xml version="1.0" encoding="UTF-8" standalone="no"?><svg xmlns="http://www.w3.org/2000/svg" xmlns:xlink="http://www.w3.org/1999/xlink" contentStyleType="text/css" height="608px" preserveAspectRatio="none" style="width:1272px;height:608px;background:#FFFFFF;" version="1.1" viewBox="0 0 1272 608" width="1272px" zoomAndPan="magnify"><defs/><g><!--MD5=[45e244e688648429b3d4d1bd92760c07]
class ActorRef--><g id="elem_ActorRef"><rect codeLine="2" fill="#F1F1F1" height="96.8906" id="ActorRef" rx="2.5" ry="2.5" style="stroke:#181818;stroke-width:0.5;" width="331" x="612.97" y="7"/><ellipse cx="744.72" cy="23" fill="#ADD1B2" rx="11" ry="11" style="stroke:#181818;stroke-width:1.0;"/><path d="M747.6887,28.6406 Q747.1106,28.9375 746.47,29.0781 Q745.8294,29.2344 745.1262,29.2344 Q742.6262,29.2344 741.2981,27.5938 Q739.9856,25.9375 739.9856,22.8125 Q739.9856,19.6875 741.2981,18.0313 Q742.6262,16.375 745.1262,16.375 Q745.8294,16.375 746.47,16.5313 Q747.1262,16.6875 747.6887,16.9844 L747.6887,19.7031 Q747.0637,19.125 746.47,18.8594 Q745.8762,18.5781 745.2512,18.5781 Q743.9075,18.5781 743.22,19.6563 Q742.5325,20.7188 742.5325,22.8125 Q742.5325,24.9063 743.22,25.9844 Q743.9075,27.0469 745.2512,27.0469 Q745.8762,27.0469 746.47,26.7813 Q747.0637,26.5 747.6887,25.9219 L747.6887,28.6406 Z " fill="#000000"/><text fill="#000000" font-family="sans-serif" font-size="14" lengthAdjust="spacing" textLength="59" x="765.22" y="27.8467">ActorRef</text><line style="stroke:#181818;stroke-width:0.5;" x1="613.97" x2="942.97" y1="39" y2="39"/><line style="stroke:#181818;stroke-width:0.5;" x1="613.97" x2="942.97" y1="47" y2="47"/><ellipse cx="623.97" cy="60.6484" fill="#84BE84" rx="3" ry="3" style="stroke:#038048;stroke-width:1.0;"/><text fill="#000000" font-family="sans-serif" font-size="14" lengthAdjust="spacing" textLength="180" x="632.97" y="63.9951">void tell(message: Object)</text><ellipse cx="623.97" cy="76.9453" fill="#84BE84" rx="3" ry="3" style="stroke:#038048;stroke-width:1.0;"/><text fill="#000000" font-family="sans-serif" font-size="14" lengthAdjust="spacing" textLength="305" x="632.97" y="80.292">void tell(message: Object, sender: ActorRef)</text><ellipse cx="623.97" cy="93.2422" fill="#84BE84" rx="3" ry="3" style="stroke:#038048;stroke-width:1.0;"/><text fill="#000000" font-family="sans-serif" font-size="14" lengthAdjust="spacing" textLength="97" x="632.97" y="96.5889">void dispose()</text></g><!--MD5=[44201db48fb57df1a9c7f5b6b15426b0]
class Actor--><g id="elem_Actor"><rect codeLine="8" fill="#F1F1F1" height="64.2969" id="Actor" rx="2.5" ry="2.5" style="stroke:#181818;stroke-width:0.5;" width="149" x="556.97" y="164"/><ellipse cx="608.72" cy="180" fill="#B4A7E5" rx="11" ry="11" style="stroke:#181818;stroke-width:1.0;"/><path d="M604.6419,175.7656 L604.6419,173.6094 L612.0325,173.6094 L612.0325,175.7656 L609.5637,175.7656 L609.5637,183.8438 L612.0325,183.8438 L612.0325,186 L604.6419,186 L604.6419,183.8438 L607.1106,183.8438 L607.1106,175.7656 L604.6419,175.7656 Z " fill="#000000"/><text fill="#000000" font-family="sans-serif" font-size="14" font-style="italic" lengthAdjust="spacing" textLength="37" x="629.22" y="184.8467">Actor</text><line style="stroke:#181818;stroke-width:0.5;" x1="557.97" x2="704.97" y1="196" y2="196"/><line style="stroke:#181818;stroke-width:0.5;" x1="557.97" x2="704.97" y1="204" y2="204"/><ellipse cx="567.97" cy="217.6484" fill="#84BE84" rx="3" ry="3" style="stroke:#038048;stroke-width:1.0;"/><text fill="#000000" font-family="sans-serif" font-size="14" lengthAdjust="spacing" textLength="123" x="576.97" y="220.9951">void onMessage()</text></g><!--MD5=[6754354365917abf8f1a56af1b7e344c]
class Context--><g id="elem_Context"><rect codeLine="12" fill="#F1F1F1" height="80.5938" id="Context" rx="2.5" ry="2.5" style="stroke:#181818;stroke-width:0.5;" width="596" x="46.47" y="288"/><ellipse cx="313.22" cy="304" fill="#ADD1B2" rx="11" ry="11" style="stroke:#181818;stroke-width:1.0;"/><path d="M316.1888,309.6406 Q315.6106,309.9375 314.97,310.0781 Q314.3294,310.2344 313.6263,310.2344 Q311.1263,310.2344 309.7981,308.5938 Q308.4856,306.9375 308.4856,303.8125 Q308.4856,300.6875 309.7981,299.0313 Q311.1263,297.375 313.6263,297.375 Q314.3294,297.375 314.97,297.5313 Q315.6263,297.6875 316.1888,297.9844 L316.1888,300.7031 Q315.5638,300.125 314.97,299.8594 Q314.3763,299.5781 313.7513,299.5781 Q312.4075,299.5781 311.72,300.6563 Q311.0325,301.7188 311.0325,303.8125 Q311.0325,305.9063 311.72,306.9844 Q312.4075,308.0469 313.7513,308.0469 Q314.3763,308.0469 314.97,307.7813 Q315.5638,307.5 316.1888,306.9219 L316.1888,309.6406 Z " fill="#000000"/><text fill="#000000" font-family="sans-serif" font-size="14" lengthAdjust="spacing" textLength="54" x="333.72" y="308.8467">Context</text><line style="stroke:#181818;stroke-width:0.5;" x1="47.47" x2="641.47" y1="320" y2="320"/><line style="stroke:#181818;stroke-width:0.5;" x1="47.47" x2="641.47" y1="328" y2="328"/><ellipse cx="57.47" cy="341.6484" fill="#84BE84" rx="3" ry="3" style="stroke:#038048;stroke-width:1.0;"/><text fill="#000000" font-family="sans-serif" font-size="14" lengthAdjust="spacing" textLength="570" x="66.47" y="344.9951">create(actorClass: Class&lt;? extends Actor&gt;, name: String, scheduleOn: Scheduler)</text><ellipse cx="57.47" cy="357.9453" fill="#84BE84" rx="3" ry="3" style="stroke:#038048;stroke-width:1.0;"/><text fill="#000000" font-family="sans-serif" font-size="14" lengthAdjust="spacing" textLength="219" x="66.47" y="361.292">ActorRef actorRef(name: String)</text></g><!--MD5=[8523c9eb2e1b5151dfc9c2a797373c5f]
class Scheduler--><g id="elem_Scheduler"><rect codeLine="17" fill="#F1F1F1" height="48" id="Scheduler" rx="2.5" ry="2.5" style="stroke:#181818;stroke-width:0.5;" width="102" x="241.47" y="429"/><ellipse cx="256.47" cy="445" fill="#ADD1B2" rx="11" ry="11" style="stroke:#181818;stroke-width:1.0;"/><path d="M259.4388,450.6406 Q258.8606,450.9375 258.22,451.0781 Q257.5794,451.2344 256.8763,451.2344 Q254.3763,451.2344 253.0481,449.5938 Q251.7356,447.9375 251.7356,444.8125 Q251.7356,441.6875 253.0481,440.0313 Q254.3763,438.375 256.8763,438.375 Q257.5794,438.375 258.22,438.5313 Q258.8763,438.6875 259.4388,438.9844 L259.4388,441.7031 Q258.8138,441.125 258.22,440.8594 Q257.6263,440.5781 257.0013,440.5781 Q255.6575,440.5781 254.97,441.6563 Q254.2825,442.7188 254.2825,444.8125 Q254.2825,446.9063 254.97,447.9844 Q255.6575,449.0469 257.0013,449.0469 Q257.6263,449.0469 258.22,448.7813 Q258.8138,448.5 259.4388,447.9219 L259.4388,450.6406 Z " fill="#000000"/><text fill="#000000" font-family="sans-serif" font-size="14" lengthAdjust="spacing" textLength="70" x="270.47" y="449.8467">Scheduler</text><line style="stroke:#181818;stroke-width:0.5;" x1="242.47" x2="342.47" y1="461" y2="461"/><line style="stroke:#181818;stroke-width:0.5;" x1="242.47" x2="342.47" y1="469" y2="469"/></g><!--MD5=[4f126f465601d391fe0c3c00f8b450b3]
class Supervisor--><g id="elem_Supervisor"><rect codeLine="21" fill="#F1F1F1" height="64.2969" id="Supervisor" rx="2.5" ry="2.5" style="stroke:#181818;stroke-width:0.5;" width="481" x="677.97" y="296.5"/><ellipse cx="877.72" cy="312.5" fill="#ADD1B2" rx="11" ry="11" style="stroke:#181818;stroke-width:1.0;"/><path d="M880.6887,318.1406 Q880.1106,318.4375 879.47,318.5781 Q878.8294,318.7344 878.1262,318.7344 Q875.6262,318.7344 874.2981,317.0938 Q872.9856,315.4375 872.9856,312.3125 Q872.9856,309.1875 874.2981,307.5313 Q875.6262,305.875 878.1262,305.875 Q878.8294,305.875 879.47,306.0313 Q880.1262,306.1875 880.6887,306.4844 L880.6887,309.2031 Q880.0637,308.625 879.47,308.3594 Q878.8762,308.0781 878.2512,308.0781 Q876.9075,308.0781 876.22,309.1563 Q875.5325,310.2188 875.5325,312.3125 Q875.5325,314.4063 876.22,315.4844 Q876.9075,316.5469 878.2512,316.5469 Q878.8762,316.5469 879.47,316.2813 Q880.0637,316 880.6887,315.4219 L880.6887,318.1406 Z " fill="#000000"/><text fill="#000000" font-family="sans-serif" font-size="14" lengthAdjust="spacing" textLength="73" x="898.22" y="317.3467">Supervisor</text><line style="stroke:#181818;stroke-width:0.5;" x1="678.97" x2="1157.97" y1="328.5" y2="328.5"/><line style="stroke:#181818;stroke-width:0.5;" x1="678.97" x2="1157.97" y1="336.5" y2="336.5"/><ellipse cx="688.97" cy="350.1484" fill="#84BE84" rx="3" ry="3" style="stroke:#038048;stroke-width:1.0;"/><text fill="#000000" font-family="sans-serif" font-size="14" lengthAdjust="spacing" textLength="455" x="697.97" y="353.4951">processFailure(context:Context, actor: ActorRef, error: Throwable)</text></g><!--MD5=[830aa9317707b3aef83b46739a735152]
class Disposable--><g id="elem_Disposable"><rect codeLine="25" fill="#F1F1F1" height="64.2969" id="Disposable" rx="2.5" ry="2.5" style="stroke:#181818;stroke-width:0.5;" width="107" x="342.97" y="537"/><ellipse cx="357.97" cy="553" fill="#B4A7E5" rx="11" ry="11" style="stroke:#181818;stroke-width:1.0;"/><path d="M353.8919,548.7656 L353.8919,546.6094 L361.2825,546.6094 L361.2825,548.7656 L358.8138,548.7656 L358.8138,556.8438 L361.2825,556.8438 L361.2825,559 L353.8919,559 L353.8919,556.8438 L356.3606,556.8438 L356.3606,548.7656 L353.8919,548.7656 Z " fill="#000000"/><text fill="#000000" font-family="sans-serif" font-size="14" font-style="italic" lengthAdjust="spacing" textLength="75" x="371.97" y="557.8467">Disposable</text><line style="stroke:#181818;stroke-width:0.5;" x1="343.97" x2="448.97" y1="569" y2="569"/><line style="stroke:#181818;stroke-width:0.5;" x1="343.97" x2="448.97" y1="577" y2="577"/><ellipse cx="353.97" cy="590.6484" fill="#84BE84" rx="3" ry="3" style="stroke:#038048;stroke-width:1.0;"/><text fill="#000000" font-family="sans-serif" font-size="14" lengthAdjust="spacing" textLength="65" x="362.97" y="593.9951">dispose()</text></g><!--MD5=[9e2d91a8d2540aba5820cda9df4e667a]
link ActorRef to Actor--><g id="link_ActorRef_Actor"><path codeLine="29" d="M727.88,104.16 C708.43,122.5 686.59,143.07 668.62,160 " fill="none" id="ActorRef-to-Actor" style="stroke:#181818;stroke-width:1.0;"/><polygon fill="#181818" points="664.62,163.77,673.9153,160.5145,668.261,160.3432,668.4323,154.6889,664.62,163.77" style="stroke:#181818;stroke-width:1.0;"/><text fill="#000000" font-family="sans-serif" font-size="13" lengthAdjust="spacing" textLength="49" x="668.7898" y="123.7897">has self</text><text fill="#000000" font-family="sans-serif" font-size="13" lengthAdjust="spacing" textLength="54" x="611.8308" y="152.9989">refers to</text></g><!--MD5=[2da6178c598755e62221fc4824768777]
link Actor to Scheduler--><g id="link_Actor_Scheduler"><path codeLine="30" d="M556.95,196.73 C411.19,197.95 96.72,209.82 29.47,288 C6,315.29 8.19,339.97 29.47,369 C76.69,433.42 174.04,449.12 236.14,452.25 " fill="none" id="Actor-to-Scheduler" style="stroke:#181818;stroke-width:1.0;"/><polygon fill="#181818" points="241.29,452.49,232.4821,448.0832,236.2952,452.2617,232.1167,456.0748,241.29,452.49" style="stroke:#181818;stroke-width:1.0;"/><text fill="#000000" font-family="sans-serif" font-size="13" lengthAdjust="spacing" textLength="65" x="168.0297" y="417.454">processes</text><text fill="#000000" font-family="sans-serif" font-size="13" lengthAdjust="spacing" textLength="66" x="167.5297" y="432.5868">messages</text><text fill="#000000" font-family="sans-serif" font-size="13" lengthAdjust="spacing" textLength="16" x="192.5297" y="447.7197">on</text></g><!--MD5=[59201aada83ffb4ad35620933e6b45bd]
link Actor to Supervisor--><g id="link_Actor_Supervisor"><path codeLine="31" d="M699.85,228.09 C743.77,248.06 800.77,273.98 845.55,294.34 " fill="none" id="Actor-to-Supervisor" style="stroke:#181818;stroke-width:1.0;"/><polygon fill="#181818" points="850.12,296.42,843.5906,289.0466,845.5706,294.3456,840.2716,296.3256,850.12,296.42" style="stroke:#181818;stroke-width:1.0;"/><text fill="#000000" font-family="sans-serif" font-size="13" lengthAdjust="spacing" textLength="7" x="668.2591" y="248.2478">*</text><text fill="#000000" font-family="sans-serif" font-size="13" lengthAdjust="spacing" textLength="68" x="637.7591" y="263.3806">supervises</text><text fill="#000000" font-family="sans-serif" font-size="13" lengthAdjust="spacing" textLength="88" x="742.8098" y="270.3923">supervised by</text><text fill="#000000" font-family="sans-serif" font-size="13" lengthAdjust="spacing" textLength="8" x="782.8098" y="285.5251">1</text></g><!--MD5=[a7536070ef2c782133ff27064caaf708]
link Actor to Context--><g id="link_Actor_Context"><path codeLine="32" d="M563.09,228.09 C525.1,245.37 477.32,267.1 436.12,285.83 " fill="none" id="Actor-to-Context" style="stroke:#181818;stroke-width:1.0;"/><polygon fill="#181818" points="431.39,287.98,441.2384,287.8856,435.9394,285.9056,437.9194,280.6066,431.39,287.98" style="stroke:#181818;stroke-width:1.0;"/><text fill="#000000" font-family="sans-serif" font-size="13" lengthAdjust="spacing" textLength="7" x="529.6146" y="247.9536">*</text><text fill="#000000" font-family="sans-serif" font-size="13" lengthAdjust="spacing" textLength="32" x="517.1146" y="263.0864">owns</text><text fill="#000000" font-family="sans-serif" font-size="13" lengthAdjust="spacing" textLength="68" x="371.1626" y="261.9417">created by</text><text fill="#000000" font-family="sans-serif" font-size="13" lengthAdjust="spacing" textLength="8" x="401.1626" y="277.0745">1</text></g><!--MD5=[c6fe254617e82c9b41628c64d33c69dd]
link Context to Scheduler--><g id="link_Context_Scheduler"><path codeLine="33" d="M327.59,369.27 C320.01,387.13 311.25,407.77 304.37,423.97 " fill="none" id="Context-to-Scheduler" style="stroke:#181818;stroke-width:1.0;"/><polygon fill="#181818" points="302.3,428.84,309.4791,422.0975,304.2403,424.2318,302.106,418.9931,302.3,428.84" style="stroke:#181818;stroke-width:1.0;"/><text fill="#000000" font-family="sans-serif" font-size="13" lengthAdjust="spacing" textLength="71" x="313.9158" y="417.811">has default</text></g><!--MD5=[fc43560df2501c87c30cfcbae37befb7]
link ActorRef to Disposable--><g id="link_ActorRef_Disposable"><path codeLine="34" d="M928.97,104.11 C1075.8,158.53 1265.07,254.96 1176.47,369 C1089.2,481.34 647.45,540.85 470.21,560.52 " fill="none" id="ActorRef-to-Disposable" style="stroke:#181818;stroke-width:1.0;"/><polygon fill="none" points="470.83,567.49,450.19,562.69,469.32,553.57,470.83,567.49" style="stroke:#181818;stroke-width:1.0;"/></g><!--MD5=[64979a7106522d84f19f546921d47a6d]
link Scheduler to Disposable--><g id="link_Scheduler_Disposable"><path codeLine="35" d="M313.52,477.07 C325.27,489.95 340.34,506.47 354.4,521.88 " fill="none" id="Scheduler-to-Disposable" style="stroke:#181818;stroke-width:1.0;"/><polygon fill="none" points="359.66,517.26,367.97,536.75,349.32,526.7,359.66,517.26" style="stroke:#181818;stroke-width:1.0;"/></g><!--MD5=[3203c2a1c63e5156117d243f130e965c]
link Context to Disposable--><g id="link_Context_Disposable"><path codeLine="36" d="M353.12,369.15 C361.95,409.65 375.69,472.7 385.33,516.92 " fill="none" id="Context-to-Disposable" style="stroke:#181818;stroke-width:1.0;"/><polygon fill="none" points="392.21,515.61,389.63,536.64,378.53,518.59,392.21,515.61" style="stroke:#181818;stroke-width:1.0;"/></g><!--MD5=[4d50cf08affaac62eb6f879fd8227b6e]
@startuml

class ActorRef {
  +void tell(message: Object)
  +void tell(message: Object, sender: ActorRef)
  +void dispose()
}

interface Actor {
  +void onMessage()
}

class Context {
  +create(actorClass: Class<? extends Actor>, name: String, scheduleOn: Scheduler)
  +ActorRef actorRef(name: String)
}

class Scheduler {

}

class Supervisor {
  +processFailure(context:Context, actor: ActorRef, error: Throwable)
}

interface Disposable {
  +dispose()
}

ActorRef "has self" - -> "refers to" Actor
Actor - -> "processes\nmessages\non" Scheduler
Actor "*\nsupervises" - -> "supervised by\n1" Supervisor
Actor "*\nowns" - -> "created by\n1" Context
Context - -> "has default" Scheduler
ActorRef - -|> Disposable
Scheduler - -|> Disposable
Context - -|> Disposable

@enduml

PlantUML version 1.2022.7(Tue Aug 23 03:01:30 AEST 2022)
(GPL source distribution)
Java Runtime: OpenJDK Runtime Environment
JVM: OpenJDK 64-Bit Server VM
Default Encoding: UTF-8
Language: en
Country: AU
--></g></svg>