<?xml version="1.0" encoding="UTF-8" standalone="no"?><svg xmlns="http://www.w3.org/2000/svg" xmlns:xlink="http://www.w3.org/1999/xlink" contentStyleType="text/css" height="1211px" preserveAspectRatio="none" style="width:1596px;height:1211px;background:#FFFFFF;" version="1.1" viewBox="0 0 1596 1211" width="1596px" zoomAndPan="magnify"><defs/><g><!--MD5=[74b5fafa4a7b893aaa9820eb56fd4d72]
class Actor_T_--><a href="java:com.github.davidmoten.reels.Actor" target="_top" title="java:com.github.davidmoten.reels.Actor" xlink:actuate="onRequest" xlink:href="java:com.github.davidmoten.reels.Actor" xlink:show="new" xlink:title="java:com.github.davidmoten.reels.Actor" xlink:type="simple"><g id="elem_Actor_T_"><rect codeLine="1" fill="#F1F1F1" height="96.8906" id="Actor_T_" rx="2.5" ry="2.5" style="stroke:#181818;stroke-width:0.5;" width="309" x="1121.5" y="10"/><ellipse cx="1247.75" cy="26" fill="#B4A7E5" rx="11" ry="11" style="stroke:#181818;stroke-width:1.0;"/><path d="M1243.6719,21.7656 L1243.6719,19.6094 L1251.0625,19.6094 L1251.0625,21.7656 L1248.5938,21.7656 L1248.5938,29.8438 L1251.0625,29.8438 L1251.0625,32 L1243.6719,32 L1243.6719,29.8438 L1246.1406,29.8438 L1246.1406,21.7656 L1243.6719,21.7656 Z " fill="#000000"/><text fill="#000000" font-family="sans-serif" font-size="14" font-style="italic" lengthAdjust="spacing" textLength="37" x="1268.25" y="30.8467">Actor</text><rect fill="#FFFFFF" height="15.9688" style="stroke:#181818;stroke-width:1.0;stroke-dasharray:2.0,2.0;" width="9" x="1424.5" y="7"/><text fill="#000000" font-family="sans-serif" font-size="12" font-style="italic" lengthAdjust="spacing" textLength="7" x="1425.5" y="19.1387">T</text><line style="stroke:#181818;stroke-width:0.5;" x1="1122.5" x2="1429.5" y1="42" y2="42"/><line style="stroke:#181818;stroke-width:0.5;" x1="1122.5" x2="1429.5" y1="50" y2="50"/><text fill="#000000" font-family="sans-serif" font-size="14" lengthAdjust="spacing" textLength="297" x="1127.5" y="66.9951">onMessage(message: Message&lt;T&gt;): void</text><text fill="#000000" font-family="sans-serif" font-size="14" lengthAdjust="spacing" textLength="227" x="1127.5" y="83.292">preStart(self: ActorRef&lt;T&gt;): void</text><text fill="#000000" font-family="sans-serif" font-size="14" lengthAdjust="spacing" textLength="222" x="1127.5" y="99.5889">onStop(self: ActorRef&lt;T&gt;): void</text></g></a><!--MD5=[cfdb1e23325882f518e34214decae8f8]
class ActorRef_T_--><a href="java:com.github.davidmoten.reels.ActorRef" target="_top" title="java:com.github.davidmoten.reels.ActorRef" xlink:actuate="onRequest" xlink:href="java:com.github.davidmoten.reels.ActorRef" xlink:show="new" xlink:title="java:com.github.davidmoten.reels.ActorRef" xlink:type="simple"><g id="elem_ActorRef_T_"><rect codeLine="6" fill="#F1F1F1" height="210.9688" id="ActorRef_T_" rx="2.5" ry="2.5" style="stroke:#181818;stroke-width:0.5;" width="317" x="1233.5" y="614"/><ellipse cx="1352.25" cy="630" fill="#B4A7E5" rx="11" ry="11" style="stroke:#181818;stroke-width:1.0;"/><path d="M1348.1719,625.7656 L1348.1719,623.6094 L1355.5625,623.6094 L1355.5625,625.7656 L1353.0938,625.7656 L1353.0938,633.8438 L1355.5625,633.8438 L1355.5625,636 L1348.1719,636 L1348.1719,633.8438 L1350.6406,633.8438 L1350.6406,625.7656 L1348.1719,625.7656 Z " fill="#000000"/><text fill="#000000" font-family="sans-serif" font-size="14" font-style="italic" lengthAdjust="spacing" textLength="60" x="1372.75" y="634.8467">ActorRef</text><rect fill="#FFFFFF" height="15.9688" style="stroke:#181818;stroke-width:1.0;stroke-dasharray:2.0,2.0;" width="9" x="1544.5" y="611"/><text fill="#000000" font-family="sans-serif" font-size="12" font-style="italic" lengthAdjust="spacing" textLength="7" x="1545.5" y="623.1387">T</text><line style="stroke:#181818;stroke-width:0.5;" x1="1234.5" x2="1549.5" y1="646" y2="646"/><line style="stroke:#181818;stroke-width:0.5;" x1="1234.5" x2="1549.5" y1="654" y2="654"/><text fill="#000000" font-family="sans-serif" font-size="14" lengthAdjust="spacing" textLength="149" x="1239.5" y="670.9951">tell(message: T): void</text><text fill="#000000" font-family="sans-serif" font-size="14" lengthAdjust="spacing" textLength="305" x="1239.5" y="687.292">tell(message: T, sender: ActorRef&lt;?&gt;): void</text><text fill="#000000" font-family="sans-serif" font-size="14" lengthAdjust="spacing" textLength="290" x="1239.5" y="703.5889">ask(message: T): CompletableFuture&lt;S&gt;</text><text fill="#000000" font-family="sans-serif" font-size="14" lengthAdjust="spacing" textLength="78" x="1239.5" y="719.8857">stop(): void</text><text fill="#000000" font-family="sans-serif" font-size="14" lengthAdjust="spacing" textLength="98" x="1239.5" y="736.1826">name(): String</text><text fill="#000000" font-family="sans-serif" font-size="14" lengthAdjust="spacing" textLength="156" x="1239.5" y="752.4795">parent(): ActorRef&lt;S&gt;</text><text fill="#000000" font-family="sans-serif" font-size="14" lengthAdjust="spacing" textLength="231" x="1239.5" y="768.7764">child(name: String): ActorRef&lt;S&gt;</text><text fill="#000000" font-family="sans-serif" font-size="14" lengthAdjust="spacing" textLength="213" x="1239.5" y="785.0732">children(): Collection&lt;ActorRef</text><text fill="#000000" font-family="sans-serif" font-size="14" lengthAdjust="spacing" text-decoration="line-through" textLength="12" x="1452.5" y="785.0732">&gt;</text><text fill="#000000" font-family="sans-serif" font-size="14" lengthAdjust="spacing" textLength="154" x="1239.5" y="801.3701">recast(): ActorRef&lt;S&gt;</text><text fill="#000000" font-family="sans-serif" font-size="14" lengthAdjust="spacing" textLength="158" x="1239.5" y="817.667">narrow(): ActorRef&lt;S&gt;</text></g></a><!--MD5=[6754354365917abf8f1a56af1b7e344c]
class Context--><a href="java:com.github.davidmoten.reels.Context" target="_top" title="java:com.github.davidmoten.reels.Context" xlink:actuate="onRequest" xlink:href="java:com.github.davidmoten.reels.Context" xlink:show="new" xlink:title="java:com.github.davidmoten.reels.Context" xlink:type="simple"><g id="elem_Context"><rect codeLine="21" fill="#F1F1F1" height="162.0781" id="Context" rx="2.5" ry="2.5" style="stroke:#181818;stroke-width:0.5;" width="389" x="917.5" y="375"/><ellipse cx="1080.75" cy="391" fill="#ADD1B2" rx="11" ry="11" style="stroke:#181818;stroke-width:1.0;"/><path d="M1083.7188,396.6406 Q1083.1406,396.9375 1082.5,397.0781 Q1081.8594,397.2344 1081.1563,397.2344 Q1078.6563,397.2344 1077.3281,395.5938 Q1076.0156,393.9375 1076.0156,390.8125 Q1076.0156,387.6875 1077.3281,386.0313 Q1078.6563,384.375 1081.1563,384.375 Q1081.8594,384.375 1082.5,384.5313 Q1083.1563,384.6875 1083.7188,384.9844 L1083.7188,387.7031 Q1083.0938,387.125 1082.5,386.8594 Q1081.9063,386.5781 1081.2813,386.5781 Q1079.9375,386.5781 1079.25,387.6563 Q1078.5625,388.7188 1078.5625,390.8125 Q1078.5625,392.9063 1079.25,393.9844 Q1079.9375,395.0469 1081.2813,395.0469 Q1081.9063,395.0469 1082.5,394.7813 Q1083.0938,394.5 1083.7188,393.9219 L1083.7188,396.6406 Z " fill="#000000"/><text fill="#000000" font-family="sans-serif" font-size="14" lengthAdjust="spacing" textLength="54" x="1101.25" y="395.8467">Context</text><line style="stroke:#181818;stroke-width:0.5;" x1="918.5" x2="1305.5" y1="407" y2="407"/><line style="stroke:#181818;stroke-width:0.5;" x1="918.5" x2="1305.5" y1="415" y2="415"/><ellipse cx="928.5" cy="428.6484" fill="#84BE84" rx="3" ry="3" style="stroke:#038048;stroke-width:1.0;"/><text fill="#000000" font-family="sans-serif" font-size="14" lengthAdjust="spacing" textLength="203" x="937.5" y="431.9951">createActor(...): ActorRef&lt;T&gt;</text><ellipse cx="928.5" cy="444.9453" fill="#84BE84" rx="3" ry="3" style="stroke:#038048;stroke-width:1.0;"/><text fill="#000000" font-family="sans-serif" font-size="14" lengthAdjust="spacing" textLength="363" x="937.5" y="448.292">lookupActor(name: String): Optional&lt;ActorRef&lt;T&gt;&gt;</text><ellipse cx="928.5" cy="461.2422" fill="#84BE84" rx="3" ry="3" style="stroke:#038048;stroke-width:1.0;"/><text fill="#000000" font-family="sans-serif" font-size="14" lengthAdjust="spacing" textLength="102" x="937.5" y="464.5889">dispose(): void</text><ellipse cx="928.5" cy="477.5391" fill="#84BE84" rx="3" ry="3" style="stroke:#038048;stroke-width:1.0;"/><text fill="#000000" font-family="sans-serif" font-size="14" lengthAdjust="spacing" textLength="152" x="937.5" y="480.8857">isDisposed(): boolean</text><ellipse cx="928.5" cy="493.8359" fill="#84BE84" rx="3" ry="3" style="stroke:#038048;stroke-width:1.0;"/><text fill="#000000" font-family="sans-serif" font-size="14" lengthAdjust="spacing" textLength="146" x="937.5" y="497.1826">shutdownNow(): void</text><ellipse cx="928.5" cy="510.1328" fill="#84BE84" rx="3" ry="3" style="stroke:#038048;stroke-width:1.0;"/><text fill="#000000" font-family="sans-serif" font-size="14" lengthAdjust="spacing" textLength="341" x="937.5" y="513.4795">shutdownGracefully(): CompletableFuture&lt;Void&gt;</text><ellipse cx="928.5" cy="526.4297" fill="#84BE84" rx="3" ry="3" style="stroke:#038048;stroke-width:1.0;"/><text fill="#000000" font-family="sans-serif" font-size="14" lengthAdjust="spacing" textLength="219" x="937.5" y="529.7764">actorBuilder(): ActorBuilder&lt;T&gt;</text></g></a><!--MD5=[8523c9eb2e1b5151dfc9c2a797373c5f]
class Scheduler--><a href="java:com.github.davidmoten.reels.Scheduler" target="_top" title="java:com.github.davidmoten.reels.Scheduler" xlink:actuate="onRequest" xlink:href="java:com.github.davidmoten.reels.Scheduler" xlink:show="new" xlink:title="java:com.github.davidmoten.reels.Scheduler" xlink:type="simple"><g id="elem_Scheduler"><rect codeLine="48" fill="#F1F1F1" height="129.4844" id="Scheduler" rx="2.5" ry="2.5" style="stroke:#181818;stroke-width:0.5;" width="660" x="361" y="902"/><ellipse cx="651.75" cy="918" fill="#B4A7E5" rx="11" ry="11" style="stroke:#181818;stroke-width:1.0;"/><path d="M647.6719,913.7656 L647.6719,911.6094 L655.0625,911.6094 L655.0625,913.7656 L652.5938,913.7656 L652.5938,921.8438 L655.0625,921.8438 L655.0625,924 L647.6719,924 L647.6719,921.8438 L650.1406,921.8438 L650.1406,913.7656 L647.6719,913.7656 Z " fill="#000000"/><text fill="#000000" font-family="sans-serif" font-size="14" font-style="italic" lengthAdjust="spacing" textLength="70" x="672.25" y="922.8467">Scheduler</text><line style="stroke:#181818;stroke-width:0.5;" x1="362" x2="1020" y1="934" y2="934"/><line style="stroke:#181818;stroke-width:0.5;" x1="362" x2="1020" y1="942" y2="942"/><text fill="#000000" font-family="sans-serif" font-size="14" lengthAdjust="spacing" textLength="258" x="367" y="958.9951">schedule(run: Runnable): Disposable</text><text fill="#000000" font-family="sans-serif" font-size="14" lengthAdjust="spacing" textLength="445" x="367" y="975.292">schedule(run: Runnable, delay: long, unit: TimeUnit): Disposable</text><text fill="#000000" font-family="sans-serif" font-size="14" lengthAdjust="spacing" textLength="648" x="367" y="991.5889">schedulePeriodically(run: Runnable, initialDelay: long, period: long, unit: TimeUnit): Disposable</text><text fill="#000000" font-family="sans-serif" font-size="14" lengthAdjust="spacing" textLength="116" x="367" y="1007.8857">shutdown(): void</text><text fill="#000000" font-family="sans-serif" font-size="14" lengthAdjust="spacing" textLength="214" x="367" y="1024.1826">requiresSerialization(): boolean</text></g></a><!--MD5=[830aa9317707b3aef83b46739a735152]
class Disposable--><a href="java:com.github.davidmoten.reels.Disposable" target="_top" title="java:com.github.davidmoten.reels.Disposable" xlink:actuate="onRequest" xlink:href="java:com.github.davidmoten.reels.Disposable" xlink:show="new" xlink:title="java:com.github.davidmoten.reels.Disposable" xlink:type="simple"><g id="elem_Disposable"><rect codeLine="35" fill="#F1F1F1" height="80.5938" id="Disposable" rx="2.5" ry="2.5" style="stroke:#181818;stroke-width:0.5;" width="164" x="740" y="200.5"/><ellipse cx="780.65" cy="216.5" fill="#B4A7E5" rx="11" ry="11" style="stroke:#181818;stroke-width:1.0;"/><path d="M776.5719,212.2656 L776.5719,210.1094 L783.9625,210.1094 L783.9625,212.2656 L781.4938,212.2656 L781.4938,220.3438 L783.9625,220.3438 L783.9625,222.5 L776.5719,222.5 L776.5719,220.3438 L779.0406,220.3438 L779.0406,212.2656 L776.5719,212.2656 Z " fill="#000000"/><text fill="#000000" font-family="sans-serif" font-size="14" font-style="italic" lengthAdjust="spacing" textLength="75" x="800.35" y="221.3467">Disposable</text><line style="stroke:#181818;stroke-width:0.5;" x1="741" x2="903" y1="232.5" y2="232.5"/><line style="stroke:#181818;stroke-width:0.5;" x1="741" x2="903" y1="240.5" y2="240.5"/><text fill="#000000" font-family="sans-serif" font-size="14" lengthAdjust="spacing" textLength="102" x="746" y="257.4951">dispose(): void</text><text fill="#000000" font-family="sans-serif" font-size="14" lengthAdjust="spacing" textLength="152" x="746" y="273.792">isDisposed(): boolean</text></g></a><!--MD5=[4f126f465601d391fe0c3c00f8b450b3]
class Supervisor--><a href="java:com.github.davidmoten.reels.Supervisor" target="_top" title="java:com.github.davidmoten.reels.Supervisor" xlink:actuate="onRequest" xlink:href="java:com.github.davidmoten.reels.Supervisor" xlink:show="new" xlink:title="java:com.github.davidmoten.reels.Supervisor" xlink:type="simple"><g id="elem_Supervisor"><rect codeLine="65" fill="#F1F1F1" height="64.2969" id="Supervisor" rx="2.5" ry="2.5" style="stroke:#181818;stroke-width:0.5;" width="657" x="541.5" y="687.5"/><ellipse cx="829.25" cy="703.5" fill="#B4A7E5" rx="11" ry="11" style="stroke:#181818;stroke-width:1.0;"/><path d="M825.1719,699.2656 L825.1719,697.1094 L832.5625,697.1094 L832.5625,699.2656 L830.0938,699.2656 L830.0938,707.3438 L832.5625,707.3438 L832.5625,709.5 L825.1719,709.5 L825.1719,707.3438 L827.6406,707.3438 L827.6406,699.2656 L825.1719,699.2656 Z " fill="#000000"/><text fill="#000000" font-family="sans-serif" font-size="14" font-style="italic" lengthAdjust="spacing" textLength="73" x="849.75" y="708.3467">Supervisor</text><line style="stroke:#181818;stroke-width:0.5;" x1="542.5" x2="1197.5" y1="719.5" y2="719.5"/><line style="stroke:#181818;stroke-width:0.5;" x1="542.5" x2="1197.5" y1="727.5" y2="727.5"/><text fill="#000000" font-family="sans-serif" font-size="14" lengthAdjust="spacing" textLength="645" x="547.5" y="744.4951">processFailure(message: Message&lt;?&gt;, self: SupervisedActorRef&lt;?&gt;, error: Throwable): void</text></g></a><!--MD5=[c30b9ce4e79e90e142dac3fec7edc7b3]
class Message_T_--><a href="java:com.github.davidmoten.reels.Message" target="_top" title="java:com.github.davidmoten.reels.Message" xlink:actuate="onRequest" xlink:href="java:com.github.davidmoten.reels.Message" xlink:show="new" xlink:title="java:com.github.davidmoten.reels.Message" xlink:type="simple"><g id="elem_Message_T_"><rect codeLine="39" fill="#F1F1F1" height="145.7813" id="Message_T_" rx="2.5" ry="2.5" style="stroke:#181818;stroke-width:0.5;" width="234" x="1055" y="168"/><ellipse cx="1130.75" cy="184" fill="#ADD1B2" rx="11" ry="11" style="stroke:#181818;stroke-width:1.0;"/><path d="M1133.7188,189.6406 Q1133.1406,189.9375 1132.5,190.0781 Q1131.8594,190.2344 1131.1563,190.2344 Q1128.6563,190.2344 1127.3281,188.5938 Q1126.0156,186.9375 1126.0156,183.8125 Q1126.0156,180.6875 1127.3281,179.0313 Q1128.6563,177.375 1131.1563,177.375 Q1131.8594,177.375 1132.5,177.5313 Q1133.1563,177.6875 1133.7188,177.9844 L1133.7188,180.7031 Q1133.0938,180.125 1132.5,179.8594 Q1131.9063,179.5781 1131.2813,179.5781 Q1129.9375,179.5781 1129.25,180.6563 Q1128.5625,181.7188 1128.5625,183.8125 Q1128.5625,185.9063 1129.25,186.9844 Q1129.9375,188.0469 1131.2813,188.0469 Q1131.9063,188.0469 1132.5,187.7813 Q1133.0938,187.5 1133.7188,186.9219 L1133.7188,189.6406 Z " fill="#000000"/><text fill="#000000" font-family="sans-serif" font-size="14" lengthAdjust="spacing" textLength="63" x="1151.25" y="188.8467">Message</text><rect fill="#FFFFFF" height="15.9688" style="stroke:#181818;stroke-width:1.0;stroke-dasharray:2.0,2.0;" width="9" x="1283" y="165"/><text fill="#000000" font-family="sans-serif" font-size="12" font-style="italic" lengthAdjust="spacing" textLength="7" x="1284" y="177.1387">T</text><line style="stroke:#181818;stroke-width:0.5;" x1="1056" x2="1288" y1="200" y2="200"/><line style="stroke:#181818;stroke-width:0.5;" x1="1056" x2="1288" y1="208" y2="208"/><ellipse cx="1066" cy="221.6484" fill="#84BE84" rx="3" ry="3" style="stroke:#038048;stroke-width:1.0;"/><text fill="#000000" font-family="sans-serif" font-size="14" lengthAdjust="spacing" textLength="82" x="1075" y="224.9951">content(): T</text><ellipse cx="1066" cy="237.9453" fill="#84BE84" rx="3" ry="3" style="stroke:#038048;stroke-width:1.0;"/><text fill="#000000" font-family="sans-serif" font-size="14" lengthAdjust="spacing" textLength="135" x="1075" y="241.292">self(): ActorRef&lt;T&gt;</text><ellipse cx="1066" cy="254.2422" fill="#84BE84" rx="3" ry="3" style="stroke:#038048;stroke-width:1.0;"/><text fill="#000000" font-family="sans-serif" font-size="14" lengthAdjust="spacing" textLength="171" x="1075" y="257.5889">recipient(): ActorRef&lt;T&gt;</text><ellipse cx="1066" cy="270.5391" fill="#84BE84" rx="3" ry="3" style="stroke:#038048;stroke-width:1.0;"/><text fill="#000000" font-family="sans-serif" font-size="14" lengthAdjust="spacing" textLength="196" x="1075" y="273.8857">sender(): Optional&lt;ActorRef</text><text fill="#000000" font-family="sans-serif" font-size="14" lengthAdjust="spacing" text-decoration="line-through" textLength="12" x="1271" y="273.8857">&gt;</text><ellipse cx="1066" cy="286.8359" fill="#84BE84" rx="3" ry="3" style="stroke:#038048;stroke-width:1.0;"/><text fill="#000000" font-family="sans-serif" font-size="14" lengthAdjust="spacing" textLength="189" x="1075" y="290.1826">senderRaw(): ActorRef&lt;S&gt;</text><ellipse cx="1066" cy="303.1328" fill="#84BE84" rx="3" ry="3" style="stroke:#038048;stroke-width:1.0;"/><text fill="#000000" font-family="sans-serif" font-size="14" lengthAdjust="spacing" textLength="113" x="1075" y="306.4795">toString(): String</text></g></a><!--MD5=[7b5bd88a8a025decccf0c9eac4aaabe9]
class Worker--><a href="java:com.github.davidmoten.reels.Worker" target="_top" title="java:com.github.davidmoten.reels.Worker" xlink:actuate="onRequest" xlink:href="java:com.github.davidmoten.reels.Worker" xlink:show="new" xlink:title="java:com.github.davidmoten.reels.Worker" xlink:type="simple"><g id="elem_Worker"><rect codeLine="68" fill="#F1F1F1" height="96.8906" id="Worker" rx="2.5" ry="2.5" style="stroke:#181818;stroke-width:0.5;" width="660" x="7" y="1108"/><ellipse cx="307.75" cy="1124" fill="#B4A7E5" rx="11" ry="11" style="stroke:#181818;stroke-width:1.0;"/><path d="M303.6719,1119.7656 L303.6719,1117.6094 L311.0625,1117.6094 L311.0625,1119.7656 L308.5938,1119.7656 L308.5938,1127.8438 L311.0625,1127.8438 L311.0625,1130 L303.6719,1130 L303.6719,1127.8438 L306.1406,1127.8438 L306.1406,1119.7656 L303.6719,1119.7656 Z " fill="#000000"/><text fill="#000000" font-family="sans-serif" font-size="14" font-style="italic" lengthAdjust="spacing" textLength="50" x="328.25" y="1128.8467">Worker</text><line style="stroke:#181818;stroke-width:0.5;" x1="8" x2="666" y1="1140" y2="1140"/><line style="stroke:#181818;stroke-width:0.5;" x1="8" x2="666" y1="1148" y2="1148"/><text fill="#000000" font-family="sans-serif" font-size="14" lengthAdjust="spacing" textLength="258" x="13" y="1164.9951">schedule(run: Runnable): Disposable</text><text fill="#000000" font-family="sans-serif" font-size="14" lengthAdjust="spacing" textLength="445" x="13" y="1181.292">schedule(run: Runnable, delay: long, unit: TimeUnit): Disposable</text><text fill="#000000" font-family="sans-serif" font-size="14" lengthAdjust="spacing" textLength="648" x="13" y="1197.5889">schedulePeriodically(run: Runnable, initialDelay: long, period: long, unit: TimeUnit): Disposable</text></g></a><!--MD5=[f292842727dd777a344d0ec9cefad6e3]
class SupervisedActorRef_T_--><a href="java:com.github.davidmoten.reels.SupervisedActorRef" target="_top" title="java:com.github.davidmoten.reels.SupervisedActorRef" xlink:actuate="onRequest" xlink:href="java:com.github.davidmoten.reels.SupervisedActorRef" xlink:show="new" xlink:title="java:com.github.davidmoten.reels.SupervisedActorRef" xlink:type="simple"><g id="elem_SupervisedActorRef_T_"><rect codeLine="57" fill="#F1F1F1" height="113.1875" id="SupervisedActorRef_T_" rx="2.5" ry="2.5" style="stroke:#181818;stroke-width:0.5;" width="386" x="1199" y="910"/><ellipse cx="1313.75" cy="926" fill="#B4A7E5" rx="11" ry="11" style="stroke:#181818;stroke-width:1.0;"/><path d="M1309.6719,921.7656 L1309.6719,919.6094 L1317.0625,919.6094 L1317.0625,921.7656 L1314.5938,921.7656 L1314.5938,929.8438 L1317.0625,929.8438 L1317.0625,932 L1309.6719,932 L1309.6719,929.8438 L1312.1406,929.8438 L1312.1406,921.7656 L1309.6719,921.7656 Z " fill="#000000"/><text fill="#000000" font-family="sans-serif" font-size="14" font-style="italic" lengthAdjust="spacing" textLength="137" x="1334.25" y="930.8467">SupervisedActorRef</text><rect fill="#FFFFFF" height="15.9688" style="stroke:#181818;stroke-width:1.0;stroke-dasharray:2.0,2.0;" width="9" x="1579" y="907"/><text fill="#000000" font-family="sans-serif" font-size="12" font-style="italic" lengthAdjust="spacing" textLength="7" x="1580" y="919.1387">T</text><line style="stroke:#181818;stroke-width:0.5;" x1="1200" x2="1584" y1="942" y2="942"/><line style="stroke:#181818;stroke-width:0.5;" x1="1200" x2="1584" y1="950" y2="950"/><text fill="#000000" font-family="sans-serif" font-size="14" lengthAdjust="spacing" textLength="120" x="1205" y="966.9951">restart(): boolean</text><text fill="#000000" font-family="sans-serif" font-size="14" lengthAdjust="spacing" textLength="374" x="1205" y="983.292">pauseAndRestart(delay: long, unit: TimeUnit): boolean</text><text fill="#000000" font-family="sans-serif" font-size="14" lengthAdjust="spacing" textLength="318" x="1205" y="999.5889">pause(duration: long, unit: TimeUnit): boolean</text><text fill="#000000" font-family="sans-serif" font-size="14" lengthAdjust="spacing" textLength="78" x="1205" y="1015.8857">retry(): void</text></g></a><!--MD5=[74749d72d483cc5b7f5103a813029553]
link Context to ActorRef_T_--><g id="link_Context_ActorRef_T_"><path codeLine="18" d="M1231.75,537.07 C1244.02,546.71 1256,556.78 1267,567 C1281.16,580.16 1295.18,594.93 1308.42,609.94 " fill="none" id="Context-to-ActorRef_T_" style="stroke:#181818;stroke-width:1.0;"/><polygon fill="#181818" points="1311.77,613.76,1308.8563,604.352,1308.4785,609.9962,1302.8343,609.6184,1311.77,613.76" style="stroke:#181818;stroke-width:1.0;"/><text fill="#000000" font-family="sans-serif" font-size="13" lengthAdjust="spacing" textLength="48" x="1256.767" y="587.7246">creates</text><text fill="#000000" font-family="sans-serif" font-size="13" lengthAdjust="spacing" textLength="7" x="1277.267" y="602.8575">*</text></g><!--MD5=[74749d72d483cc5b7f5103a813029553]
link Context to ActorRef_T_--><g id="link_Context_ActorRef_T_"><path codeLine="32" d="M1126.98,537.09 C1132.96,553.96 1141.32,570.67 1153,584 C1173.43,607.33 1188.64,599.4 1216,614 C1220.14,616.21 1224.33,618.47 1228.54,620.77 " fill="none" id="Context-to-ActorRef_T_-1" style="stroke:#181818;stroke-width:1.0;"/><polygon fill="#181818" points="1233.12,623.28,1227.1558,615.4424,1228.7371,620.8737,1223.3058,622.455,1233.12,623.28" style="stroke:#181818;stroke-width:1.0;"/><text fill="#000000" font-family="sans-serif" font-size="13" lengthAdjust="spacing" textLength="104" x="1154" y="580.0669">deadLetterActor</text><text fill="#000000" font-family="sans-serif" font-size="13" lengthAdjust="spacing" textLength="8" x="1217.7395" y="615.6508">1</text></g><!--MD5=[cfe1415635816b1eaa9dede4b346cd2a]
link ActorRef_T_ to Scheduler--><g id="link_ActorRef_T__Scheduler"><path codeLine="19" d="M1233.28,817.32 C1227.5,820.01 1221.73,822.59 1216,825 C1144.74,855.01 1065.3,880.21 990.23,900.6 " fill="none" id="ActorRef_T_-to-Scheduler" style="stroke:#181818;stroke-width:1.0;"/><polygon fill="#181818" points="985.29,901.93,995.0204,903.4527,990.1181,900.6301,992.9406,895.7278,985.29,901.93" style="stroke:#181818;stroke-width:1.0;"/><text fill="#000000" font-family="sans-serif" font-size="13" lengthAdjust="spacing" textLength="62" x="1134" y="868.0669">scheduler</text><text fill="#000000" font-family="sans-serif" font-size="13" lengthAdjust="spacing" textLength="8" x="1009.0405" y="891.095">1</text></g><!--MD5=[b9f6a6779d12fed0e5a5eddeb813fb90]
reverse link Disposable to ActorRef_T_--><g id="link_Disposable_ActorRef_T_"><path codeLine="20" d="M825.11,301.79 C831.12,365.58 848.71,466.9 900,537 C985.36,653.66 1079.23,567.22 1216,614 C1221.8,615.98 1227.62,618.17 1233.42,620.54 " fill="none" id="Disposable-backto-ActorRef_T_" style="stroke:#181818;stroke-width:1.0;"/><polygon fill="none" points="818.12,302.19,823.48,281.69,832.07,301.06,818.12,302.19" style="stroke:#181818;stroke-width:1.0;"/></g><!--MD5=[eb6aa448c5e1da67edaae509762da0ca]
link Context to Supervisor--><g id="link_Context_Supervisor"><path codeLine="30" d="M1025.05,537.29 C1015.08,547.13 1005.2,557.18 996,567 C960.18,605.23 922.13,651.93 897.34,683.29 " fill="none" id="Context-to-Supervisor" style="stroke:#181818;stroke-width:1.0;"/><polygon fill="#181818" points="894.08,687.42,902.7849,682.813,897.1685,683.4879,896.4936,677.8715,894.08,687.42" style="stroke:#181818;stroke-width:1.0;"/><text fill="#000000" font-family="sans-serif" font-size="13" lengthAdjust="spacing" textLength="112" x="997" y="580.0669">defaultSupervisor</text><text fill="#000000" font-family="sans-serif" font-size="13" lengthAdjust="spacing" textLength="8" x="890.2215" y="676.3066">1</text></g><!--MD5=[c6fe254617e82c9b41628c64d33c69dd]
link Context to Scheduler--><g id="link_Context_Scheduler"><path codeLine="31" d="M917.34,473.94 C733.21,494.48 476.08,536.41 414,614 C355.41,687.23 364.93,745.09 414,825 C432.89,855.77 460.85,880.05 491.84,899.14 " fill="none" id="Context-to-Scheduler" style="stroke:#181818;stroke-width:1.0;"/><polygon fill="#181818" points="496.44,901.92,490.8003,893.8457,492.1588,899.337,486.6675,900.6956,496.44,901.92" style="stroke:#181818;stroke-width:1.0;"/><text fill="#000000" font-family="sans-serif" font-size="13" lengthAdjust="spacing" textLength="108" x="415" y="724.0669">defaultScheduler</text><text fill="#000000" font-family="sans-serif" font-size="13" lengthAdjust="spacing" textLength="8" x="466.7225" y="891.0839">1</text></g><!--MD5=[cbb7a5eff8e678a1ec3837443a8e61ff]
reverse link Disposable to Context--><g id="link_Disposable_Context"><path codeLine="33" d="M892.04,293.44 C925.26,317.85 965.74,347.57 1002.86,374.84 " fill="none" id="Disposable-backto-Context" style="stroke:#181818;stroke-width:1.0;stroke-dasharray:7.0,7.0;"/><polygon fill="none" points="887.84,299.05,875.87,281.56,896.13,287.76,887.84,299.05" style="stroke:#181818;stroke-width:1.0;"/></g><!--MD5=[e24eb690c7f405a320586e4d8659a1a1]
link Message_T_ to Context--><g id="link_Message_T__Context"><path codeLine="47" d="M1151.69,314.11 C1146.65,331.98 1141.21,351.3 1136.02,369.74 " fill="none" id="Message_T_-to-Context" style="stroke:#181818;stroke-width:1.0;"/><polygon fill="#181818" points="1134.56,374.91,1140.8519,367.3329,1135.9166,370.0976,1133.152,365.1623,1134.56,374.91" style="stroke:#181818;stroke-width:1.0;"/><text fill="#000000" font-family="sans-serif" font-size="13" lengthAdjust="spacing" textLength="8" x="1128.271" y="363.8125">1</text></g><!--MD5=[6ba452871ef290040c698d2819dbf9b7]
link Scheduler to Worker--><g id="link_Scheduler_Worker"><path codeLine="55" d="M571.15,1031.15 C525.48,1055.4 474.12,1082.68 431.16,1105.49 " fill="none" id="Scheduler-to-Worker" style="stroke:#181818;stroke-width:1.0;"/><polygon fill="#181818" points="426.5,1107.97,436.3249,1107.2839,430.9165,1105.626,432.5745,1100.2175,426.5,1107.97" style="stroke:#181818;stroke-width:1.0;"/><text fill="#000000" font-family="sans-serif" font-size="13" lengthAdjust="spacing" textLength="48" x="515" y="1074.0669">creates</text><text fill="#000000" font-family="sans-serif" font-size="13" lengthAdjust="spacing" textLength="7" x="432.1313" y="1096.8253">*</text></g><!--MD5=[2cbb3ab964354acb40a1250c74a6c79f]
reverse link ActorRef_T_ to SupervisedActorRef_T_--><g id="link_ActorRef_T__SupervisedActorRef_T_"><path codeLine="63" d="M1392,845.39 C1392,868.02 1392,890.55 1392,909.87 " fill="none" id="ActorRef_T_-backto-SupervisedActorRef_T_" style="stroke:#181818;stroke-width:1.0;"/><polygon fill="none" points="1385,845.11,1392,825.11,1399,845.11,1385,845.11" style="stroke:#181818;stroke-width:1.0;"/></g><!--MD5=[9470a0001ba87d56bcf5c13d5e9ea485]
reverse link Disposable to Worker--><g id="link_Disposable_Worker"><path codeLine="73" d="M720.07,262.61 C570.21,295.87 308,366.69 308,455 C308,455 308,455 308,967.5 C308,1015.72 317.43,1070.08 325.54,1107.9 " fill="none" id="Disposable-backto-Worker" style="stroke:#181818;stroke-width:1.0;"/><polygon fill="none" points="718.95,255.68,739.99,258.26,721.94,269.36,718.95,255.68" style="stroke:#181818;stroke-width:1.0;"/></g><!--MD5=[0ce498f2b7954d22af2c8676ce37302a]
link Actor_T_ to Message_T_--><g id="link_Actor_T__Message_T_"><path codeLine="74" d="M1248.4,107.4 C1238.58,124.44 1227.26,144.09 1216.4,162.95 " fill="none" id="Actor_T_-to-Message_T_" style="stroke:#181818;stroke-width:1.0;"/><polygon fill="#181818" points="1213.64,167.72,1221.5967,161.9157,1216.1345,163.3867,1214.6635,157.9245,1213.64,167.72" style="stroke:#181818;stroke-width:1.0;"/><text fill="#000000" font-family="sans-serif" font-size="13" lengthAdjust="spacing" textLength="65" x="1149.4826" y="141.6709">processes</text><text fill="#000000" font-family="sans-serif" font-size="13" lengthAdjust="spacing" textLength="7" x="1178.4826" y="156.8037">*</text></g><!--MD5=[e97894d778cb9823a021cdc90baaf675]
link ActorRef_T_ to Actor_T_--><g id="link_ActorRef_T__Actor_T_"><path codeLine="75" d="M1379.79,613.78 C1365.9,502.5 1340.69,321.74 1307,168 C1302.97,149.63 1297.61,129.79 1292.48,112.15 " fill="none" id="ActorRef_T_-to-Actor_T_" style="stroke:#181818;stroke-width:1.0;"/><polygon fill="#181818" points="1291.04,107.24,1289.72,117,1292.44,112.04,1297.4,114.76,1291.04,107.24" style="stroke:#181818;stroke-width:1.0;"/><text fill="#000000" font-family="sans-serif" font-size="13" lengthAdjust="spacing" textLength="54" x="1235.5824" y="127.0981">refers to</text><text fill="#000000" font-family="sans-serif" font-size="13" lengthAdjust="spacing" textLength="8" x="1258.5824" y="142.2309">1</text></g><!--MD5=[0ca985fef163ac44ea757f8ee990c6b7]
@startuml
interface "Actor<T>" as Actor_T_ [[java:com.github.davidmoten.reels.Actor]] {
    onMessage(message: Message<T>): void
    preStart(self: ActorRef<T>): void
    onStop(self: ActorRef<T>): void
}
interface "ActorRef<T>" as ActorRef_T_ [[java:com.github.davidmoten.reels.ActorRef]] {
    tell(message: T): void
    tell(message: T, sender: ActorRef<?>): void
    ask(message: T): CompletableFuture<S>
    stop(): void
    name(): String
    parent(): ActorRef<S>
    child(name: String): ActorRef<S>
    children(): Collection<ActorRef<S>>
    recast(): ActorRef<S>
    narrow(): ActorRef<S>
}
Context - -> "creates\n*" ActorRef_T_
ActorRef_T_ - -> "1" Scheduler : scheduler
Disposable <|- - ActorRef_T_
class Context [[java:com.github.davidmoten.reels.Context]] {
    +createActor(...): ActorRef<T>
    +lookupActor(name: String): Optional<ActorRef<T>>
    +dispose(): void
    +isDisposed(): boolean
    +shutdownNow(): void
    +shutdownGracefully(): CompletableFuture<Void>
    +actorBuilder(): ActorBuilder<T>
}
Context - -> "1" Supervisor : defaultSupervisor
Context - -> "1" Scheduler : defaultScheduler
Context - -> "1" ActorRef_T_ : deadLetterActor
Disposable <|.. Context

interface Disposable [[java:com.github.davidmoten.reels.Disposable]] {
    dispose(): void
    isDisposed(): boolean
}
class "Message<T>" as Message_T_ [[java:com.github.davidmoten.reels.Message]] {
    +content(): T
    +self(): ActorRef<T>
    +recipient(): ActorRef<T>
    +sender(): Optional<ActorRef<S>>
    +senderRaw(): ActorRef<S>
    +toString(): String
}
Message_T_ - -> "1" Context
interface Scheduler [[java:com.github.davidmoten.reels.Scheduler]] {
    schedule(run: Runnable): Disposable
    schedule(run: Runnable, delay: long, unit: TimeUnit): Disposable
    schedulePeriodically(run: Runnable, initialDelay: long, period: long, unit: TimeUnit): Disposable
    shutdown(): void
    requiresSerialization(): boolean
}
Scheduler - -> "*" Worker : creates

interface "SupervisedActorRef<T>" as SupervisedActorRef_T_ [[java:com.github.davidmoten.reels.SupervisedActorRef]] {
    restart(): boolean
    pauseAndRestart(delay: long, unit: TimeUnit): boolean
    pause(duration: long, unit: TimeUnit): boolean
    retry(): void
}
ActorRef_T_ <|- - SupervisedActorRef_T_

interface Supervisor [[java:com.github.davidmoten.reels.Supervisor]] {
    processFailure(message: Message<?>, self: SupervisedActorRef<?>, error: Throwable): void
}
interface Worker [[java:com.github.davidmoten.reels.Worker]] {
    schedule(run: Runnable): Disposable
    schedule(run: Runnable, delay: long, unit: TimeUnit): Disposable
    schedulePeriodically(run: Runnable, initialDelay: long, period: long, unit: TimeUnit): Disposable
}
Disposable <|- - Worker
Actor_T_ - -> "processes\n*" Message_T_
ActorRef_T_ - -> "refers to\n1" Actor_T_
@enduml

PlantUML version 1.2022.7(Tue Aug 23 03:01:30 AEST 2022)
(GPL source distribution)
Java Runtime: OpenJDK Runtime Environment
JVM: OpenJDK 64-Bit Server VM
Default Encoding: UTF-8
Language: en
Country: AU
--></g></svg>