<?xml version="1.0" encoding="UTF-8" standalone="no"?><svg xmlns="http://www.w3.org/2000/svg" xmlns:xlink="http://www.w3.org/1999/xlink" contentStyleType="text/css" height="1040px" preserveAspectRatio="none" style="width:682px;height:1040px;background:#FFFFFF;" version="1.1" viewBox="0 0 682 1040" width="682px" zoomAndPan="magnify"><defs/><g><rect fill="#FFFFFF" height="890.5859" style="stroke:#181818;stroke-width:1.0;" width="10" x="221" y="96.5625"/><rect fill="#FFFFFF" height="394.5938" style="stroke:#181818;stroke-width:1.0;" width="10" x="308" y="125.6953"/><rect fill="#FFFFFF" height="430.7266" style="stroke:#181818;stroke-width:1.0;" width="10" x="308" y="556.4219"/><line style="stroke:#181818;stroke-width:0.5;stroke-dasharray:5.0,5.0;" x1="28" x2="28" y1="36.2969" y2="1005.1484"/><line style="stroke:#181818;stroke-width:0.5;stroke-dasharray:5.0,5.0;" x1="127" x2="127" y1="36.2969" y2="1005.1484"/><line style="stroke:#181818;stroke-width:0.5;stroke-dasharray:5.0,5.0;" x1="225.5" x2="225.5" y1="36.2969" y2="1005.1484"/><line style="stroke:#181818;stroke-width:0.5;stroke-dasharray:5.0,5.0;" x1="313" x2="313" y1="36.2969" y2="1005.1484"/><line style="stroke:#181818;stroke-width:0.5;stroke-dasharray:5.0,5.0;" x1="443.5" x2="443.5" y1="36.2969" y2="1005.1484"/><line style="stroke:#181818;stroke-width:0.5;stroke-dasharray:5.0,5.0;" x1="560.5" x2="560.5" y1="36.2969" y2="1005.1484"/><rect fill="#E2E2F0" height="30.2969" rx="2.5" ry="2.5" style="stroke:#181818;stroke-width:0.5;" width="46" x="5" y="5"/><text fill="#000000" font-family="sans-serif" font-size="14" lengthAdjust="spacing" textLength="32" x="12" y="24.9951">User</text><rect fill="#E2E2F0" height="30.2969" rx="2.5" ry="2.5" style="stroke:#181818;stroke-width:0.5;" width="46" x="5" y="1004.1484"/><text fill="#000000" font-family="sans-serif" font-size="14" lengthAdjust="spacing" textLength="32" x="12" y="1024.1436">User</text><rect fill="#E2E2F0" height="30.2969" rx="2.5" ry="2.5" style="stroke:#181818;stroke-width:0.5;" width="68" x="93" y="5"/><text fill="#000000" font-family="sans-serif" font-size="14" lengthAdjust="spacing" textLength="54" x="100" y="24.9951">Context</text><rect fill="#E2E2F0" height="30.2969" rx="2.5" ry="2.5" style="stroke:#181818;stroke-width:0.5;" width="68" x="93" y="1004.1484"/><text fill="#000000" font-family="sans-serif" font-size="14" lengthAdjust="spacing" textLength="54" x="100" y="1024.1436">Context</text><rect fill="#E2E2F0" height="30.2969" rx="2.5" ry="2.5" style="stroke:#181818;stroke-width:0.5;" width="73" x="189.5" y="5"/><text fill="#000000" font-family="sans-serif" font-size="14" lengthAdjust="spacing" textLength="59" x="196.5" y="24.9951">ActorRef</text><rect fill="#E2E2F0" height="30.2969" rx="2.5" ry="2.5" style="stroke:#181818;stroke-width:0.5;" width="73" x="189.5" y="1004.1484"/><text fill="#000000" font-family="sans-serif" font-size="14" lengthAdjust="spacing" textLength="59" x="196.5" y="1024.1436">ActorRef</text><rect fill="#E2E2F0" height="30.2969" rx="2.5" ry="2.5" style="stroke:#181818;stroke-width:0.5;" width="50" x="288" y="5"/><text fill="#000000" font-family="sans-serif" font-size="14" lengthAdjust="spacing" textLength="36" x="295" y="24.9951">Actor</text><rect fill="#E2E2F0" height="30.2969" rx="2.5" ry="2.5" style="stroke:#181818;stroke-width:0.5;" width="50" x="288" y="1004.1484"/><text fill="#000000" font-family="sans-serif" font-size="14" lengthAdjust="spacing" textLength="36" x="295" y="1024.1436">Actor</text><rect fill="#E2E2F0" height="30.2969" rx="2.5" ry="2.5" style="stroke:#181818;stroke-width:0.5;" width="87" x="400.5" y="5"/><text fill="#000000" font-family="sans-serif" font-size="14" lengthAdjust="spacing" textLength="73" x="407.5" y="24.9951">Supervisor</text><rect fill="#E2E2F0" height="30.2969" rx="2.5" ry="2.5" style="stroke:#181818;stroke-width:0.5;" width="87" x="400.5" y="1004.1484"/><text fill="#000000" font-family="sans-serif" font-size="14" lengthAdjust="spacing" textLength="73" x="407.5" y="1024.1436">Supervisor</text><rect fill="#E2E2F0" height="30.2969" rx="2.5" ry="2.5" style="stroke:#181818;stroke-width:0.5;" width="127" x="497.5" y="5"/><text fill="#000000" font-family="sans-serif" font-size="14" lengthAdjust="spacing" textLength="113" x="504.5" y="24.9951">DeadLetterActor</text><rect fill="#E2E2F0" height="30.2969" rx="2.5" ry="2.5" style="stroke:#181818;stroke-width:0.5;" width="127" x="497.5" y="1004.1484"/><text fill="#000000" font-family="sans-serif" font-size="14" lengthAdjust="spacing" textLength="113" x="504.5" y="1024.1436">DeadLetterActor</text><rect fill="#FFFFFF" height="890.5859" style="stroke:#181818;stroke-width:1.0;" width="10" x="221" y="96.5625"/><rect fill="#FFFFFF" height="394.5938" style="stroke:#181818;stroke-width:1.0;" width="10" x="308" y="125.6953"/><rect fill="#FFFFFF" height="430.7266" style="stroke:#181818;stroke-width:1.0;" width="10" x="308" y="556.4219"/><polygon fill="#181818" points="115,63.4297,125,67.4297,115,71.4297,119,67.4297" style="stroke:#181818;stroke-width:1.0;"/><line style="stroke:#181818;stroke-width:1.0;" x1="28" x2="121" y1="67.4297" y2="67.4297"/><text fill="#000000" font-family="sans-serif" font-size="13" lengthAdjust="spacing" textLength="75" x="35" y="62.3638">createActor</text><polygon fill="#181818" points="209,92.5625,219,96.5625,209,100.5625,213,96.5625" style="stroke:#181818;stroke-width:1.0;"/><line style="stroke:#181818;stroke-width:1.0;" x1="127" x2="215" y1="96.5625" y2="96.5625"/><text fill="#000000" font-family="sans-serif" font-size="13" lengthAdjust="spacing" textLength="75" x="134" y="91.4966">createActor</text><polygon fill="#181818" points="296,121.6953,306,125.6953,296,129.6953,300,125.6953" style="stroke:#181818;stroke-width:1.0;"/><line style="stroke:#181818;stroke-width:1.0;" x1="231" x2="302" y1="125.6953" y2="125.6953"/><text fill="#000000" font-family="sans-serif" font-size="13" lengthAdjust="spacing" textLength="41" x="238" y="120.6294">create</text><polygon fill="#181818" points="296,150.8281,306,154.8281,296,158.8281,300,154.8281" style="stroke:#181818;stroke-width:1.0;"/><line style="stroke:#181818;stroke-width:1.0;" x1="231" x2="302" y1="154.8281" y2="154.8281"/><text fill="#000000" font-family="sans-serif" font-size="13" lengthAdjust="spacing" textLength="53" x="238" y="149.7622">preStart</text><line style="stroke:#181818;stroke-width:1.0;" x1="318" x2="360" y1="183.9609" y2="183.9609"/><line style="stroke:#181818;stroke-width:1.0;" x1="360" x2="360" y1="183.9609" y2="196.9609"/><line style="stroke:#181818;stroke-width:1.0;" x1="319" x2="360" y1="196.9609" y2="196.9609"/><polygon fill="#181818" points="329,192.9609,319,196.9609,329,200.9609,325,196.9609" style="stroke:#181818;stroke-width:1.0;"/><text fill="#000000" font-family="sans-serif" font-size="13" lengthAdjust="spacing" textLength="53" x="325" y="178.895">preStart</text><polygon fill="#181818" points="209,222.0938,219,226.0938,209,230.0938,213,226.0938" style="stroke:#181818;stroke-width:1.0;"/><line style="stroke:#181818;stroke-width:1.0;" x1="28" x2="215" y1="226.0938" y2="226.0938"/><text fill="#000000" font-family="sans-serif" font-size="13" lengthAdjust="spacing" textLength="57" x="35" y="221.0278">tell(msg)</text><polygon fill="#181818" points="296,251.2266,306,255.2266,296,259.2266,300,255.2266" style="stroke:#181818;stroke-width:1.0;"/><line style="stroke:#181818;stroke-width:1.0;" x1="231" x2="302" y1="255.2266" y2="255.2266"/><text fill="#000000" font-family="sans-serif" font-size="13" lengthAdjust="spacing" textLength="28" x="238" y="250.1606">msg</text><line style="stroke:#181818;stroke-width:1.0;" x1="318" x2="360" y1="284.3594" y2="284.3594"/><line style="stroke:#181818;stroke-width:1.0;" x1="360" x2="360" y1="284.3594" y2="297.3594"/><line style="stroke:#181818;stroke-width:1.0;" x1="319" x2="360" y1="297.3594" y2="297.3594"/><polygon fill="#181818" points="329,293.3594,319,297.3594,329,301.3594,325,297.3594" style="stroke:#181818;stroke-width:1.0;"/><text fill="#000000" font-family="sans-serif" font-size="13" lengthAdjust="spacing" textLength="107" x="325" y="279.2935">processMessage</text><polygon fill="#181818" points="242,322.4922,232,326.4922,242,330.4922,238,326.4922" style="stroke:#181818;stroke-width:1.0;"/><line style="stroke:#181818;stroke-width:1.0;" x1="236" x2="307" y1="326.4922" y2="326.4922"/><text fill="#000000" font-family="sans-serif" font-size="13" lengthAdjust="spacing" textLength="31" x="248" y="321.4263">error</text><polygon fill="#181818" points="432,351.625,442,355.625,432,359.625,436,355.625" style="stroke:#181818;stroke-width:1.0;"/><line style="stroke:#181818;stroke-width:1.0;" x1="231" x2="438" y1="355.625" y2="355.625"/><text fill="#000000" font-family="sans-serif" font-size="13" lengthAdjust="spacing" textLength="63" x="238" y="350.5591">msg,error</text><line style="stroke:#181818;stroke-width:1.0;" x1="444" x2="486" y1="384.7578" y2="384.7578"/><line style="stroke:#181818;stroke-width:1.0;" x1="486" x2="486" y1="384.7578" y2="397.7578"/><line style="stroke:#181818;stroke-width:1.0;" x1="445" x2="486" y1="397.7578" y2="397.7578"/><polygon fill="#181818" points="455,393.7578,445,397.7578,455,401.7578,451,397.7578" style="stroke:#181818;stroke-width:1.0;"/><text fill="#000000" font-family="sans-serif" font-size="13" lengthAdjust="spacing" textLength="54" x="451" y="379.6919">log error</text><polygon fill="#181818" points="242,422.8906,232,426.8906,242,430.8906,238,426.8906" style="stroke:#181818;stroke-width:1.0;"/><line style="stroke:#181818;stroke-width:1.0;" x1="236" x2="443" y1="426.8906" y2="426.8906"/><text fill="#000000" font-family="sans-serif" font-size="13" lengthAdjust="spacing" textLength="43" x="248" y="421.8247">restart</text><polygon fill="#181818" points="209,452.0234,219,456.0234,209,460.0234,213,456.0234" style="stroke:#181818;stroke-width:1.0;"/><line style="stroke:#181818;stroke-width:1.0;" x1="28" x2="215" y1="456.0234" y2="456.0234"/><text fill="#000000" font-family="sans-serif" font-size="13" lengthAdjust="spacing" textLength="65" x="35" y="450.9575">tell(msg2)</text><polygon fill="#181818" points="296,481.1563,306,485.1563,296,489.1563,300,485.1563" style="stroke:#181818;stroke-width:1.0;"/><line style="stroke:#181818;stroke-width:1.0;" x1="231" x2="302" y1="485.1563" y2="485.1563"/><text fill="#000000" font-family="sans-serif" font-size="13" lengthAdjust="spacing" textLength="46" x="238" y="480.0903">onStop</text><line style="stroke:#181818;stroke-width:1.0;" x1="318" x2="360" y1="519.2891" y2="519.2891"/><line style="stroke:#181818;stroke-width:1.0;" x1="360" x2="360" y1="519.2891" y2="532.2891"/><line style="stroke:#181818;stroke-width:1.0;" x1="313" x2="360" y1="532.2891" y2="532.2891"/><polygon fill="#181818" points="323,528.2891,313,532.2891,323,536.2891,319,532.2891" style="stroke:#181818;stroke-width:1.0;"/><text fill="#000000" font-family="sans-serif" font-size="13" lengthAdjust="spacing" textLength="46" x="325" y="514.2231">onStop</text><polygon fill="#181818" points="296,552.4219,306,556.4219,296,560.4219,300,556.4219" style="stroke:#181818;stroke-width:1.0;"/><line style="stroke:#181818;stroke-width:1.0;" x1="231" x2="302" y1="556.4219" y2="556.4219"/><text fill="#000000" font-family="sans-serif" font-size="13" lengthAdjust="spacing" textLength="41" x="238" y="551.356">create</text><polygon fill="#181818" points="296,581.5547,306,585.5547,296,589.5547,300,585.5547" style="stroke:#181818;stroke-width:1.0;"/><line style="stroke:#181818;stroke-width:1.0;" x1="231" x2="302" y1="585.5547" y2="585.5547"/><text fill="#000000" font-family="sans-serif" font-size="13" lengthAdjust="spacing" textLength="53" x="238" y="580.4888">preStart</text><line style="stroke:#181818;stroke-width:1.0;" x1="318" x2="360" y1="614.6875" y2="614.6875"/><line style="stroke:#181818;stroke-width:1.0;" x1="360" x2="360" y1="614.6875" y2="627.6875"/><line style="stroke:#181818;stroke-width:1.0;" x1="319" x2="360" y1="627.6875" y2="627.6875"/><polygon fill="#181818" points="329,623.6875,319,627.6875,329,631.6875,325,627.6875" style="stroke:#181818;stroke-width:1.0;"/><text fill="#000000" font-family="sans-serif" font-size="13" lengthAdjust="spacing" textLength="53" x="325" y="609.6216">preStart</text><polygon fill="#181818" points="296,652.8203,306,656.8203,296,660.8203,300,656.8203" style="stroke:#181818;stroke-width:1.0;"/><line style="stroke:#181818;stroke-width:1.0;" x1="231" x2="302" y1="656.8203" y2="656.8203"/><text fill="#000000" font-family="sans-serif" font-size="13" lengthAdjust="spacing" textLength="36" x="238" y="651.7544">msg2</text><line style="stroke:#181818;stroke-width:1.0;" x1="318" x2="360" y1="685.9531" y2="685.9531"/><line style="stroke:#181818;stroke-width:1.0;" x1="360" x2="360" y1="685.9531" y2="698.9531"/><line style="stroke:#181818;stroke-width:1.0;" x1="319" x2="360" y1="698.9531" y2="698.9531"/><polygon fill="#181818" points="329,694.9531,319,698.9531,329,702.9531,325,698.9531" style="stroke:#181818;stroke-width:1.0;"/><text fill="#000000" font-family="sans-serif" font-size="13" lengthAdjust="spacing" textLength="107" x="325" y="680.8872">processMessage</text><polygon fill="#181818" points="209,724.0859,219,728.0859,209,732.0859,213,728.0859" style="stroke:#181818;stroke-width:1.0;"/><line style="stroke:#181818;stroke-width:1.0;" x1="28" x2="215" y1="728.0859" y2="728.0859"/><text fill="#000000" font-family="sans-serif" font-size="13" lengthAdjust="spacing" textLength="28" x="35" y="723.02">stop</text><polygon fill="#181818" points="296,753.2188,306,757.2188,296,761.2188,300,757.2188" style="stroke:#181818;stroke-width:1.0;"/><line style="stroke:#181818;stroke-width:1.0;" x1="231" x2="302" y1="757.2188" y2="757.2188"/><text fill="#000000" font-family="sans-serif" font-size="13" lengthAdjust="spacing" textLength="46" x="238" y="752.1528">onStop</text><line style="stroke:#181818;stroke-width:1.0;" x1="318" x2="360" y1="786.3516" y2="786.3516"/><line style="stroke:#181818;stroke-width:1.0;" x1="360" x2="360" y1="786.3516" y2="799.3516"/><line style="stroke:#181818;stroke-width:1.0;" x1="319" x2="360" y1="799.3516" y2="799.3516"/><polygon fill="#181818" points="329,795.3516,319,799.3516,329,803.3516,325,799.3516" style="stroke:#181818;stroke-width:1.0;"/><text fill="#000000" font-family="sans-serif" font-size="13" lengthAdjust="spacing" textLength="46" x="325" y="781.2856">onStop</text><polygon fill="#181818" points="242,824.4844,232,828.4844,242,832.4844,238,828.4844" style="stroke:#181818;stroke-width:1.0;"/><line style="stroke:#181818;stroke-width:1.0;" x1="236" x2="307" y1="828.4844" y2="828.4844"/><text fill="#000000" font-family="sans-serif" font-size="13" lengthAdjust="spacing" textLength="52" x="248" y="823.4185">stopped</text><polygon fill="#181818" points="138,853.6172,128,857.6172,138,861.6172,134,857.6172" style="stroke:#181818;stroke-width:1.0;"/><line style="stroke:#181818;stroke-width:1.0;" x1="132" x2="220" y1="857.6172" y2="857.6172"/><text fill="#000000" font-family="sans-serif" font-size="13" lengthAdjust="spacing" textLength="52" x="144" y="852.5513">stopped</text><polygon fill="#181818" points="209,882.75,219,886.75,209,890.75,213,886.75" style="stroke:#181818;stroke-width:1.0;"/><line style="stroke:#181818;stroke-width:1.0;" x1="28" x2="215" y1="886.75" y2="886.75"/><text fill="#000000" font-family="sans-serif" font-size="13" lengthAdjust="spacing" textLength="65" x="35" y="881.6841">tell(msg3)</text><polygon fill="#181818" points="549,911.8828,559,915.8828,549,919.8828,553,915.8828" style="stroke:#181818;stroke-width:1.0;"/><line style="stroke:#181818;stroke-width:1.0;" x1="231" x2="555" y1="915.8828" y2="915.8828"/><text fill="#000000" font-family="sans-serif" font-size="13" lengthAdjust="spacing" textLength="118" x="238" y="910.8169">DeadLetter(msg3)</text><line style="stroke:#181818;stroke-width:1.0;" x1="561" x2="603" y1="945.0156" y2="945.0156"/><line style="stroke:#181818;stroke-width:1.0;" x1="603" x2="603" y1="945.0156" y2="958.0156"/><line style="stroke:#181818;stroke-width:1.0;" x1="562" x2="603" y1="958.0156" y2="958.0156"/><polygon fill="#181818" points="572,954.0156,562,958.0156,572,962.0156,568,958.0156" style="stroke:#181818;stroke-width:1.0;"/><text fill="#000000" font-family="sans-serif" font-size="13" lengthAdjust="spacing" textLength="107" x="568" y="939.9497">processMessage</text><polygon fill="#181818" points="214,983.1484,224,987.1484,214,991.1484,218,987.1484" style="stroke:#181818;stroke-width:1.0;"/><line style="stroke:#181818;stroke-width:1.0;" x1="28" x2="220" y1="987.1484" y2="987.1484"/><text fill="#000000" font-family="sans-serif" font-size="13" lengthAdjust="spacing" textLength="49" x="35" y="982.0825">dispose</text><!--MD5=[5601e442520d4392a16ece1d225ccc03]
@startuml
User -> Context: createActor

Context -> ActorRef: createActor
activate ActorRef
ActorRef -> Actor: create
activate Actor
ActorRef -> Actor: preStart
Actor -> Actor: preStart

User -> ActorRef: tell(msg)
ActorRef -> Actor: msg
Actor -> Actor: processMessage
Actor -> ActorRef: error
ActorRef -> Supervisor: msg,error
Supervisor -> Supervisor: log error
Supervisor -> ActorRef: restart
User -> ActorRef: tell(msg2)
ActorRef -> Actor: onStop
Actor -> Actor: onStop
deactivate Actor
ActorRef -> Actor: create
activate Actor
ActorRef -> Actor: preStart
Actor -> Actor: preStart
ActorRef -> Actor: msg2
Actor -> Actor: processMessage

User -> ActorRef: stop
ActorRef -> Actor: onStop
Actor -> Actor: onStop
Actor -> ActorRef: stopped
ActorRef -> Context: stopped
User -> ActorRef: tell(msg3)
ActorRef -> DeadLetterActor: DeadLetter(msg3)
DeadLetterActor -> DeadLetterActor: processMessage
User -> ActorRef: dispose
deactivate Actor
deactivate ActorRef


@enduml

PlantUML version 1.2022.8(Sun Sep 25 19:00:33 AEST 2022)
(GPL source distribution)
Java Runtime: OpenJDK Runtime Environment
JVM: OpenJDK 64-Bit Server VM
Default Encoding: UTF-8
Language: en
Country: AU
--></g></svg>