<?xml version="1.0" encoding="UTF-8" standalone="no"?><svg xmlns="http://www.w3.org/2000/svg" xmlns:xlink="http://www.w3.org/1999/xlink" contentStyleType="text/css" height="710px" preserveAspectRatio="none" style="width:853px;height:710px;background:#FFFFFF;" version="1.1" viewBox="0 0 853 710" width="853px" zoomAndPan="magnify"><defs/><g><ellipse cx="805.5" cy="436.5" fill="#222222" rx="10" ry="10" style="stroke:none;stroke-width:1.0;"/><rect fill="#F1F1F1" height="40" rx="12.5" ry="12.5" style="stroke:#181818;stroke-width:0.5;" width="63" x="774" y="561.5"/><text fill="#000000" font-family="sans-serif" font-size="14" lengthAdjust="spacing" textLength="53" x="779" y="586.3467">Starting</text><g id="Active"><rect fill="#F1F1F1" height="68.8906" rx="12.5" ry="12.5" style="stroke:#181818;stroke-width:0.5;" width="93" x="557" y="7"/><line style="stroke:#181818;stroke-width:0.5;" x1="557" x2="650" y1="33.2969" y2="33.2969"/><text fill="#000000" font-family="sans-serif" font-size="14" lengthAdjust="spacing" textLength="41" x="583" y="24.9951">Active</text><text fill="#000000" font-family="sans-serif" font-size="14" lengthAdjust="spacing" textLength="73" x="562" y="51.292">processes</text><text fill="#000000" font-family="sans-serif" font-size="14" lengthAdjust="spacing" textLength="72" x="562" y="67.5889">messages</text></g><g id="Stopping"><rect fill="#F1F1F1" height="85.1875" rx="12.5" ry="12.5" style="stroke:#181818;stroke-width:0.5;" width="183" x="7" y="394"/><line style="stroke:#181818;stroke-width:0.5;" x1="7" x2="190" y1="420.2969" y2="420.2969"/><text fill="#000000" font-family="sans-serif" font-size="14" lengthAdjust="spacing" textLength="62" x="67.5" y="411.9951">Stopping</text><text fill="#000000" font-family="sans-serif" font-size="14" lengthAdjust="spacing" textLength="144" x="12" y="438.292">stop has been called</text><text fill="#000000" font-family="sans-serif" font-size="14" lengthAdjust="spacing" textLength="163" x="12" y="454.5889">children will be stopped</text><text fill="#000000" font-family="sans-serif" font-size="14" lengthAdjust="spacing" textLength="25" x="12" y="470.8857">first</text></g><g id="Stopped"><rect fill="#F1F1F1" height="85.1875" rx="12.5" ry="12.5" style="stroke:#181818;stroke-width:0.5;" width="185" x="225" y="394"/><line style="stroke:#181818;stroke-width:0.5;" x1="225" x2="410" y1="420.2969" y2="420.2969"/><text fill="#000000" font-family="sans-serif" font-size="14" lengthAdjust="spacing" textLength="59" x="288" y="411.9951">Stopped</text><text fill="#000000" font-family="sans-serif" font-size="14" lengthAdjust="spacing" textLength="165" x="230" y="438.292">messages queued after</text><text fill="#000000" font-family="sans-serif" font-size="14" lengthAdjust="spacing" textLength="143" x="230" y="454.5889">this point are sent to</text><text fill="#000000" font-family="sans-serif" font-size="14" lengthAdjust="spacing" textLength="116" x="230" y="470.8857">DeadLetter actor</text></g><g id="Disposed"><rect fill="#F1F1F1" height="85.1875" rx="12.5" ry="12.5" style="stroke:#181818;stroke-width:0.5;" width="131" x="448" y="539"/><line style="stroke:#181818;stroke-width:0.5;" x1="448" x2="579" y1="565.2969" y2="565.2969"/><text fill="#000000" font-family="sans-serif" font-size="14" lengthAdjust="spacing" textLength="66" x="480.5" y="556.9951">Disposed</text><text fill="#000000" font-family="sans-serif" font-size="14" lengthAdjust="spacing" textLength="111" x="453" y="583.292">mailbox cleared,</text><text fill="#000000" font-family="sans-serif" font-size="14" lengthAdjust="spacing" textLength="105" x="453" y="599.5889">new messages</text><text fill="#000000" font-family="sans-serif" font-size="14" lengthAdjust="spacing" textLength="68" x="453" y="615.8857">discarded</text></g><g id="Paused"><rect fill="#F1F1F1" height="68.8906" rx="12.5" ry="12.5" style="stroke:#181818;stroke-width:0.5;" width="92" x="509.5" y="265"/><line style="stroke:#181818;stroke-width:0.5;" x1="509.5" x2="601.5" y1="291.2969" y2="291.2969"/><text fill="#000000" font-family="sans-serif" font-size="14" lengthAdjust="spacing" textLength="52" x="529.5" y="282.9951">Paused</text><text fill="#000000" font-family="sans-serif" font-size="14" lengthAdjust="spacing" textLength="72" x="514.5" y="309.292">messages</text><text fill="#000000" font-family="sans-serif" font-size="14" lengthAdjust="spacing" textLength="58" x="514.5" y="325.5889">buffered</text></g><g id="Restart"><rect fill="#F1F1F1" height="52.5938" rx="12.5" ry="12.5" style="stroke:#181818;stroke-width:0.5;" width="70" x="690.5" y="410"/><line style="stroke:#181818;stroke-width:0.5;" x1="690.5" x2="760.5" y1="436.2969" y2="436.2969"/><text fill="#000000" font-family="sans-serif" font-size="14" lengthAdjust="spacing" textLength="50" x="700.5" y="427.9951">Restart</text><text fill="#000000" font-family="sans-serif" font-size="14" lengthAdjust="spacing" textLength="4" x="695.5" y="454.292"> </text></g><ellipse cx="513.5" cy="694" fill="none" rx="10" ry="10" style="stroke:#222222;stroke-width:1.0;"/><ellipse cx="514" cy="694.5" fill="#222222" rx="6" ry="6" style="stroke:none;stroke-width:1.0;"/><g id="Errored"><rect fill="#F1F1F1" height="68.8906" rx="12.5" ry="12.5" style="stroke:#181818;stroke-width:0.5;" width="96" x="606.5" y="136"/><line style="stroke:#181818;stroke-width:0.5;" x1="606.5" x2="702.5" y1="162.2969" y2="162.2969"/><text fill="#000000" font-family="sans-serif" font-size="14" lengthAdjust="spacing" textLength="51" x="629" y="153.9951">Errored</text><text fill="#000000" font-family="sans-serif" font-size="14" lengthAdjust="spacing" textLength="76" x="611.5" y="180.292">handled by</text><text fill="#000000" font-family="sans-serif" font-size="14" lengthAdjust="spacing" textLength="72" x="611.5" y="196.5889">supervisor</text></g><!--MD5=[0e0ddfccc84b1bd82509cbd130cc9f93]
link *start to Starting--><g id="link_*start_Starting"><path d="M805.5,446.88 C805.5,468.73 805.5,523.6 805.5,555.82 " fill="none" id="*start-to-Starting" style="stroke:#181818;stroke-width:1.0;"/><polygon fill="#181818" points="805.5,561.18,809.5,552.18,805.5,556.18,801.5,552.18,805.5,561.18" style="stroke:#181818;stroke-width:1.0;"/></g><!--MD5=[184f6677789ea29b3d52499e1ada652c]
link Starting to Active--><g id="link_Starting_Active"><path d="M812.86,561.31 C824.88,527.36 846.18,454.57 833.5,394 C807.84,271.47 796.73,235.3 720.5,136 C702.32,112.31 676.9,91.06 654.4,74.82 " fill="none" id="Starting-to-Active" style="stroke:#181818;stroke-width:1.0;"/><polygon fill="#181818" points="650.23,71.85,655.2399,80.3294,654.3025,74.7508,659.8812,73.8134,650.23,71.85" style="stroke:#181818;stroke-width:1.0;"/></g><!--MD5=[61cd3e2ef5038971bc38cd1808b9fa98]
link Active to Stopping--><g id="link_Active_Stopping"><path d="M556.94,63.89 C521.07,81.24 470.94,107.45 430.5,136 C318.27,215.23 202.55,328.05 141.79,390.15 " fill="none" id="Active-to-Stopping" style="stroke:#181818;stroke-width:1.0;"/><polygon fill="#181818" points="138.23,393.8,147.379,390.1535,141.7225,390.222,141.6541,384.5655,138.23,393.8" style="stroke:#181818;stroke-width:1.0;"/></g><!--MD5=[6ebd39b14f61ad847253a4f08a842b2a]
link Stopping to Stopped--><g id="link_Stopping_Stopped"><path d="M190.04,436.5 C199.93,436.5 209.82,436.5 219.72,436.5 " fill="none" id="Stopping-to-Stopped" style="stroke:#181818;stroke-width:1.0;"/><polygon fill="#181818" points="224.89,436.5,215.89,432.5,219.89,436.5,215.89,440.5,224.89,436.5" style="stroke:#181818;stroke-width:1.0;"/></g><!--MD5=[89983ec93145a14d0e1aca2f64ebde07]
link Active to Disposed--><g id="link_Active_Disposed"><path d="M580.51,76.04 C553.27,118.01 509.43,193.15 492.5,265 C470.49,358.42 488.34,471.39 501.87,533.64 " fill="none" id="Active-to-Disposed" style="stroke:#181818;stroke-width:1.0;"/><polygon fill="#181818" points="503,538.77,504.9793,529.1221,501.929,533.8861,497.165,530.8357,503,538.77" style="stroke:#181818;stroke-width:1.0;"/></g><!--MD5=[f766fb3811e05548a81a20ae084d0c28]
link Stopping to Disposed--><g id="link_Stopping_Disposed"><path d="M190.28,472.77 C196.09,474.9 201.87,477 207.5,479 C287.8,507.59 380.84,538.08 443.06,558.1 " fill="none" id="Stopping-to-Disposed" style="stroke:#181818;stroke-width:1.0;"/><polygon fill="#181818" points="447.86,559.64,440.5151,553.0785,443.0997,558.1104,438.0678,560.695,447.86,559.64" style="stroke:#181818;stroke-width:1.0;"/></g><!--MD5=[be463e28f87732a8a027707224b24a2d]
link Stopped to Disposed--><g id="link_Stopped_Disposed"><path d="M374.45,479.05 C398.82,496.83 427.31,517.61 452.13,535.73 " fill="none" id="Stopped-to-Disposed" style="stroke:#181818;stroke-width:1.0;"/><polygon fill="#181818" points="456.4,538.84,451.4973,530.2981,452.3644,535.8881,446.7743,536.7552,456.4,538.84" style="stroke:#181818;stroke-width:1.0;"/></g><!--MD5=[ee2e4313b7ca17c818878f81b1e56335]
link Paused to Restart--><g id="link_Paused_Restart"><path d="M597.96,334.22 C625.97,356.46 662.27,385.29 688.98,406.5 " fill="none" id="Paused-to-Restart" style="stroke:#181818;stroke-width:1.0;"/><polygon fill="#181818" points="693.18,409.84,688.6276,401.1064,689.2673,406.727,683.6467,407.3667,693.18,409.84" style="stroke:#181818;stroke-width:1.0;"/></g><!--MD5=[f408903c227d62484f5a077d990aafac]
link Paused to Active--><g id="link_Paused_Active"><path d="M561.84,264.69 C570.73,217.27 586.87,131.2 596.23,81.25 " fill="none" id="Paused-to-Active" style="stroke:#181818;stroke-width:1.0;"/><polygon fill="#181818" points="597.18,76.23,591.5785,84.3308,596.2517,81.1431,599.4394,85.8162,597.18,76.23" style="stroke:#181818;stroke-width:1.0;"/></g><!--MD5=[24db4212cf738d49e969bfe181e0354d]
link Restart to Starting--><g id="link_Restart_Starting"><path d="M739.8,463.07 C754.61,489.54 777.57,530.57 792.05,556.46 " fill="none" id="Restart-to-Starting" style="stroke:#181818;stroke-width:1.0;"/><polygon fill="#181818" points="794.65,561.11,793.7377,551.3035,792.2048,556.7487,786.7596,555.2158,794.65,561.11" style="stroke:#181818;stroke-width:1.0;"/></g><!--MD5=[706b2b379d563e8e64b0e56a472dc7c7]
link Paused to Disposed--><g id="link_Paused_Disposed"><path d="M550.43,334.27 C542.96,384.11 528.95,477.53 520.49,533.87 " fill="none" id="Paused-to-Disposed" style="stroke:#181818;stroke-width:1.0;"/><polygon fill="#181818" points="519.75,538.87,525.0432,530.5644,520.4931,533.9255,517.132,529.3755,519.75,538.87" style="stroke:#181818;stroke-width:1.0;"/></g><!--MD5=[6c13822630c1a6470ec8d02f6189e873]
link Disposed to *end--><g id="link_Disposed_*end"><path d="M513.5,624.28 C513.5,643.48 513.5,665 513.5,678.76 " fill="none" id="Disposed-to-*end" style="stroke:#181818;stroke-width:1.0;"/><polygon fill="#181818" points="513.5,683.81,517.5,674.81,513.5,678.81,509.5,674.81,513.5,683.81" style="stroke:#181818;stroke-width:1.0;"/></g><!--MD5=[a4f285580a437217a8f1a2b7967bb5cc]
link Active to Errored--><g id="link_Active_Errored"><path d="M605.62,76.2 C610.74,92.99 618.78,113.38 627.12,130.81 " fill="none" id="Active-to-Errored" style="stroke:#181818;stroke-width:1.0;"/><polygon fill="#181818" points="629.48,135.64,629.1206,125.7977,627.2839,131.1481,621.9336,129.3114,629.48,135.64" style="stroke:#181818;stroke-width:1.0;"/></g><!--MD5=[93e65af9f97d7e2ba0f8d765816200a9]
link Errored to Active--><g id="link_Errored_Active"><path d="M653,135.64 C647.96,118.83 639.92,98.44 631.5,81.03 " fill="none" id="Errored-to-Active" style="stroke:#181818;stroke-width:1.0;"/><polygon fill="#181818" points="629.11,76.2,629.5069,86.0409,631.3232,80.6835,636.6805,82.4997,629.11,76.2" style="stroke:#181818;stroke-width:1.0;"/></g><!--MD5=[75e310440133ab82b82678a330fd02b3]
link Errored to Disposed--><g id="link_Errored_Disposed"><path d="M649.01,205.24 C643.19,238.42 632.99,290.29 619.5,334 C598.99,400.48 588.24,415.19 560.5,479 C552.65,497.07 543.63,516.76 535.62,533.95 " fill="none" id="Errored-to-Disposed" style="stroke:#181818;stroke-width:1.0;"/><polygon fill="#181818" points="533.38,538.73,540.8285,532.2864,535.5069,534.2049,533.5884,528.8833,533.38,538.73" style="stroke:#181818;stroke-width:1.0;"/></g><!--MD5=[c392541101ca37fd6181c335e5d43fad]
link Errored to Restart--><g id="link_Errored_Restart"><path d="M663.99,205.23 C668.97,223 675.12,245.16 680.5,265 C693.74,313.86 708.65,370.74 717.55,404.89 " fill="none" id="Errored-to-Restart" style="stroke:#181818;stroke-width:1.0;"/><polygon fill="#181818" points="718.82,409.76,720.3964,400.0381,717.5468,404.9248,712.6601,402.0752,718.82,409.76" style="stroke:#181818;stroke-width:1.0;"/></g><!--MD5=[51fcaaa1e5acff6abaa379b06d6858b9]
link Errored to Paused--><g id="link_Errored_Paused"><path d="M628.23,205.2 C615.03,222.14 598.97,242.73 585.31,260.26 " fill="none" id="Errored-to-Paused" style="stroke:#181818;stroke-width:1.0;"/><polygon fill="#181818" points="581.89,264.64,590.5764,259.9981,584.9627,260.6955,584.2652,255.0819,581.89,264.64" style="stroke:#181818;stroke-width:1.0;"/></g><!--MD5=[dd875d87b06a24a7d80b7b2566de5841]
link Restart to Disposed--><g id="link_Restart_Disposed"><path d="M690.49,461.11 C660.43,481.39 616.27,511.18 579.58,535.92 " fill="none" id="Restart-to-Disposed" style="stroke:#181818;stroke-width:1.0;"/><polygon fill="#181818" points="575.15,538.92,584.8506,537.2174,579.2992,536.13,580.3866,530.5787,575.15,538.92" style="stroke:#181818;stroke-width:1.0;"/></g><!--MD5=[d81da72d3d1715d28beda5f3c3bcfb47]
@startuml
hide empty description
[*] - -> Starting 
Starting - -> Active
Active - -> Stopping
Stopping -> Stopped
Active - -> Disposed
Stopping - -> Disposed
Stopped - -> Disposed
Paused - -> Restart
Paused - -> Active
Restart - -> Starting
Paused - -> Disposed
Disposed - -> [*]
Active - -> Errored
Errored - -> Active
Errored - -> Disposed
Errored - -> Restart
Errored - -> Paused
Restart - -> Disposed

Active: processes\nmessages
Stopping: stop has been called\nchildren will be stopped\nfirst
Stopped: messages queued after\nthis point are sent to\nDeadLetter actor
Paused: messages\nbuffered
Disposed: mailbox cleared,\nnew messages\ndiscarded
Errored: handled by\nsupervisor
Restart: 

@enduml

PlantUML version 1.2022.7(Tue Aug 23 03:01:30 AEST 2022)
(GPL source distribution)
Java Runtime: OpenJDK Runtime Environment
JVM: OpenJDK 64-Bit Server VM
Default Encoding: UTF-8
Language: en
Country: AU
--></g></svg>