<?xml version="1.0" encoding="UTF-8" standalone="no"?><svg xmlns="http://www.w3.org/2000/svg" xmlns:xlink="http://www.w3.org/1999/xlink" contentStyleType="text/css" height="849px" preserveAspectRatio="none" style="width:497px;height:849px;background:#FFFFFF;" version="1.1" viewBox="0 0 497 849" width="497px" zoomAndPan="magnify"><defs/><g><ellipse cx="427" cy="417" fill="#222222" rx="10" ry="10" style="stroke:none;stroke-width:1.0;"/><g id="Starting"><rect fill="#F1F1F1" height="52.5938" rx="12.5" ry="12.5" style="stroke:#181818;stroke-width:0.5;" width="102" x="376" y="506"/><line style="stroke:#181818;stroke-width:0.5;" x1="376" x2="478" y1="532.2969" y2="532.2969"/><text fill="#000000" font-family="sans-serif" font-size="14" lengthAdjust="spacing" textLength="53" x="400.5" y="523.9951">Starting</text><text fill="#000000" font-family="sans-serif" font-size="14" lengthAdjust="spacing" textLength="82" x="381" y="550.292">run preStart</text></g><g id="Active"><rect fill="#F1F1F1" height="68.8906" rx="12.5" ry="12.5" style="stroke:#181818;stroke-width:0.5;" width="93" x="250.5" y="7"/><line style="stroke:#181818;stroke-width:0.5;" x1="250.5" x2="343.5" y1="33.2969" y2="33.2969"/><text fill="#000000" font-family="sans-serif" font-size="14" lengthAdjust="spacing" textLength="41" x="276.5" y="24.9951">Active</text><text fill="#000000" font-family="sans-serif" font-size="14" lengthAdjust="spacing" textLength="73" x="255.5" y="51.292">processes</text><text fill="#000000" font-family="sans-serif" font-size="14" lengthAdjust="spacing" textLength="72" x="255.5" y="67.5889">messages</text></g><g id="Stopping"><rect fill="#F1F1F1" height="85.1875" rx="12.5" ry="12.5" style="stroke:#181818;stroke-width:0.5;" width="138" x="7" y="652.5"/><line style="stroke:#181818;stroke-width:0.5;" x1="7" x2="145" y1="678.7969" y2="678.7969"/><text fill="#000000" font-family="sans-serif" font-size="14" lengthAdjust="spacing" textLength="62" x="45" y="670.4951">Stopping</text><text fill="#000000" font-family="sans-serif" font-size="14" lengthAdjust="spacing" textLength="94" x="12" y="696.792">stop children,</text><text fill="#000000" font-family="sans-serif" font-size="14" lengthAdjust="spacing" textLength="118" x="12" y="713.0889">process buffered</text><text fill="#000000" font-family="sans-serif" font-size="14" lengthAdjust="spacing" textLength="72" x="12" y="729.3857">messages</text></g><g id="Stopped"><rect fill="#F1F1F1" height="134.0781" rx="12.5" ry="12.5" style="stroke:#181818;stroke-width:0.5;" width="136" x="302" y="628"/><line style="stroke:#181818;stroke-width:0.5;" x1="302" x2="438" y1="654.2969" y2="654.2969"/><text fill="#000000" font-family="sans-serif" font-size="14" lengthAdjust="spacing" textLength="59" x="340.5" y="645.9951">Stopped</text><text fill="#000000" font-family="sans-serif" font-size="14" lengthAdjust="spacing" textLength="81" x="307" y="672.292">run onStop,</text><text fill="#000000" font-family="sans-serif" font-size="14" lengthAdjust="spacing" textLength="106" x="307" y="688.5889">parent advised,</text><text fill="#000000" font-family="sans-serif" font-size="14" lengthAdjust="spacing" textLength="116" x="307" y="704.8857">remove this from</text><text fill="#000000" font-family="sans-serif" font-size="14" lengthAdjust="spacing" textLength="99" x="307" y="721.1826">parent, further</text><text fill="#000000" font-family="sans-serif" font-size="14" lengthAdjust="spacing" textLength="107" x="307" y="737.4795">messages sent</text><text fill="#000000" font-family="sans-serif" font-size="14" lengthAdjust="spacing" textLength="101" x="307" y="753.7764">to dead letters</text></g><g id="StoppingNow"><rect fill="#F1F1F1" height="68.8906" rx="12.5" ry="12.5" style="stroke:#181818;stroke-width:0.5;" width="150" x="123" y="498"/><line style="stroke:#181818;stroke-width:0.5;" x1="123" x2="273" y1="524.2969" y2="524.2969"/><text fill="#000000" font-family="sans-serif" font-size="14" lengthAdjust="spacing" textLength="92" x="152" y="515.9951">StoppingNow</text><text fill="#000000" font-family="sans-serif" font-size="14" lengthAdjust="spacing" textLength="130" x="128" y="542.292">ignore non-system</text><text fill="#000000" font-family="sans-serif" font-size="14" lengthAdjust="spacing" textLength="72" x="128" y="558.5889">messages</text></g><g id="Paused"><rect fill="#F1F1F1" height="68.8906" rx="12.5" ry="12.5" style="stroke:#181818;stroke-width:0.5;" width="92" x="251" y="267"/><line style="stroke:#181818;stroke-width:0.5;" x1="251" x2="343" y1="293.2969" y2="293.2969"/><text fill="#000000" font-family="sans-serif" font-size="14" lengthAdjust="spacing" textLength="52" x="271" y="284.9951">Paused</text><text fill="#000000" font-family="sans-serif" font-size="14" lengthAdjust="spacing" textLength="72" x="256" y="311.292">messages</text><text fill="#000000" font-family="sans-serif" font-size="14" lengthAdjust="spacing" textLength="58" x="256" y="327.5889">buffered</text></g><rect fill="#F1F1F1" height="40" rx="12.5" ry="12.5" style="stroke:#181818;stroke-width:0.5;" width="60" x="322" y="397"/><text fill="#000000" font-family="sans-serif" font-size="14" lengthAdjust="spacing" textLength="50" x="327" y="421.8467">Restart</text><ellipse cx="370" cy="833" fill="none" rx="10" ry="10" style="stroke:#222222;stroke-width:1.0;"/><ellipse cx="370.5" cy="833.5" fill="#222222" rx="6" ry="6" style="stroke:none;stroke-width:1.0;"/><g id="Errored"><rect fill="#F1F1F1" height="68.8906" rx="12.5" ry="12.5" style="stroke:#181818;stroke-width:0.5;" width="96" x="249" y="137"/><line style="stroke:#181818;stroke-width:0.5;" x1="249" x2="345" y1="163.2969" y2="163.2969"/><text fill="#000000" font-family="sans-serif" font-size="14" lengthAdjust="spacing" textLength="51" x="271.5" y="154.9951">Errored</text><text fill="#000000" font-family="sans-serif" font-size="14" lengthAdjust="spacing" textLength="76" x="254" y="181.292">handled by</text><text fill="#000000" font-family="sans-serif" font-size="14" lengthAdjust="spacing" textLength="72" x="254" y="197.5889">supervisor</text></g><!--MD5=[0e0ddfccc84b1bd82509cbd130cc9f93]
link *start to Starting--><g id="link_*start_Starting"><path d="M427,427.29 C427,443.11 427,475.94 427,500.56 " fill="none" id="*start-to-Starting" style="stroke:#181818;stroke-width:1.0;"/><polygon fill="#181818" points="427,505.67,431,496.67,427,500.67,423,496.67,427,505.67" style="stroke:#181818;stroke-width:1.0;"/></g><!--MD5=[184f6677789ea29b3d52499e1ada652c]
link Starting to Active--><g id="link_Starting_Active"><path d="M451.18,505.75 C468.94,484.08 490,451.35 490,418 C490,170.5 490,170.5 490,170.5 C490,102.59 405.99,68.57 348.82,53.29 " fill="none" id="Starting-to-Active" style="stroke:#181818;stroke-width:1.0;"/><polygon fill="#181818" points="343.72,51.95,351.4093,58.1043,348.5561,53.2197,353.4407,50.3665,343.72,51.95" style="stroke:#181818;stroke-width:1.0;"/></g><!--MD5=[61cd3e2ef5038971bc38cd1808b9fa98]
link Active to Stopping--><g id="link_Active_Stopping"><path d="M250.25,46.53 C180.16,55.42 56,83.45 56,170.5 C56,170.5 56,170.5 56,533.5 C56,572.02 61.74,615.33 67.07,647.25 " fill="none" id="Active-to-Stopping" style="stroke:#181818;stroke-width:1.0;"/><polygon fill="#181818" points="67.92,652.27,70.3457,642.7245,67.0772,647.3415,62.4601,644.0731,67.92,652.27" style="stroke:#181818;stroke-width:1.0;"/></g><!--MD5=[6ebd39b14f61ad847253a4f08a842b2a]
link Stopping to Stopped--><g id="link_Stopping_Stopped"><path d="M145.3,695 C190.92,695 250.54,695 296.91,695 " fill="none" id="Stopping-to-Stopped" style="stroke:#181818;stroke-width:1.0;"/><polygon fill="#181818" points="301.92,695,292.92,691,296.92,695,292.92,699,301.92,695" style="stroke:#181818;stroke-width:1.0;"/><text fill="#000000" font-family="sans-serif" font-size="13" lengthAdjust="spacing" textLength="120" x="163.5" y="688.0669">allChildrenStopped</text></g><!--MD5=[b2d8787a36492c296bb11f90d670cd83]
link Active to StoppingNow--><g id="link_Active_StoppingNow"><path d="M250.1,55.63 C199.78,72.92 127,108.62 127,170.5 C127,170.5 127,170.5 127,418 C127,446.11 142.85,472.99 159.56,493.53 " fill="none" id="Active-to-StoppingNow" style="stroke:#181818;stroke-width:1.0;"/><polygon fill="#181818" points="162.92,497.55,160.2347,488.0743,159.7205,493.7077,154.087,493.1935,162.92,497.55" style="stroke:#181818;stroke-width:1.0;"/></g><!--MD5=[0b2423b12a24c7ec9e6e7c6341d2bd6f]
link StoppingNow to Stopping--><g id="link_StoppingNow_Stopping"><path d="M172.42,567.15 C154.52,590.7 130.38,622.46 110.73,648.31 " fill="none" id="StoppingNow-to-Stopping" style="stroke:#181818;stroke-width:1.0;"/><polygon fill="#181818" points="107.62,652.4,116.2391,647.6345,110.636,648.412,109.8584,642.8089,107.62,652.4" style="stroke:#181818;stroke-width:1.0;"/></g><!--MD5=[ee2e4313b7ca17c818878f81b1e56335]
link Paused to Restart--><g id="link_Paused_Restart"><path d="M313.35,336.25 C322.02,354.13 332.46,375.68 340.31,391.87 " fill="none" id="Paused-to-Restart" style="stroke:#181818;stroke-width:1.0;"/><polygon fill="#181818" points="342.65,396.72,342.3159,386.8768,340.4655,392.2225,335.1198,390.372,342.65,396.72" style="stroke:#181818;stroke-width:1.0;"/></g><!--MD5=[f408903c227d62484f5a077d990aafac]
link Paused to Active--><g id="link_Paused_Active"><path d="M328.03,266.93 C341.58,249.99 355.97,228.33 363,206 C372.2,176.75 372.2,166.25 363,137 C356.52,116.41 343.79,96.4 331.22,80.13 " fill="none" id="Paused-to-Active" style="stroke:#181818;stroke-width:1.0;"/><polygon fill="#181818" points="328.03,76.07,330.4436,85.6185,331.1185,80.0021,336.7349,80.677,328.03,76.07" style="stroke:#181818;stroke-width:1.0;"/></g><!--MD5=[24db4212cf738d49e969bfe181e0354d]
link Restart to Starting--><g id="link_Restart_Starting"><path d="M364.72,437.25 C376.35,454.85 393.73,481.15 407.18,501.5 " fill="none" id="Restart-to-Starting" style="stroke:#181818;stroke-width:1.0;"/><polygon fill="#181818" points="409.98,505.75,408.3544,496.0362,407.223,501.5788,401.6804,500.4474,409.98,505.75" style="stroke:#181818;stroke-width:1.0;"/></g><!--MD5=[66f2395f0ecce37e10d90c1908952030]
link Paused to StoppingNow--><g id="link_Paused_StoppingNow"><path d="M282.39,336.29 C264.28,378.18 233.49,449.41 214.53,493.26 " fill="none" id="Paused-to-StoppingNow" style="stroke:#181818;stroke-width:1.0;"/><polygon fill="#181818" points="212.51,497.94,219.7494,491.2623,214.4916,493.3495,212.4045,488.0917,212.51,497.94" style="stroke:#181818;stroke-width:1.0;"/></g><!--MD5=[fa4bf149a40dcd4cb096fb2651590497]
link Stopped to *end--><g id="link_Stopped_*end"><path d="M370,762.01 C370,782.85 370,803.95 370,817.45 " fill="none" id="Stopped-to-*end" style="stroke:#181818;stroke-width:1.0;"/><polygon fill="#181818" points="370,822.75,374,813.75,370,817.75,366,813.75,370,822.75" style="stroke:#181818;stroke-width:1.0;"/></g><!--MD5=[a4f285580a437217a8f1a2b7967bb5cc]
link Active to Errored--><g id="link_Active_Errored"><path d="M285.62,76.13 C283.97,93.05 283.81,113.65 285.14,131.28 " fill="none" id="Active-to-Errored" style="stroke:#181818;stroke-width:1.0;"/><polygon fill="#181818" points="285.6,136.65,288.8145,127.3405,285.1718,131.6684,280.8439,128.0256,285.6,136.65" style="stroke:#181818;stroke-width:1.0;"/></g><!--MD5=[93e65af9f97d7e2ba0f8d765816200a9]
link Errored to Active--><g id="link_Errored_Active"><path d="M309.07,136.65 C310.8,119.7 310.96,99.1 309.54,81.49 " fill="none" id="Errored-to-Active" style="stroke:#181818;stroke-width:1.0;"/><polygon fill="#181818" points="309.05,76.13,305.8885,85.4576,309.5065,81.1091,313.8551,84.7272,309.05,76.13" style="stroke:#181818;stroke-width:1.0;"/></g><!--MD5=[5150c944de10bd60b6e400206f03540f]
link Errored to StoppingNow--><g id="link_Errored_StoppingNow"><path d="M268.99,206.3 C256.26,223.46 242.23,245.24 234,267 C205.15,343.27 198.95,439.65 197.9,492.47 " fill="none" id="Errored-to-StoppingNow" style="stroke:#181818;stroke-width:1.0;"/><polygon fill="#181818" points="197.8,497.75,201.9537,488.8199,197.8857,492.7507,193.9549,488.6828,197.8,497.75" style="stroke:#181818;stroke-width:1.0;"/></g><!--MD5=[c392541101ca37fd6181c335e5d43fad]
link Errored to Restart--><g id="link_Errored_Restart"><path d="M327.1,206.22 C340.25,223.19 354.2,244.84 361,267 C374,309.39 365.6,361.68 358.6,391.69 " fill="none" id="Errored-to-Restart" style="stroke:#181818;stroke-width:1.0;"/><polygon fill="#181818" points="357.41,396.67,363.4034,388.8547,358.579,391.8086,355.6251,386.9842,357.41,396.67" style="stroke:#181818;stroke-width:1.0;"/></g><!--MD5=[51fcaaa1e5acff6abaa379b06d6858b9]
link Errored to Paused--><g id="link_Errored_Paused"><path d="M297,206.13 C297,223.05 297,243.65 297,261.28 " fill="none" id="Errored-to-Paused" style="stroke:#181818;stroke-width:1.0;"/><polygon fill="#181818" points="297,266.65,301,257.65,297,261.65,293,257.65,297,266.65" style="stroke:#181818;stroke-width:1.0;"/></g><!--MD5=[1794e55f8c598f856597d4336d13b574]
link Restart to StoppingNow--><g id="link_Restart_StoppingNow"><path d="M331.74,437.01 C321.11,446.67 307.68,458.36 295,468 C282.91,477.19 269.51,486.48 256.64,495.01 " fill="none" id="Restart-to-StoppingNow" style="stroke:#181818;stroke-width:1.0;"/><polygon fill="#181818" points="252.29,497.88,262.0063,496.2696,256.4655,495.1296,257.6056,489.5888,252.29,497.88" style="stroke:#181818;stroke-width:1.0;"/></g><!--MD5=[b5e078439dc4ba33df9c27be5653544a]
@startuml
hide empty description
[*] - -> Starting 
Starting - -> Active
Active - -> Stopping
Stopping -> Stopped: allChildrenStopped
Active - -> StoppingNow
StoppingNow - -> Stopping
Paused - -> Restart
Paused - -> Active
Restart - -> Starting
Paused - -> StoppingNow
Stopped - -> [*]
Active - -> Errored
Errored - -> Active
Errored - -> StoppingNow
Errored - -> Restart
Errored - -> Paused
Restart - -> StoppingNow

Active: processes\nmessages
Stopping: stop children,\nprocess buffered\nmessages
Stopped: run onStop,\nparent advised,\nremove this from\nparent, further\nmessages sent\nto dead letters
Paused: messages\nbuffered
Errored: handled by\nsupervisor
Starting: run preStart
StoppingNow: ignore non-system\nmessages

@enduml

PlantUML version 1.2022.7(Tue Aug 23 03:01:30 AEST 2022)
(GPL source distribution)
Java Runtime: OpenJDK Runtime Environment
JVM: OpenJDK 64-Bit Server VM
Default Encoding: UTF-8
Language: en
Country: AU
--></g></svg>