<?xml version="1.0" encoding="UTF-8" standalone="no"?><svg xmlns="http://www.w3.org/2000/svg" xmlns:xlink="http://www.w3.org/1999/xlink" contentStyleType="text/css" height="726px" preserveAspectRatio="none" style="width:849px;height:726px;background:#FFFFFF;" version="1.1" viewBox="0 0 849 726" width="849px" zoomAndPan="magnify"><defs/><g><ellipse cx="805.5" cy="444.5" fill="#222222" rx="10" ry="10" style="stroke:none;stroke-width:1.0;"/><rect fill="#F1F1F1" height="40" rx="12.5" ry="12.5" style="stroke:#181818;stroke-width:0.5;" width="63" x="774" y="577.5"/><text fill="#000000" font-family="sans-serif" font-size="14" lengthAdjust="spacing" textLength="53" x="779" y="602.3467">Starting</text><g id="Active"><rect fill="#F1F1F1" height="68.8906" rx="12.5" ry="12.5" style="stroke:#181818;stroke-width:0.5;" width="93" x="557" y="7"/><line style="stroke:#181818;stroke-width:0.5;" x1="557" x2="650" y1="33.2969" y2="33.2969"/><text fill="#000000" font-family="sans-serif" font-size="14" lengthAdjust="spacing" textLength="41" x="583" y="24.9951">Active</text><text fill="#000000" font-family="sans-serif" font-size="14" lengthAdjust="spacing" textLength="73" x="562" y="51.292">processes</text><text fill="#000000" font-family="sans-serif" font-size="14" lengthAdjust="spacing" textLength="72" x="562" y="67.5889">messages</text></g><g id="Stopping"><rect fill="#F1F1F1" height="85.1875" rx="12.5" ry="12.5" style="stroke:#181818;stroke-width:0.5;" width="183" x="7" y="402"/><line style="stroke:#181818;stroke-width:0.5;" x1="7" x2="190" y1="428.2969" y2="428.2969"/><text fill="#000000" font-family="sans-serif" font-size="14" lengthAdjust="spacing" textLength="62" x="67.5" y="419.9951">Stopping</text><text fill="#000000" font-family="sans-serif" font-size="14" lengthAdjust="spacing" textLength="144" x="12" y="446.292">stop has been called</text><text fill="#000000" font-family="sans-serif" font-size="14" lengthAdjust="spacing" textLength="163" x="12" y="462.5889">children will be stopped</text><text fill="#000000" font-family="sans-serif" font-size="14" lengthAdjust="spacing" textLength="25" x="12" y="478.8857">first</text></g><g id="Stopped"><rect fill="#F1F1F1" height="101.4844" rx="12.5" ry="12.5" style="stroke:#181818;stroke-width:0.5;" width="185" x="225" y="394"/><line style="stroke:#181818;stroke-width:0.5;" x1="225" x2="410" y1="420.2969" y2="420.2969"/><text fill="#000000" font-family="sans-serif" font-size="14" lengthAdjust="spacing" textLength="59" x="288" y="411.9951">Stopped</text><text fill="#000000" font-family="sans-serif" font-size="14" lengthAdjust="spacing" textLength="139" x="230" y="438.292">onStop method run,</text><text fill="#000000" font-family="sans-serif" font-size="14" lengthAdjust="spacing" textLength="165" x="230" y="454.5889">messages queued after</text><text fill="#000000" font-family="sans-serif" font-size="14" lengthAdjust="spacing" textLength="143" x="230" y="470.8857">this point are sent to</text><text fill="#000000" font-family="sans-serif" font-size="14" lengthAdjust="spacing" textLength="116" x="230" y="487.1826">DeadLetter actor</text></g><g id="Disposed"><rect fill="#F1F1F1" height="85.1875" rx="12.5" ry="12.5" style="stroke:#181818;stroke-width:0.5;" width="131" x="448" y="555"/><line style="stroke:#181818;stroke-width:0.5;" x1="448" x2="579" y1="581.2969" y2="581.2969"/><text fill="#000000" font-family="sans-serif" font-size="14" lengthAdjust="spacing" textLength="66" x="480.5" y="572.9951">Disposed</text><text fill="#000000" font-family="sans-serif" font-size="14" lengthAdjust="spacing" textLength="111" x="453" y="599.292">mailbox cleared,</text><text fill="#000000" font-family="sans-serif" font-size="14" lengthAdjust="spacing" textLength="105" x="453" y="615.5889">new messages</text><text fill="#000000" font-family="sans-serif" font-size="14" lengthAdjust="spacing" textLength="68" x="453" y="631.8857">discarded</text></g><g id="Paused"><rect fill="#F1F1F1" height="68.8906" rx="12.5" ry="12.5" style="stroke:#181818;stroke-width:0.5;" width="92" x="509.5" y="265"/><line style="stroke:#181818;stroke-width:0.5;" x1="509.5" x2="601.5" y1="291.2969" y2="291.2969"/><text fill="#000000" font-family="sans-serif" font-size="14" lengthAdjust="spacing" textLength="52" x="529.5" y="282.9951">Paused</text><text fill="#000000" font-family="sans-serif" font-size="14" lengthAdjust="spacing" textLength="72" x="514.5" y="309.292">messages</text><text fill="#000000" font-family="sans-serif" font-size="14" lengthAdjust="spacing" textLength="58" x="514.5" y="325.5889">buffered</text></g><g id="Restart"><rect fill="#F1F1F1" height="52.5938" rx="12.5" ry="12.5" style="stroke:#181818;stroke-width:0.5;" width="70" x="690.5" y="418"/><line style="stroke:#181818;stroke-width:0.5;" x1="690.5" x2="760.5" y1="444.2969" y2="444.2969"/><text fill="#000000" font-family="sans-serif" font-size="14" lengthAdjust="spacing" textLength="50" x="700.5" y="435.9951">Restart</text><text fill="#000000" font-family="sans-serif" font-size="14" lengthAdjust="spacing" textLength="4" x="695.5" y="462.292"> </text></g><ellipse cx="513.5" cy="710" fill="none" rx="10" ry="10" style="stroke:#222222;stroke-width:1.0;"/><ellipse cx="514" cy="710.5" fill="#222222" rx="6" ry="6" style="stroke:none;stroke-width:1.0;"/><g id="Errored"><rect fill="#F1F1F1" height="68.8906" rx="12.5" ry="12.5" style="stroke:#181818;stroke-width:0.5;" width="96" x="606.5" y="136"/><line style="stroke:#181818;stroke-width:0.5;" x1="606.5" x2="702.5" y1="162.2969" y2="162.2969"/><text fill="#000000" font-family="sans-serif" font-size="14" lengthAdjust="spacing" textLength="51" x="629" y="153.9951">Errored</text><text fill="#000000" font-family="sans-serif" font-size="14" lengthAdjust="spacing" textLength="76" x="611.5" y="180.292">handled by</text><text fill="#000000" font-family="sans-serif" font-size="14" lengthAdjust="spacing" textLength="72" x="611.5" y="196.5889">supervisor</text></g><!--MD5=[0e0ddfccc84b1bd82509cbd130cc9f93]
link *start to Starting--><g id="link_*start_Starting"><path d="M805.5,454.95 C805.5,478.05 805.5,538.01 805.5,572.02 " fill="none" id="*start-to-Starting" style="stroke:#181818;stroke-width:1.0;"/><polygon fill="#181818" points="805.5,577.24,809.5,568.24,805.5,572.24,801.5,568.24,805.5,577.24" style="stroke:#181818;stroke-width:1.0;"/></g><!--MD5=[184f6677789ea29b3d52499e1ada652c]
link Starting to Active--><g id="link_Starting_Active"><path d="M812.45,577.36 C819.37,557.2 829.53,524.35 833.5,495 C839.52,450.52 842.7,437.94 833.5,394 C807.84,271.47 796.73,235.3 720.5,136 C702.32,112.31 676.9,91.06 654.4,74.82 " fill="none" id="Starting-to-Active" style="stroke:#181818;stroke-width:1.0;"/><polygon fill="#181818" points="650.23,71.85,655.2399,80.3294,654.3025,74.7508,659.8812,73.8134,650.23,71.85" style="stroke:#181818;stroke-width:1.0;"/></g><!--MD5=[61cd3e2ef5038971bc38cd1808b9fa98]
link Active to Stopping--><g id="link_Active_Stopping"><path d="M556.83,63.74 C520.91,81.01 470.75,107.18 430.5,136 C316.66,217.49 200.44,334.53 140.31,398.14 " fill="none" id="Active-to-Stopping" style="stroke:#181818;stroke-width:1.0;"/><polygon fill="#181818" points="136.78,401.88,145.8611,398.0677,140.2068,398.239,140.0355,392.5847,136.78,401.88" style="stroke:#181818;stroke-width:1.0;"/></g><!--MD5=[6ebd39b14f61ad847253a4f08a842b2a]
link Stopping to Stopped--><g id="link_Stopping_Stopped"><path d="M190.04,444.5 C199.93,444.5 209.82,444.5 219.72,444.5 " fill="none" id="Stopping-to-Stopped" style="stroke:#181818;stroke-width:1.0;"/><polygon fill="#181818" points="224.89,444.5,215.89,440.5,219.89,444.5,215.89,448.5,224.89,444.5" style="stroke:#181818;stroke-width:1.0;"/></g><!--MD5=[89983ec93145a14d0e1aca2f64ebde07]
link Active to Disposed--><g id="link_Active_Disposed"><path d="M580.51,76.04 C553.27,118.01 509.43,193.15 492.5,265 C469.08,364.43 488.12,484.97 502.08,549.81 " fill="none" id="Active-to-Disposed" style="stroke:#181818;stroke-width:1.0;"/><polygon fill="#181818" points="503.16,554.76,505.1393,545.1121,502.089,549.8761,497.325,546.8257,503.16,554.76" style="stroke:#181818;stroke-width:1.0;"/></g><!--MD5=[f766fb3811e05548a81a20ae084d0c28]
link Stopping to Disposed--><g id="link_Stopping_Disposed"><path d="M188,487.05 C194.56,489.82 201.11,492.5 207.5,495 C286.99,526.13 380.39,556.2 442.9,575.42 " fill="none" id="Stopping-to-Disposed" style="stroke:#181818;stroke-width:1.0;"/><polygon fill="#181818" points="447.72,576.9,440.2807,570.4458,442.938,575.4396,437.9441,578.0969,447.72,576.9" style="stroke:#181818;stroke-width:1.0;"/></g><!--MD5=[be463e28f87732a8a027707224b24a2d]
link Stopped to Disposed--><g id="link_Stopped_Disposed"><path d="M381.95,495.15 C405.68,513.44 432.4,534.02 455.52,551.83 " fill="none" id="Stopped-to-Disposed" style="stroke:#181818;stroke-width:1.0;"/><polygon fill="#181818" points="459.5,554.9,454.8233,546.2323,455.5433,551.8432,449.9324,552.5631,459.5,554.9" style="stroke:#181818;stroke-width:1.0;"/></g><!--MD5=[ee2e4313b7ca17c818878f81b1e56335]
link Paused to Restart--><g id="link_Paused_Restart"><path d="M595.36,334.03 C624.35,358.42 663.23,391.12 690.92,414.41 " fill="none" id="Paused-to-Restart" style="stroke:#181818;stroke-width:1.0;"/><polygon fill="#181818" points="694.92,417.78,690.5991,408.9296,691.0906,414.565,685.4552,415.0566,694.92,417.78" style="stroke:#181818;stroke-width:1.0;"/></g><!--MD5=[f408903c227d62484f5a077d990aafac]
link Paused to Active--><g id="link_Paused_Active"><path d="M561.84,264.69 C570.73,217.27 586.87,131.2 596.23,81.25 " fill="none" id="Paused-to-Active" style="stroke:#181818;stroke-width:1.0;"/><polygon fill="#181818" points="597.18,76.23,591.5785,84.3308,596.2517,81.1431,599.4394,85.8162,597.18,76.23" style="stroke:#181818;stroke-width:1.0;"/></g><!--MD5=[24db4212cf738d49e969bfe181e0354d]
link Restart to Starting--><g id="link_Restart_Starting"><path d="M739.07,471.12 C754.16,499.59 778.32,545.2 792.97,572.86 " fill="none" id="Restart-to-Starting" style="stroke:#181818;stroke-width:1.0;"/><polygon fill="#181818" points="795.42,577.47,794.7339,567.6451,793.076,573.0535,787.6675,571.3955,795.42,577.47" style="stroke:#181818;stroke-width:1.0;"/></g><!--MD5=[706b2b379d563e8e64b0e56a472dc7c7]
link Paused to Disposed--><g id="link_Paused_Disposed"><path d="M550.72,334.17 C543.22,387.08 528.63,489.84 520.12,549.84 " fill="none" id="Paused-to-Disposed" style="stroke:#181818;stroke-width:1.0;"/><polygon fill="#181818" points="519.42,554.8,524.6425,546.4498,520.1211,549.8494,516.7215,545.328,519.42,554.8" style="stroke:#181818;stroke-width:1.0;"/></g><!--MD5=[6c13822630c1a6470ec8d02f6189e873]
link Disposed to *end--><g id="link_Disposed_*end"><path d="M513.5,640.28 C513.5,659.48 513.5,681 513.5,694.76 " fill="none" id="Disposed-to-*end" style="stroke:#181818;stroke-width:1.0;"/><polygon fill="#181818" points="513.5,699.81,517.5,690.81,513.5,694.81,509.5,690.81,513.5,699.81" style="stroke:#181818;stroke-width:1.0;"/></g><!--MD5=[a4f285580a437217a8f1a2b7967bb5cc]
link Active to Errored--><g id="link_Active_Errored"><path d="M605.62,76.2 C610.74,92.99 618.78,113.38 627.12,130.81 " fill="none" id="Active-to-Errored" style="stroke:#181818;stroke-width:1.0;"/><polygon fill="#181818" points="629.48,135.64,629.1206,125.7977,627.2839,131.1481,621.9336,129.3114,629.48,135.64" style="stroke:#181818;stroke-width:1.0;"/></g><!--MD5=[93e65af9f97d7e2ba0f8d765816200a9]
link Errored to Active--><g id="link_Errored_Active"><path d="M653,135.64 C647.96,118.83 639.92,98.44 631.5,81.03 " fill="none" id="Errored-to-Active" style="stroke:#181818;stroke-width:1.0;"/><polygon fill="#181818" points="629.11,76.2,629.5069,86.0409,631.3232,80.6835,636.6805,82.4997,629.11,76.2" style="stroke:#181818;stroke-width:1.0;"/></g><!--MD5=[75e310440133ab82b82678a330fd02b3]
link Errored to Disposed--><g id="link_Errored_Disposed"><path d="M648.67,205.14 C642.6,238.24 632.22,290.06 619.5,334 C598.31,407.21 589.65,424.59 560.5,495 C552.96,513.2 544.02,532.92 535.97,550.09 " fill="none" id="Errored-to-Disposed" style="stroke:#181818;stroke-width:1.0;"/><polygon fill="#181818" points="533.72,554.87,541.1764,548.4355,535.8524,550.3475,533.9404,545.0236,533.72,554.87" style="stroke:#181818;stroke-width:1.0;"/></g><!--MD5=[c392541101ca37fd6181c335e5d43fad]
link Errored to Restart--><g id="link_Errored_Restart"><path d="M664.08,205.2 C669.08,222.96 675.23,245.13 680.5,265 C694.2,316.67 709.21,377.03 717.97,412.66 " fill="none" id="Errored-to-Restart" style="stroke:#181818;stroke-width:1.0;"/><polygon fill="#181818" points="719.21,417.73,720.9615,408.0381,718.0242,412.8726,713.1897,409.9354,719.21,417.73" style="stroke:#181818;stroke-width:1.0;"/></g><!--MD5=[51fcaaa1e5acff6abaa379b06d6858b9]
link Errored to Paused--><g id="link_Errored_Paused"><path d="M628.23,205.2 C615.03,222.14 598.97,242.73 585.31,260.26 " fill="none" id="Errored-to-Paused" style="stroke:#181818;stroke-width:1.0;"/><polygon fill="#181818" points="581.89,264.64,590.5764,259.9981,584.9627,260.6955,584.2652,255.0819,581.89,264.64" style="stroke:#181818;stroke-width:1.0;"/></g><!--MD5=[dd875d87b06a24a7d80b7b2566de5841]
link Restart to Disposed--><g id="link_Restart_Disposed"><path d="M694.33,471.17 C684.58,478.99 673.71,487.49 663.5,495 C637.28,514.29 607.74,534.57 581.86,551.9 " fill="none" id="Restart-to-Disposed" style="stroke:#181818;stroke-width:1.0;"/><polygon fill="#181818" points="577.4,554.87,587.1073,553.2059,581.5603,552.0965,582.6697,546.5495,577.4,554.87" style="stroke:#181818;stroke-width:1.0;"/></g><!--MD5=[2dc094880a9ee2c862617067b4ebebd6]
@startuml
hide empty description
[*] - -> Starting 
Starting - -> Active
Active - -> Stopping
Stopping -> Stopped
Active - -> Disposed
Stopping - -> Disposed
Stopped - -> Disposed
Paused - -> Restart
Paused - -> Active
Restart - -> Starting
Paused - -> Disposed
Disposed - -> [*]
Active - -> Errored
Errored - -> Active
Errored - -> Disposed
Errored - -> Restart
Errored - -> Paused
Restart - -> Disposed

Active: processes\nmessages
Stopping: stop has been called\nchildren will be stopped\nfirst
Stopped: onStop method run,\nmessages queued after\nthis point are sent to\nDeadLetter actor
Paused: messages\nbuffered
Disposed: mailbox cleared,\nnew messages\ndiscarded
Errored: handled by\nsupervisor
Restart: 

@enduml

PlantUML version 1.2022.7(Tue Aug 23 03:01:30 AEST 2022)
(GPL source distribution)
Java Runtime: OpenJDK Runtime Environment
JVM: OpenJDK 64-Bit Server VM
Default Encoding: UTF-8
Language: en
Country: AU
--></g></svg>