<?xml version="1.0" encoding="UTF-8" standalone="no"?><svg xmlns="http://www.w3.org/2000/svg" xmlns:xlink="http://www.w3.org/1999/xlink" contentStyleType="text/css" height="815px" preserveAspectRatio="none" style="width:491px;height:815px;background:#FFFFFF;" version="1.1" viewBox="0 0 491 815" width="491px" zoomAndPan="magnify"><defs/><g><ellipse cx="421.5" cy="402" fill="#222222" rx="10" ry="10" style="stroke:none;stroke-width:1.0;"/><g id="Starting"><rect fill="#F1F1F1" height="50.2656" rx="12.5" ry="12.5" style="stroke:#181818;stroke-width:0.5;" width="97" x="373" y="490"/><line style="stroke:#181818;stroke-width:0.5;" x1="373" x2="470" y1="516.2969" y2="516.2969"/><text fill="#000000" font-family="sans-serif" font-size="14" lengthAdjust="spacing" textLength="53" x="395" y="507.9951">Starting</text><text fill="#000000" font-family="sans-serif" font-size="12" lengthAdjust="spacing" textLength="77" x="378" y="532.4355">run preStart</text></g><g id="Active"><rect fill="#F1F1F1" height="64.2344" rx="12.5" ry="12.5" style="stroke:#181818;stroke-width:0.5;" width="85" x="245" y="7"/><line style="stroke:#181818;stroke-width:0.5;" x1="245" x2="330" y1="33.2969" y2="33.2969"/><text fill="#000000" font-family="sans-serif" font-size="14" lengthAdjust="spacing" textLength="41" x="267" y="24.9951">Active</text><text fill="#000000" font-family="sans-serif" font-size="12" lengthAdjust="spacing" textLength="65" x="250" y="49.4355">processes</text><text fill="#000000" font-family="sans-serif" font-size="12" lengthAdjust="spacing" textLength="64" x="250" y="63.4043">messages</text></g><g id="Stopping"><rect fill="#F1F1F1" height="78.2031" rx="12.5" ry="12.5" style="stroke:#181818;stroke-width:0.5;" width="127" x="7" y="629"/><line style="stroke:#181818;stroke-width:0.5;" x1="7" x2="134" y1="655.2969" y2="655.2969"/><text fill="#000000" font-family="sans-serif" font-size="14" lengthAdjust="spacing" textLength="62" x="39.5" y="646.9951">Stopping</text><text fill="#000000" font-family="sans-serif" font-size="12" lengthAdjust="spacing" textLength="86" x="12" y="671.4355">stop children,</text><text fill="#000000" font-family="sans-serif" font-size="12" lengthAdjust="spacing" textLength="107" x="12" y="685.4043">process buffered</text><text fill="#000000" font-family="sans-serif" font-size="12" lengthAdjust="spacing" textLength="64" x="12" y="699.373">messages</text></g><g id="Stopped"><rect fill="#F1F1F1" height="120.1094" rx="12.5" ry="12.5" style="stroke:#181818;stroke-width:0.5;" width="125" x="291" y="608"/><line style="stroke:#181818;stroke-width:0.5;" x1="291" x2="416" y1="634.2969" y2="634.2969"/><text fill="#000000" font-family="sans-serif" font-size="14" lengthAdjust="spacing" textLength="59" x="324" y="625.9951">Stopped</text><text fill="#000000" font-family="sans-serif" font-size="12" lengthAdjust="spacing" textLength="74" x="296" y="650.4355">run onStop,</text><text fill="#000000" font-family="sans-serif" font-size="12" lengthAdjust="spacing" textLength="98" x="296" y="664.4043">parent advised,</text><text fill="#000000" font-family="sans-serif" font-size="12" lengthAdjust="spacing" textLength="105" x="296" y="678.373">remove this from</text><text fill="#000000" font-family="sans-serif" font-size="12" lengthAdjust="spacing" textLength="93" x="296" y="692.3418">parent, further</text><text fill="#000000" font-family="sans-serif" font-size="12" lengthAdjust="spacing" textLength="96" x="296" y="706.3105">messages sent</text><text fill="#000000" font-family="sans-serif" font-size="12" lengthAdjust="spacing" textLength="94" x="296" y="720.2793">to dead letters</text></g><g id="StoppingNow"><rect fill="#F1F1F1" height="64.2344" rx="12.5" ry="12.5" style="stroke:#181818;stroke-width:0.5;" width="136" x="124.5" y="483"/><line style="stroke:#181818;stroke-width:0.5;" x1="124.5" x2="260.5" y1="509.2969" y2="509.2969"/><text fill="#000000" font-family="sans-serif" font-size="14" lengthAdjust="spacing" textLength="92" x="146.5" y="500.9951">StoppingNow</text><text fill="#000000" font-family="sans-serif" font-size="12" lengthAdjust="spacing" textLength="116" x="129.5" y="525.4355">ignore non-system</text><text fill="#000000" font-family="sans-serif" font-size="12" lengthAdjust="spacing" textLength="64" x="129.5" y="539.4043">messages</text></g><g id="Paused"><rect fill="#F1F1F1" height="64.2344" rx="12.5" ry="12.5" style="stroke:#181818;stroke-width:0.5;" width="84" x="245.5" y="257"/><line style="stroke:#181818;stroke-width:0.5;" x1="245.5" x2="329.5" y1="283.2969" y2="283.2969"/><text fill="#000000" font-family="sans-serif" font-size="14" lengthAdjust="spacing" textLength="52" x="261.5" y="274.9951">Paused</text><text fill="#000000" font-family="sans-serif" font-size="12" lengthAdjust="spacing" textLength="64" x="250.5" y="299.4355">messages</text><text fill="#000000" font-family="sans-serif" font-size="12" lengthAdjust="spacing" textLength="53" x="250.5" y="313.4043">buffered</text></g><rect fill="#F1F1F1" height="40" rx="12.5" ry="12.5" style="stroke:#181818;stroke-width:0.5;" width="60" x="316.5" y="382"/><text fill="#000000" font-family="sans-serif" font-size="14" lengthAdjust="spacing" textLength="50" x="321.5" y="406.8467">Restart</text><ellipse cx="353.5" cy="799" fill="none" rx="10" ry="10" style="stroke:#222222;stroke-width:1.0;"/><ellipse cx="354" cy="799.5" fill="#222222" rx="6" ry="6" style="stroke:none;stroke-width:1.0;"/><g id="Errored"><rect fill="#F1F1F1" height="64.2344" rx="12.5" ry="12.5" style="stroke:#181818;stroke-width:0.5;" width="89" x="243" y="132"/><line style="stroke:#181818;stroke-width:0.5;" x1="243" x2="332" y1="158.2969" y2="158.2969"/><text fill="#000000" font-family="sans-serif" font-size="14" lengthAdjust="spacing" textLength="51" x="262" y="149.9951">Errored</text><text fill="#000000" font-family="sans-serif" font-size="12" lengthAdjust="spacing" textLength="69" x="248" y="174.4355">handled by</text><text fill="#000000" font-family="sans-serif" font-size="12" lengthAdjust="spacing" textLength="65" x="248" y="188.4043">supervisor</text></g><!--MD5=[0e0ddfccc84b1bd82509cbd130cc9f93]
link *start to Starting--><g id="link_*start_Starting"><path d="M421.5,412.08 C421.5,427.75 421.5,460.47 421.5,484.64 " fill="none" id="*start-to-Starting" style="stroke:#181818;stroke-width:1.0;"/><polygon fill="#181818" points="421.5,489.65,425.5,480.65,421.5,484.65,417.5,480.65,421.5,489.65" style="stroke:#181818;stroke-width:1.0;"/></g><!--MD5=[184f6677789ea29b3d52499e1ada652c]
link Starting to Active--><g id="link_Starting_Active"><path d="M444.96,489.76 C462.87,468.63 484.5,436.24 484.5,403 C484.5,163 484.5,163 484.5,163 C484.5,92.94 393.75,61.32 335.43,48.24 " fill="none" id="Starting-to-Active" style="stroke:#181818;stroke-width:1.0;"/><polygon fill="#181818" points="330.25,47.1,338.2005,52.9129,335.1369,48.1574,339.8924,45.0938,330.25,47.1" style="stroke:#181818;stroke-width:1.0;"/></g><!--MD5=[61cd3e2ef5038971bc38cd1808b9fa98]
link Active to Stopping--><g id="link_Active_Stopping"><path d="M244.86,43.13 C176.62,50.71 50.5,76.43 50.5,163 C50.5,163 50.5,163 50.5,516 C50.5,552.5 56.31,593.53 61.67,623.6 " fill="none" id="Active-to-Stopping" style="stroke:#181818;stroke-width:1.0;"/><polygon fill="#181818" points="62.6,628.71,64.9182,619.1379,61.7018,623.7913,57.0483,620.575,62.6,628.71" style="stroke:#181818;stroke-width:1.0;"/></g><!--MD5=[6ebd39b14f61ad847253a4f08a842b2a]
link Stopping to Stopped--><g id="link_Stopping_Stopped"><path d="M134.01,668 C179.05,668 239.41,668 285.43,668 " fill="none" id="Stopping-to-Stopped" style="stroke:#181818;stroke-width:1.0;"/><polygon fill="#181818" points="290.69,668,281.69,664,285.69,668,281.69,672,290.69,668" style="stroke:#181818;stroke-width:1.0;"/><text fill="#000000" font-family="sans-serif" font-size="13" lengthAdjust="spacing" textLength="120" x="152.5" y="661.0669">allChildrenStopped</text></g><!--MD5=[b2d8787a36492c296bb11f90d670cd83]
link Active to StoppingNow--><g id="link_Active_StoppingNow"><path d="M244.75,51.39 C195.57,67.39 121.5,101.66 121.5,163 C121.5,163 121.5,163 121.5,403 C121.5,431.52 138.34,458.59 155.62,478.86 " fill="none" id="Active-to-StoppingNow" style="stroke:#181818;stroke-width:1.0;"/><polygon fill="#181818" points="159.08,482.82,156.184,473.4065,155.7956,479.05,150.1521,478.6616,159.08,482.82" style="stroke:#181818;stroke-width:1.0;"/></g><!--MD5=[0b2423b12a24c7ec9e6e7c6341d2bd6f]
link StoppingNow to Stopping--><g id="link_StoppingNow_Stopping"><path d="M167.22,547.29 C149.07,569.75 124.4,600.29 104.52,624.89 " fill="none" id="StoppingNow-to-Stopping" style="stroke:#181818;stroke-width:1.0;"/><polygon fill="#181818" points="101.37,628.79,110.1318,624.2922,104.5074,624.8968,103.9027,619.2724,101.37,628.79" style="stroke:#181818;stroke-width:1.0;"/></g><!--MD5=[ee2e4313b7ca17c818878f81b1e56335]
link Paused to Restart--><g id="link_Paused_Restart"><path d="M304.09,321.22 C313.56,339.03 325.24,361.01 333.95,377.39 " fill="none" id="Paused-to-Restart" style="stroke:#181818;stroke-width:1.0;"/><polygon fill="#181818" points="336.32,381.85,335.6339,372.0251,333.976,377.4335,328.5675,375.7755,336.32,381.85" style="stroke:#181818;stroke-width:1.0;"/></g><!--MD5=[f408903c227d62484f5a077d990aafac]
link Paused to Active--><g id="link_Paused_Active"><path d="M315.36,256.83 C328.47,240.06 342.69,218.29 349.5,196 C357.81,168.8 357.22,159.38 349.5,132 C343.67,111.32 331.15,91.2 318.87,75.07 " fill="none" id="Paused-to-Active" style="stroke:#181818;stroke-width:1.0;"/><polygon fill="#181818" points="315.76,71.06,318.0969,80.6276,318.8168,75.0167,324.4277,75.7367,315.76,71.06" style="stroke:#181818;stroke-width:1.0;"/></g><!--MD5=[24db4212cf738d49e969bfe181e0354d]
link Restart to Starting--><g id="link_Restart_Starting"><path d="M359.39,422.08 C371.2,439.56 388.84,465.66 402.3,485.59 " fill="none" id="Restart-to-Starting" style="stroke:#181818;stroke-width:1.0;"/><polygon fill="#181818" points="405.11,489.74,403.3844,480.0435,402.3102,485.5974,396.7563,484.5232,405.11,489.74" style="stroke:#181818;stroke-width:1.0;"/></g><!--MD5=[66f2395f0ecce37e10d90c1908952030]
link Paused to StoppingNow--><g id="link_Paused_StoppingNow"><path d="M274.3,321.26 C260.42,354.08 237.96,407.18 218.5,453 C215.07,461.07 211.38,469.74 207.89,477.94 " fill="none" id="Paused-to-StoppingNow" style="stroke:#181818;stroke-width:1.0;"/><polygon fill="#181818" points="205.74,482.97,212.9442,476.2544,207.6975,478.3691,205.5828,473.1224,205.74,482.97" style="stroke:#181818;stroke-width:1.0;"/></g><!--MD5=[fa4bf149a40dcd4cb096fb2651590497]
link Stopped to *end--><g id="link_Stopped_*end"><path d="M353.5,728.21 C353.5,748.61 353.5,769.72 353.5,783.31 " fill="none" id="Stopped-to-*end" style="stroke:#181818;stroke-width:1.0;"/><polygon fill="#181818" points="353.5,788.64,357.5,779.64,353.5,783.64,349.5,779.64,353.5,788.64" style="stroke:#181818;stroke-width:1.0;"/></g><!--MD5=[a4f285580a437217a8f1a2b7967bb5cc]
link Active to Errored--><g id="link_Active_Errored"><path d="M276.26,71.04 C274.44,87.94 274.27,108.94 275.75,126.6 " fill="none" id="Active-to-Errored" style="stroke:#181818;stroke-width:1.0;"/><polygon fill="#181818" points="276.26,131.97,279.3925,122.6326,275.788,126.9923,271.4282,123.3878,276.26,131.97" style="stroke:#181818;stroke-width:1.0;"/></g><!--MD5=[93e65af9f97d7e2ba0f8d765816200a9]
link Errored to Active--><g id="link_Errored_Active"><path d="M299.4,131.97 C301.33,115.08 301.51,94.07 299.95,76.41 " fill="none" id="Errored-to-Active" style="stroke:#181818;stroke-width:1.0;"/><polygon fill="#181818" points="299.4,71.04,296.3207,80.3951,299.9003,76.0149,304.2806,79.5945,299.4,71.04" style="stroke:#181818;stroke-width:1.0;"/></g><!--MD5=[5150c944de10bd60b6e400206f03540f]
link Errored to StoppingNow--><g id="link_Errored_StoppingNow"><path d="M262.54,196.39 C250.32,213.38 236.54,235.29 228.5,257 C200.66,332.16 194.13,426.96 192.73,477.81 " fill="none" id="Errored-to-StoppingNow" style="stroke:#181818;stroke-width:1.0;"/><polygon fill="#181818" points="192.61,482.9,196.84,474.0058,192.7385,477.9017,188.8427,473.8002,192.61,482.9" style="stroke:#181818;stroke-width:1.0;"/></g><!--MD5=[c392541101ca37fd6181c335e5d43fad]
link Errored to Restart--><g id="link_Errored_Restart"><path d="M314.47,196.32 C327.16,213.12 340.93,234.88 347.5,257 C359.57,297.61 355.22,347.55 350.9,376.68 " fill="none" id="Errored-to-Restart" style="stroke:#181818;stroke-width:1.0;"/><polygon fill="#181818" points="350.1,381.87,355.4166,373.5794,350.8571,376.9276,347.5088,372.3681,350.1,381.87" style="stroke:#181818;stroke-width:1.0;"/></g><!--MD5=[51fcaaa1e5acff6abaa379b06d6858b9]
link Errored to Paused--><g id="link_Errored_Paused"><path d="M287.5,196.04 C287.5,212.94 287.5,233.94 287.5,251.6 " fill="none" id="Errored-to-Paused" style="stroke:#181818;stroke-width:1.0;"/><polygon fill="#181818" points="287.5,256.97,291.5,247.97,287.5,251.97,283.5,247.97,287.5,256.97" style="stroke:#181818;stroke-width:1.0;"/></g><!--MD5=[1794e55f8c598f856597d4336d13b574]
link Restart to StoppingNow--><g id="link_Restart_StoppingNow"><path d="M326.32,422.11 C315.7,431.79 302.27,443.48 289.5,453 C277.03,462.3 263.14,471.6 249.85,480.04 " fill="none" id="Restart-to-StoppingNow" style="stroke:#181818;stroke-width:1.0;"/><polygon fill="#181818" points="245.37,482.87,255.1152,481.4448,249.5971,480.1995,250.8424,474.6814,245.37,482.87" style="stroke:#181818;stroke-width:1.0;"/></g><!--MD5=[cfeb3f38e5737ddccb249cc1b6fa744b]
@startuml
hide empty description
[*] - -> Starting 
Starting - -> Active
Active - -> Stopping
Stopping -> Stopped: allChildrenStopped
Active - -> StoppingNow
StoppingNow - -> Stopping
Paused - -> Restart
Paused - -> Active
Restart - -> Starting
Paused - -> StoppingNow
Stopped - -> [*]
Active - -> Errored
Errored - -> Active
Errored - -> StoppingNow
Errored - -> Restart
Errored - -> Paused
Restart - -> StoppingNow

Active: processes\nmessages
Stopping: stop children,\nprocess buffered\nmessages
Stopped: run onStop,\nparent advised,\nremove this from\nparent, further\nmessages sent\nto dead letters
Paused: messages\nbuffered
Errored: handled by\nsupervisor
Starting: run preStart
StoppingNow: ignore non-system\nmessages

@enduml

PlantUML version 1.2022.8(Sun Sep 25 19:00:33 AEST 2022)
(GPL source distribution)
Java Runtime: OpenJDK Runtime Environment
JVM: OpenJDK 64-Bit Server VM
Default Encoding: UTF-8
Language: en
Country: AU
--></g></svg>