<?xml version="1.0" encoding="UTF-8" standalone="no"?><svg xmlns="http://www.w3.org/2000/svg" xmlns:xlink="http://www.w3.org/1999/xlink" contentStyleType="text/css" height="743px" preserveAspectRatio="none" style="width:887px;height:743px;background:#FFFFFF;" version="1.1" viewBox="0 0 887 743" width="887px" zoomAndPan="magnify"><defs/><g><ellipse cx="800.5" cy="453" fill="#222222" rx="10" ry="10" style="stroke:none;stroke-width:1.0;"/><g id="Starting"><rect fill="#F1F1F1" height="52.5938" rx="12.5" ry="12.5" style="stroke:#181818;stroke-width:0.5;" width="160" x="720.5" y="588"/><line style="stroke:#181818;stroke-width:0.5;" x1="720.5" x2="880.5" y1="614.2969" y2="614.2969"/><text fill="#000000" font-family="sans-serif" font-size="14" lengthAdjust="spacing" textLength="53" x="774" y="605.9951">Starting</text><text fill="#000000" font-family="sans-serif" font-size="14" lengthAdjust="spacing" textLength="140" x="725.5" y="632.292">preStart method run</text></g><g id="Active"><rect fill="#F1F1F1" height="68.8906" rx="12.5" ry="12.5" style="stroke:#181818;stroke-width:0.5;" width="93" x="557" y="7"/><line style="stroke:#181818;stroke-width:0.5;" x1="557" x2="650" y1="33.2969" y2="33.2969"/><text fill="#000000" font-family="sans-serif" font-size="14" lengthAdjust="spacing" textLength="41" x="583" y="24.9951">Active</text><text fill="#000000" font-family="sans-serif" font-size="14" lengthAdjust="spacing" textLength="73" x="562" y="51.292">processes</text><text fill="#000000" font-family="sans-serif" font-size="14" lengthAdjust="spacing" textLength="72" x="562" y="67.5889">messages</text></g><g id="Stopping"><rect fill="#F1F1F1" height="85.1875" rx="12.5" ry="12.5" style="stroke:#181818;stroke-width:0.5;" width="183" x="7" y="410.5"/><line style="stroke:#181818;stroke-width:0.5;" x1="7" x2="190" y1="436.7969" y2="436.7969"/><text fill="#000000" font-family="sans-serif" font-size="14" lengthAdjust="spacing" textLength="62" x="67.5" y="428.4951">Stopping</text><text fill="#000000" font-family="sans-serif" font-size="14" lengthAdjust="spacing" textLength="144" x="12" y="454.792">stop has been called</text><text fill="#000000" font-family="sans-serif" font-size="14" lengthAdjust="spacing" textLength="163" x="12" y="471.0889">children will be stopped</text><text fill="#000000" font-family="sans-serif" font-size="14" lengthAdjust="spacing" textLength="25" x="12" y="487.3857">first</text></g><g id="Stopped"><rect fill="#F1F1F1" height="117.7813" rx="12.5" ry="12.5" style="stroke:#181818;stroke-width:0.5;" width="185" x="225" y="394"/><line style="stroke:#181818;stroke-width:0.5;" x1="225" x2="410" y1="420.2969" y2="420.2969"/><text fill="#000000" font-family="sans-serif" font-size="14" lengthAdjust="spacing" textLength="59" x="288" y="411.9951">Stopped</text><text fill="#000000" font-family="sans-serif" font-size="14" lengthAdjust="spacing" textLength="139" x="230" y="438.292">onStop method run,</text><text fill="#000000" font-family="sans-serif" font-size="14" lengthAdjust="spacing" textLength="106" x="230" y="454.5889">parent advised,</text><text fill="#000000" font-family="sans-serif" font-size="14" lengthAdjust="spacing" textLength="165" x="230" y="470.8857">messages queued after</text><text fill="#000000" font-family="sans-serif" font-size="14" lengthAdjust="spacing" textLength="143" x="230" y="487.1826">this point are sent to</text><text fill="#000000" font-family="sans-serif" font-size="14" lengthAdjust="spacing" textLength="116" x="230" y="503.4795">DeadLetter actor</text></g><g id="Disposed"><rect fill="#F1F1F1" height="85.1875" rx="12.5" ry="12.5" style="stroke:#181818;stroke-width:0.5;" width="131" x="441" y="572"/><line style="stroke:#181818;stroke-width:0.5;" x1="441" x2="572" y1="598.2969" y2="598.2969"/><text fill="#000000" font-family="sans-serif" font-size="14" lengthAdjust="spacing" textLength="66" x="473.5" y="589.9951">Disposed</text><text fill="#000000" font-family="sans-serif" font-size="14" lengthAdjust="spacing" textLength="111" x="446" y="616.292">mailbox cleared,</text><text fill="#000000" font-family="sans-serif" font-size="14" lengthAdjust="spacing" textLength="105" x="446" y="632.5889">new messages</text><text fill="#000000" font-family="sans-serif" font-size="14" lengthAdjust="spacing" textLength="68" x="446" y="648.8857">discarded</text></g><g id="Paused"><rect fill="#F1F1F1" height="68.8906" rx="12.5" ry="12.5" style="stroke:#181818;stroke-width:0.5;" width="92" x="509.5" y="265"/><line style="stroke:#181818;stroke-width:0.5;" x1="509.5" x2="601.5" y1="291.2969" y2="291.2969"/><text fill="#000000" font-family="sans-serif" font-size="14" lengthAdjust="spacing" textLength="52" x="529.5" y="282.9951">Paused</text><text fill="#000000" font-family="sans-serif" font-size="14" lengthAdjust="spacing" textLength="72" x="514.5" y="309.292">messages</text><text fill="#000000" font-family="sans-serif" font-size="14" lengthAdjust="spacing" textLength="58" x="514.5" y="325.5889">buffered</text></g><rect fill="#F1F1F1" height="40" rx="12.5" ry="12.5" style="stroke:#181818;stroke-width:0.5;" width="60" x="695.5" y="433"/><text fill="#000000" font-family="sans-serif" font-size="14" lengthAdjust="spacing" textLength="50" x="700.5" y="457.8467">Restart</text><ellipse cx="506.5" cy="727" fill="none" rx="10" ry="10" style="stroke:#222222;stroke-width:1.0;"/><ellipse cx="507" cy="727.5" fill="#222222" rx="6" ry="6" style="stroke:none;stroke-width:1.0;"/><g id="Errored"><rect fill="#F1F1F1" height="68.8906" rx="12.5" ry="12.5" style="stroke:#181818;stroke-width:0.5;" width="96" x="606.5" y="136"/><line style="stroke:#181818;stroke-width:0.5;" x1="606.5" x2="702.5" y1="162.2969" y2="162.2969"/><text fill="#000000" font-family="sans-serif" font-size="14" lengthAdjust="spacing" textLength="51" x="629" y="153.9951">Errored</text><text fill="#000000" font-family="sans-serif" font-size="14" lengthAdjust="spacing" textLength="76" x="611.5" y="180.292">handled by</text><text fill="#000000" font-family="sans-serif" font-size="14" lengthAdjust="spacing" textLength="72" x="611.5" y="196.5889">supervisor</text></g><!--MD5=[0e0ddfccc84b1bd82509cbd130cc9f93]
link *start to Starting--><g id="link_*start_Starting"><path d="M800.5,463.03 C800.5,485.64 800.5,545.53 800.5,582.57 " fill="none" id="*start-to-Starting" style="stroke:#181818;stroke-width:1.0;"/><polygon fill="#181818" points="800.5,587.86,804.5,578.86,800.5,582.86,796.5,578.86,800.5,587.86" style="stroke:#181818;stroke-width:1.0;"/></g><!--MD5=[184f6677789ea29b3d52499e1ada652c]
link Starting to Active--><g id="link_Starting_Active"><path d="M809.72,587.62 C816.43,567.34 824.94,538.27 828.5,512 C835.54,460.03 838.83,445.42 828.5,394 C804.02,272.13 795.38,235.22 720.5,136 C702.44,112.07 676.9,90.72 654.3,74.49 " fill="none" id="Starting-to-Active" style="stroke:#181818;stroke-width:1.0;"/><polygon fill="#181818" points="650.11,71.52,655.1397,79.9877,654.1893,74.4113,659.7657,73.4609,650.11,71.52" style="stroke:#181818;stroke-width:1.0;"/></g><!--MD5=[61cd3e2ef5038971bc38cd1808b9fa98]
link Active to Stopping--><g id="link_Active_Stopping"><path d="M556.72,63.58 C520.74,80.78 470.56,106.91 430.5,136 C314.97,219.9 198.3,341.42 138.83,406.61 " fill="none" id="Active-to-Stopping" style="stroke:#181818;stroke-width:1.0;"/><polygon fill="#181818" points="135.35,410.44,144.36,406.4626,138.7098,406.7371,138.4353,401.0869,135.35,410.44" style="stroke:#181818;stroke-width:1.0;"/></g><!--MD5=[6ebd39b14f61ad847253a4f08a842b2a]
link Stopping to Stopped--><g id="link_Stopping_Stopped"><path d="M190.04,453 C199.93,453 209.82,453 219.72,453 " fill="none" id="Stopping-to-Stopped" style="stroke:#181818;stroke-width:1.0;"/><polygon fill="#181818" points="224.89,453,215.89,449,219.89,453,215.89,457,224.89,453" style="stroke:#181818;stroke-width:1.0;"/></g><!--MD5=[89983ec93145a14d0e1aca2f64ebde07]
link Active to Disposed--><g id="link_Active_Disposed"><path d="M580.51,76.04 C553.27,118.01 509.43,193.15 492.5,265 C467.63,370.55 484.41,498.97 496.73,566.61 " fill="none" id="Active-to-Disposed" style="stroke:#181818;stroke-width:1.0;"/><polygon fill="#181818" points="497.69,571.77,500.0033,562.1967,496.7893,566.8518,492.1341,563.6378,497.69,571.77" style="stroke:#181818;stroke-width:1.0;"/></g><!--MD5=[f766fb3811e05548a81a20ae084d0c28]
link Stopping to Disposed--><g id="link_Stopping_Disposed"><path d="M172.77,495.56 C184.25,501.39 196.09,507.07 207.5,512 C283.73,544.96 374.44,574.46 435.8,593.04 " fill="none" id="Stopping-to-Disposed" style="stroke:#181818;stroke-width:1.0;"/><polygon fill="#181818" points="440.91,594.59,433.4477,588.1623,436.1228,593.1467,431.1385,595.8218,440.91,594.59" style="stroke:#181818;stroke-width:1.0;"/></g><!--MD5=[be463e28f87732a8a027707224b24a2d]
link Stopped to Disposed--><g id="link_Stopped_Disposed"><path d="M386.27,512.03 C408.43,530.73 432.63,551.16 453.47,568.75 " fill="none" id="Stopped-to-Disposed" style="stroke:#181818;stroke-width:1.0;"/><polygon fill="#181818" points="457.32,572,453.0348,563.1323,453.5036,568.7696,447.8662,569.2385,457.32,572" style="stroke:#181818;stroke-width:1.0;"/></g><!--MD5=[ee2e4313b7ca17c818878f81b1e56335]
link Paused to Restart--><g id="link_Paused_Restart"><path d="M593.23,334.12 C625.67,363.04 671.59,403.96 699.91,429.2 " fill="none" id="Paused-to-Restart" style="stroke:#181818;stroke-width:1.0;"/><polygon fill="#181818" points="703.96,432.8,699.9099,423.8224,700.2301,429.4702,694.5823,429.7903,703.96,432.8" style="stroke:#181818;stroke-width:1.0;"/></g><!--MD5=[f408903c227d62484f5a077d990aafac]
link Paused to Active--><g id="link_Paused_Active"><path d="M561.84,264.69 C570.73,217.27 586.87,131.2 596.23,81.25 " fill="none" id="Paused-to-Active" style="stroke:#181818;stroke-width:1.0;"/><polygon fill="#181818" points="597.18,76.23,591.5785,84.3308,596.2517,81.1431,599.4394,85.8162,597.18,76.23" style="stroke:#181818;stroke-width:1.0;"/></g><!--MD5=[24db4212cf738d49e969bfe181e0354d]
link Restart to Starting--><g id="link_Restart_Starting"><path d="M734.55,473.24 C747.4,500.56 771.05,550.88 786.27,583.23 " fill="none" id="Restart-to-Starting" style="stroke:#181818;stroke-width:1.0;"/><polygon fill="#181818" points="788.45,587.87,788.2296,578.0236,786.3176,583.3475,780.9936,581.4355,788.45,587.87" style="stroke:#181818;stroke-width:1.0;"/></g><!--MD5=[706b2b379d563e8e64b0e56a472dc7c7]
link Paused to Disposed--><g id="link_Paused_Disposed"><path d="M550.21,334.29 C541.42,390.41 523.81,502.95 513.83,566.68 " fill="none" id="Paused-to-Disposed" style="stroke:#181818;stroke-width:1.0;"/><polygon fill="#181818" points="513.01,571.94,518.35,563.6645,513.781,566.9998,510.4457,562.4308,513.01,571.94" style="stroke:#181818;stroke-width:1.0;"/></g><!--MD5=[6c13822630c1a6470ec8d02f6189e873]
link Disposed to *end--><g id="link_Disposed_*end"><path d="M506.5,657.28 C506.5,676.48 506.5,698 506.5,711.76 " fill="none" id="Disposed-to-*end" style="stroke:#181818;stroke-width:1.0;"/><polygon fill="#181818" points="506.5,716.81,510.5,707.81,506.5,711.81,502.5,707.81,506.5,716.81" style="stroke:#181818;stroke-width:1.0;"/></g><!--MD5=[a4f285580a437217a8f1a2b7967bb5cc]
link Active to Errored--><g id="link_Active_Errored"><path d="M605.62,76.2 C610.74,92.99 618.78,113.38 627.12,130.81 " fill="none" id="Active-to-Errored" style="stroke:#181818;stroke-width:1.0;"/><polygon fill="#181818" points="629.48,135.64,629.1206,125.7977,627.2839,131.1481,621.9336,129.3114,629.48,135.64" style="stroke:#181818;stroke-width:1.0;"/></g><!--MD5=[93e65af9f97d7e2ba0f8d765816200a9]
link Errored to Active--><g id="link_Errored_Active"><path d="M653,135.64 C647.96,118.83 639.92,98.44 631.5,81.03 " fill="none" id="Errored-to-Active" style="stroke:#181818;stroke-width:1.0;"/><polygon fill="#181818" points="629.11,76.2,629.5069,86.0409,631.3232,80.6835,636.6805,82.4997,629.11,76.2" style="stroke:#181818;stroke-width:1.0;"/></g><!--MD5=[75e310440133ab82b82678a330fd02b3]
link Errored to Disposed--><g id="link_Errored_Disposed"><path d="M648.52,205.09 C642.33,238.16 631.86,289.96 619.5,334 C596.86,414.66 590.15,434.85 557.5,512 C549.77,530.26 540.25,549.83 531.53,566.87 " fill="none" id="Errored-to-Disposed" style="stroke:#181818;stroke-width:1.0;"/><polygon fill="#181818" points="529.09,571.61,536.7561,565.4269,531.3716,567.1609,529.6376,561.7764,529.09,571.61" style="stroke:#181818;stroke-width:1.0;"/></g><!--MD5=[c392541101ca37fd6181c335e5d43fad]
link Errored to Restart--><g id="link_Errored_Restart"><path d="M664.17,205.18 C669.19,222.94 675.34,245.1 680.5,265 C695.6,323.23 711.73,392.1 719.96,427.81 " fill="none" id="Errored-to-Restart" style="stroke:#181818;stroke-width:1.0;"/><polygon fill="#181818" points="721.12,432.83,723.0125,423.1647,720.0051,427.9559,715.2139,424.9485,721.12,432.83" style="stroke:#181818;stroke-width:1.0;"/></g><!--MD5=[51fcaaa1e5acff6abaa379b06d6858b9]
link Errored to Paused--><g id="link_Errored_Paused"><path d="M628.23,205.2 C615.03,222.14 598.97,242.73 585.31,260.26 " fill="none" id="Errored-to-Paused" style="stroke:#181818;stroke-width:1.0;"/><polygon fill="#181818" points="581.89,264.64,590.5764,259.9981,584.9627,260.6955,584.2652,255.0819,581.89,264.64" style="stroke:#181818;stroke-width:1.0;"/></g><!--MD5=[dd875d87b06a24a7d80b7b2566de5841]
link Restart to Disposed--><g id="link_Restart_Disposed"><path d="M708.81,473.16 C697.95,485.04 683.14,500.24 668.5,512 C640.02,534.89 606.08,556.86 576.64,574.47 " fill="none" id="Restart-to-Disposed" style="stroke:#181818;stroke-width:1.0;"/><polygon fill="#181818" points="572.33,577.04,582.1083,575.8635,576.6238,574.4781,578.0092,568.9935,572.33,577.04" style="stroke:#181818;stroke-width:1.0;"/></g><!--MD5=[d03cba7fca56acf4247238ad1c7206e8]
@startuml
hide empty description
[*] - -> Starting 
Starting - -> Active
Active - -> Stopping
Stopping -> Stopped
Active - -> Disposed
Stopping - -> Disposed
Stopped - -> Disposed
Paused - -> Restart
Paused - -> Active
Restart - -> Starting
Paused - -> Disposed
Disposed - -> [*]
Active - -> Errored
Errored - -> Active
Errored - -> Disposed
Errored - -> Restart
Errored - -> Paused
Restart - -> Disposed

Active: processes\nmessages
Stopping: stop has been called\nchildren will be stopped\nfirst
Stopped: onStop method run,\nparent advised,\nmessages queued after\nthis point are sent to\nDeadLetter actor
Paused: messages\nbuffered
Disposed: mailbox cleared,\nnew messages\ndiscarded
Errored: handled by\nsupervisor
Starting: preStart method run

@enduml

PlantUML version 1.2022.7(Tue Aug 23 03:01:30 AEST 2022)
(GPL source distribution)
Java Runtime: OpenJDK Runtime Environment
JVM: OpenJDK 64-Bit Server VM
Default Encoding: UTF-8
Language: en
Country: AU
--></g></svg>